<?xml version="1.0" encoding="utf-8"?>
<!-- Generator: Adobe Illustrator 27.8.0, SVG Export Plug-In . SVG Version: 6.00 Build 0)  -->
<!DOCTYPE svg PUBLIC "-//W3C//DTD SVG 1.1//EN" "http://www.w3.org/Graphics/SVG/1.1/DTD/svg11.dtd" [
	<!ENTITY ns_extend "http://ns.adobe.com/Extensibility/1.0/">
	<!ENTITY ns_ai "http://ns.adobe.com/AdobeIllustrator/10.0/">
	<!ENTITY ns_graphs "http://ns.adobe.com/Graphs/1.0/">
	<!ENTITY ns_vars "http://ns.adobe.com/Variables/1.0/">
	<!ENTITY ns_imrep "http://ns.adobe.com/ImageReplacement/1.0/">
	<!ENTITY ns_sfw "http://ns.adobe.com/SaveForWeb/1.0/">
	<!ENTITY ns_custom "http://ns.adobe.com/GenericCustomNamespace/1.0/">
	<!ENTITY ns_adobe_xpath "http://ns.adobe.com/XPath/1.0/">
]>
<svg version="1.1" id="Calque_1" xmlns:x="&ns_extend;" xmlns:i="&ns_ai;" xmlns:graph="&ns_graphs;"
	 xmlns="http://www.w3.org/2000/svg" xmlns:xlink="http://www.w3.org/1999/xlink" x="0px" y="0px" width="99.3px" height="40.7px"
	 viewBox="0 0 99.3 40.7" style="enable-background:new 0 0 99.3 40.7;" xml:space="preserve">
<style type="text/css">
	.st0{fill:#FFFFFF;}
</style>
<metadata>
	<sfw  xmlns="&ns_sfw;">
		<slices></slices>
		<sliceSourceBounds  bottomLeftOrigin="true" height="31.6" width="97" x="1.3" y="4.2"></sliceSourceBounds>
	</sfw>
</metadata>
<path class="st0" d="M31.8,8.9H14.9c-1.5,0-2.9,1.2-2.9,2.7c0,1.6,1.2,2.9,2.8,2.9h13.6c0.3,0,0.5,0.2,0.5,0.5v18.5
	c0,1.5,1.2,2.9,2.7,2.9c1.6,0,2.9-1.2,2.9-2.8v-22C34.6,10.1,33.3,8.9,31.8,8.9"/>
<path class="st0" d="M4.1,32.5h16.8c1.5,0,2.9-1.2,2.9-2.7c0-1.6-1.2-2.9-2.8-2.9H7.4c-0.3,0-0.5-0.2-0.5-0.5V7.8
	c0-1.5-1.2-2.9-2.7-2.9c-1.6,0-2.9,1.2-2.9,2.8v22C1.3,31.2,2.5,32.5,4.1,32.5"/>
<path class="st0" d="M77.9,13.3c0,0.4,0.1,1.1,0.2,1.2h-0.7c0-0.1,0-0.3-0.1-0.4h0c-0.4,0.3-0.7,0.5-1.1,0.5c-1,0-1.5-0.8-1.5-1.9
	c0-1.5,0.9-2.1,1.7-2.1c0.4,0,0.7,0.1,0.9,0.2V8.9h0.7v1.4V13.3z M77.2,11.4c-0.2-0.1-0.5-0.3-0.8-0.3c-0.6,0-1,0.5-1,1.4
	c0,0.9,0.2,1.5,0.9,1.5c0.4,0,0.7-0.3,0.9-0.5V11.4z"/>
<path class="st0" d="M81.8,13.6l0.3,0.4c-0.4,0.4-0.9,0.6-1.4,0.6c-1.1,0-1.7-0.7-1.7-2c0-1.2,0.6-2,1.7-2c1,0,1.4,0.7,1.4,1.8
	l0,0.3l-2.5,0c0,0.7,0.3,1.3,1.1,1.3C81.2,14,81.5,13.8,81.8,13.6 M81.4,12.2c0-0.6-0.2-1.1-0.8-1.1c-0.5,0-0.9,0.4-1,1.1H81.4z"/>
<polyline class="st0" points="84.8,8.9 85.5,8.9 85.5,14.5 84.8,14.5 "/>
<path class="st0" d="M88.6,14.1c-0.4,0.3-0.7,0.5-1.1,0.5c-0.5,0-1-0.2-1-1c0-0.6,0.2-0.8,0.5-0.9c0.2-0.1,0.7-0.3,1.6-0.5v-0.3
	c0-0.4-0.1-0.7-0.6-0.7c-0.4,0-0.9,0.2-1.1,0.3l-0.2-0.5c0.4-0.2,1-0.4,1.4-0.4c0.8,0,1.1,0.4,1.1,1.1v1.7c0,0.2,0.1,1,0.2,1.1h-0.6
	C88.8,14.3,88.7,14.2,88.6,14.1L88.6,14.1z M88.6,12.6c-0.4,0.1-0.9,0.3-1.1,0.4c-0.1,0.1-0.2,0.2-0.2,0.5c0,0.3,0.2,0.5,0.5,0.5
	c0.3,0,0.7-0.3,0.9-0.5V12.6z"/>
<path class="st0" d="M40.3,32.5v-5.1h1.6c1.2,0,2.5,0.5,2.5,2.4c0,2.1-1.1,2.8-2.3,2.8H40.3z M41.7,27.9h-0.7v4h0.8
	c1.3,0,1.8-0.7,1.8-2C43.5,28.3,42.8,27.9,41.7,27.9"/>
<path class="st0" d="M48.2,31.1c0,0.4,0.1,0.9,0.2,1.3h-0.6c0-0.2,0-0.3-0.1-0.4l0,0c-0.3,0.3-0.7,0.5-1.2,0.5
	c-0.8,0-1.1-0.5-1.1-1.2v-2.6h0.6v2.4c0,0.6,0.1,0.8,0.6,0.8c0.4,0,0.8-0.3,1-0.5v-2.7h0.6V31.1z"/>
<path class="st0" d="M54,31.3c0,0.4,0.1,1,0.2,1.2h-0.7c0-0.1,0-0.2-0.1-0.4h0c-0.4,0.3-0.7,0.5-1.1,0.5c-0.9,0-1.5-0.7-1.5-1.9
	c0-1.5,0.9-2,1.7-2c0.3,0,0.6,0.1,0.8,0.2v-1.9H54v1.4V31.3z M53.4,29.5c-0.2-0.1-0.5-0.3-0.8-0.3c-0.6,0-1,0.4-1,1.4
	c0,0.8,0.2,1.4,0.9,1.4c0.4,0,0.7-0.2,0.9-0.5V29.5z"/>
<path class="st0" d="M55.1,30.6c0-1.2,0.7-1.9,1.8-1.9c1,0,1.7,0.7,1.7,1.8c0,1.4-0.6,2.1-1.7,2.1C55.7,32.5,55.1,31.8,55.1,30.6
	 M57.8,30.7c0-0.8-0.3-1.5-1.1-1.5c-0.7,0-1,0.6-1,1.3c0,0.7,0.3,1.5,1.1,1.5C57.5,32,57.8,31.4,57.8,30.7"/>
<path class="st0" d="M59.5,30.1c0-0.3,0-0.8-0.1-1.3H60c0,0.2,0.1,0.3,0.1,0.4l0,0c0.3-0.3,0.6-0.5,1.2-0.5c0.8,0,1.1,0.5,1.1,1.2
	v2.6h-0.6v-2.4c0-0.6-0.2-0.8-0.6-0.8c-0.4,0-0.8,0.3-1,0.5v2.7h-0.6V30.1z"/>
<path class="st0" d="M67.1,32c-0.4,0.3-0.6,0.5-1.1,0.5c-0.5,0-1-0.2-1-1c0-0.6,0.2-0.8,0.5-0.9c0.2-0.1,0.7-0.3,1.5-0.4v-0.3
	c0-0.4-0.1-0.7-0.5-0.7c-0.4,0-0.8,0.2-1.1,0.3L65.3,29c0.4-0.2,1-0.3,1.4-0.3c0.7,0,1,0.4,1,1.1v1.6c0,0.2,0.1,1,0.2,1.1h-0.6
	C67.2,32.3,67.2,32.2,67.1,32L67.1,32z M67.1,28.2l-1.6-0.7l-0.1,0L66,27l1.3,0.9L67.1,28.2z M67.1,30.6c-0.4,0.1-0.9,0.2-1.1,0.4
	c-0.1,0.1-0.2,0.2-0.2,0.5c0,0.3,0.2,0.5,0.5,0.5c0.3,0,0.7-0.3,0.9-0.5V30.6z"/>
<polygon class="st0" points="71.3,32.5 70.7,32.5 70.7,28.3 70.7,26.9 71.3,26.9 "/>
<path class="st0" d="M74.4,32c-0.4,0.3-0.6,0.5-1.1,0.5c-0.5,0-1-0.2-1-1c0-0.6,0.2-0.8,0.5-0.9c0.2-0.1,0.7-0.3,1.5-0.4v-0.3
	c0-0.4-0.1-0.7-0.5-0.7c-0.4,0-0.8,0.2-1.1,0.3L72.5,29c0.4-0.2,1-0.3,1.4-0.3c0.7,0,1,0.4,1,1.1v1.6c0,0.2,0.1,1,0.2,1.1h-0.6
	C74.5,32.3,74.5,32.2,74.4,32L74.4,32z M74.4,30.6c-0.4,0.1-0.9,0.2-1.1,0.4c-0.1,0.1-0.2,0.2-0.2,0.5c0,0.3,0.2,0.5,0.5,0.5
	c0.3,0,0.7-0.3,0.9-0.5V30.6z"/>
<polygon class="st0" points="79.2,31.7 80.2,28.7 80.8,28.7 79.7,31.8 79.5,32.5 78.7,32.5 77.5,28.7 78.2,28.7 79.1,31.7 "/>
<path class="st0" d="M82,27.1c0.3,0,0.5,0.2,0.5,0.5c0,0.2-0.2,0.5-0.5,0.5c-0.2,0-0.5-0.2-0.5-0.5C81.5,27.3,81.7,27.1,82,27.1
	 M82.3,32.5h-0.6v-2.4v-1.3h0.6V32.5z"/>
<path class="st0" d="M86.2,31.6l0.3,0.4c-0.4,0.3-0.9,0.5-1.4,0.5c-1,0-1.7-0.7-1.7-1.9c0-1.1,0.6-2,1.7-2c1,0,1.4,0.7,1.4,1.7
	l0,0.3l-2.4,0c0,0.7,0.3,1.3,1.1,1.3C85.5,32,85.8,31.8,86.2,31.6 M85.8,30.2c0-0.6-0.2-1-0.8-1c-0.5,0-0.9,0.4-1,1H85.8z"/>
<path class="st0" d="M43.2,14.5c0-0.2-0.1-0.4-0.2-0.6l-0.1,0c-0.5,0.4-0.9,0.7-1.5,0.7c-0.7,0-1.5-0.4-1.5-1.5
	c0-0.9,0.4-1.2,0.8-1.4c0.3-0.1,1.1-0.4,2.1-0.6v-0.4c0-0.5-0.1-0.9-0.7-0.9c-0.5,0-1.2,0.3-1.6,0.4l-0.3-0.9
	c0.6-0.3,1.5-0.5,2.2-0.5c1.3,0,1.6,0.7,1.6,1.9v2c0,0.4,0.2,1.3,0.3,1.7H43.2z M42.8,11.9c-0.6,0.2-1.1,0.3-1.4,0.5
	c-0.2,0.1-0.3,0.4-0.3,0.6c0,0.4,0.2,0.7,0.6,0.7c0.4,0,0.8-0.3,1.1-0.6V11.9z"/>
<path class="st0" d="M55.4,13l0.5,0.8c-0.6,0.5-1.4,0.8-2.2,0.8c-1.5,0-2.5-1-2.5-2.8c0-1.7,0.9-2.9,2.5-2.9c1.5,0,2.2,1.1,2.2,2.6
	l0,0.5l-3.4,0c0,0.9,0.4,1.6,1.3,1.6C54.5,13.6,54.9,13.4,55.4,13 M54.7,11.1c0-0.8-0.3-1.3-1-1.3c-0.7,0-1.1,0.5-1.2,1.3H54.7z"/>
<path class="st0" d="M57,11c0-0.5-0.1-1.3-0.2-2.1h1.1c0,0.2,0.1,0.5,0.2,0.7l0.1,0c0.4-0.3,0.9-0.7,1.7-0.7c1.2,0,1.7,0.7,1.7,1.8
	v3.9h-1.2V11c0-0.7-0.2-1-0.8-1c-0.5,0-1,0.3-1.2,0.6v3.9H57V11z"/>
<path class="st0" d="M66.6,10.3c-0.3-0.2-0.7-0.5-1.3-0.5c-0.7,0-1.4,0.5-1.4,1.8c0,0.9,0.3,1.8,1.4,1.8c0.6,0,1-0.2,1.4-0.5
	l0.5,0.8c-0.5,0.4-1.2,0.7-2,0.7c-1.7,0-2.6-1.1-2.6-2.8c0-1.9,1.1-2.9,2.7-2.9c0.8,0,1.4,0.3,1.9,0.7L66.6,10.3z"/>
<path class="st0" d="M71.9,13l0.5,0.8c-0.6,0.5-1.4,0.8-2.2,0.8c-1.5,0-2.5-1-2.5-2.8c0-1.7,0.9-2.9,2.5-2.9c1.5,0,2.2,1.1,2.2,2.6
	l0,0.5L69,12c0,0.9,0.4,1.6,1.3,1.6C71,13.6,71.4,13.4,71.9,13 M71.1,11.1c0-0.8-0.3-1.3-1-1.3c-0.7,0-1.1,0.5-1.2,1.3L71.1,11.1z"
	/>
<path class="st0" d="M40.3,22.8v-3.7l0-2.6h1.2v2.2c0,0.3,0,0.6,0,0.9c0.5-0.4,0.9-0.7,1.6-0.7c1.5,0,1.9,1.3,1.9,2.6
	c0,1.9-1.1,3.1-2.6,3.1c-0.4,0-1.2,0-2.1-0.4C40.3,24.2,40.3,23.3,40.3,22.8 M42.6,20c-0.6,0-1.1,0.5-1.1,0.5v3
	c0.2,0.1,0.5,0.2,0.8,0.2c1,0,1.4-0.9,1.4-2C43.7,20.4,43.3,20,42.6,20"/>
<path class="st0" d="M46.7,17.3c0.4,0,0.7,0.3,0.7,0.7c0,0.4-0.3,0.7-0.7,0.7c-0.4,0-0.7-0.3-0.7-0.7C46.1,17.6,46.4,17.3,46.7,17.3
	 M46.2,19.3l1.2,0l0,5.1h-1.2"/>
<path class="st0" d="M48.6,21.7c0-1.8,1.1-2.8,2.6-2.8c1.5,0,2.5,1,2.5,2.6c0,2-0.9,3-2.6,3C49.5,24.6,48.6,23.4,48.6,21.7
	 M52.5,21.9c0-1-0.4-1.9-1.3-1.9c-0.8,0-1.3,0.7-1.3,1.7c0,0.9,0.3,2,1.3,2C52.1,23.6,52.5,22.8,52.5,21.9"/>
<path class="st0" d="M54.9,21c0-0.4-0.1-1.3-0.2-2.1h1.1c0,0.1,0.1,0.5,0.2,0.7l0.1,0c0.5-0.4,0.9-0.7,1.6-0.7
	c0.6,0,1.1,0.2,1.3,0.8c0.5-0.4,1-0.8,1.7-0.8c1.1,0,1.5,0.7,1.5,1.7v3.8h-1.2V21c0-0.7-0.2-1-0.6-1c-0.5,0-0.9,0.3-1.2,0.6v3.8
	h-1.2V21c0-0.7-0.2-1-0.6-1c-0.5,0-0.9,0.4-1.1,0.6v3.8h-1.2V21z"/>
<path class="st0" d="M65.8,23.6c0.6,0,1.1-0.2,1.6-0.5l0.5,0.8c-0.6,0.5-1.4,0.7-2.2,0.7c-1.5,0-2.5-1-2.5-2.8
	c0-1.7,0.9-2.9,2.5-2.9c1.5,0,2.1,1.1,2.1,2.6l0,0.5l-3.3,0C64.5,22.8,64.9,23.6,65.8,23.6 M64.5,21.1h2.1c0-0.8-0.3-1.3-1-1.3
	C65,19.8,64.6,20.3,64.5,21.1 M64.7,18.5l2.4-0.9l0.2-0.1l-1-0.9l-1.9,1.2L64.7,18.5z"/>
<path class="st0" d="M72.3,23.9c-0.5,0.4-0.9,0.7-1.5,0.7c-1.4,0-2.1-1.1-2.1-2.7c0-2.1,1.2-2.9,2.4-2.9c0.4,0,0.8,0.1,1.1,0.3v-2.8
	h1.2c0,0,0,1.9,0,2.6v3.7c0,0.6,0.1,1.4,0.2,1.7h-1.1C72.4,24.3,72.4,24.1,72.3,23.9L72.3,23.9z M72.1,20.2c-0.2-0.2-0.6-0.3-1-0.3
	c-0.7,0-1.2,0.6-1.2,1.8c0,1,0.3,1.9,1.1,1.9c0.4,0,0.8-0.3,1.1-0.6V20.2z"/>
<path class="st0" d="M78.7,23l0.5,0.8c-0.6,0.5-1.4,0.7-2.2,0.7c-1.5,0-2.5-1-2.5-2.8c0-1.7,0.9-2.9,2.5-2.9c1.5,0,2.1,1.1,2.1,2.6
	l0,0.5l-3.3,0c0,0.9,0.4,1.6,1.3,1.6C77.8,23.6,78.2,23.3,78.7,23 M77.9,21.1c0-0.8-0.3-1.3-1-1.3c-0.6,0-1.1,0.5-1.2,1.3H77.9z"/>
<path class="st0" d="M83.8,20.4c-0.3-0.2-0.7-0.4-1.3-0.4c-0.7,0-1.4,0.5-1.4,1.8c0,0.9,0.3,1.8,1.4,1.8c0.6,0,1-0.2,1.4-0.5
	l0.5,0.8c-0.5,0.4-1.2,0.7-2,0.7c-1.7,0-2.6-1.1-2.6-2.8c0-1.9,1.1-2.9,2.6-2.9c0.8,0,1.4,0.3,1.8,0.6L83.8,20.4z"/>
<path class="st0" d="M88.1,21c0-0.4-0.1-1.3-0.2-2.1H89c0,0.2,0.1,0.5,0.1,0.7l0.1,0c0.4-0.3,0.9-0.7,1.7-0.7c1.1,0,1.6,0.7,1.6,1.7
	v3.8h-1.2V21c0-0.7-0.2-1-0.8-1c-0.5,0-0.9,0.3-1.2,0.6v3.9h-1.2V21z"/>
<path class="st0" d="M97.8,23l0.5,0.8c-0.6,0.5-1.4,0.7-2.2,0.7c-1.5,0-2.5-1-2.5-2.8c0-1.7,0.9-2.9,2.5-2.9c1.5,0,2.1,1.1,2.1,2.6
	l0,0.5l-3.3,0c0,0.9,0.4,1.6,1.3,1.6C96.9,23.6,97.3,23.3,97.8,23 M97,21.1c0-0.8-0.3-1.3-1-1.3c-0.6,0-1.1,0.5-1.2,1.3L97,21.1z"/>
<path class="st0" d="M48.9,9.5L48.9,9.5L49,8.9l1,0c0,0,0,1.7,0,2.1l0,3.4c0,1.6-0.6,2.3-2.2,2.3c-0.8,0-1.6-0.1-2.2-0.4l0.3-1
	c0.6,0.3,1.2,0.4,1.7,0.4c0.8,0,1.1-0.3,1.1-1.1l0,0c0-0.3,0-0.6,0.1-0.7l-0.1,0c-0.4,0.4-0.8,0.7-1.5,0.7c-1.3,0-2.1-1-2.1-2.6
	c0-1.9,0.9-3,2.3-3C48,8.9,48.5,9.1,48.9,9.5 M48.8,10.4c-0.3-0.3-0.7-0.5-1.1-0.5c-0.7,0-1.1,0.6-1.1,1.9c0,1.1,0.3,1.7,1,1.7
	c0.5,0,0.8-0.3,1.2-0.6V10.4z"/>
<path class="st0" d="M85.9,17.3c0.4,0,0.7,0.3,0.7,0.7c0,0.4-0.3,0.7-0.7,0.7c-0.4,0-0.7-0.3-0.7-0.7C85.2,17.6,85.5,17.3,85.9,17.3
	 M86.6,24.5h-1.2V21l0-1.7l1.2,0L86.6,24.5z"/>
</svg>
