<svg enable-background="new 0 0 99.3 40.7" version="1.1" viewBox="0 0 99.3 40.7" xmlns="http://www.w3.org/2000/svg">
 <style type="text/css">.st0{fill:#f1faee;}</style>
 <path class="st0" d="m39.2 37.1c0 2.2-1.4 3.5-3.7 3.5h-2.1v-7h2.1c2.3 0 3.7 1.3 3.7 3.5m-5-2.8v5.6h1.3c1.9 0 3-1 3-2.8s-1.1-2.8-3-2.8h-1.3z"/>
 <path class="st0" d="m44.3 40.6h-0.6v-0.6c-0.3 0.4-0.8 0.7-1.6 0.7-1.1 0-1.7-0.8-1.7-2v-2.9h0.6v2.8c0 0.8 0.4 1.4 1.2 1.4 0.7 0 1.1-0.4 1.4-0.8v-3.4h0.7v4.8z"/>
 <path class="st0" d="m52.1 40.6h-0.6v-0.6c-0.3 0.4-0.8 0.7-1.6 0.7-1.3 0-2.2-1-2.2-2.5 0-1.4 0.9-2.5 2.2-2.5 0.8 0 1.3 0.3 1.6 0.7v-3.1h0.7v7.3zm-3.8-2.4c0 1.1 0.7 1.8 1.6 1.8 0.7 0 1.2-0.4 1.5-0.9v-2c-0.3-0.5-0.8-0.9-1.5-0.9-0.9 0.1-1.6 0.9-1.6 2"/>
 <path class="st0" d="m58 38.2c0 1.4-1 2.5-2.4 2.5s-2.4-1-2.4-2.5c0-1.4 1-2.5 2.4-2.5s2.4 1.1 2.4 2.5m-4.1 0c0 1.1 0.7 1.8 1.7 1.8s1.7-0.8 1.7-1.8c0-1.1-0.7-1.9-1.7-1.9s-1.7 0.8-1.7 1.9"/>
 <path class="st0" d="m63.1 37.7v2.8h-0.7v-2.8c0-0.8-0.5-1.4-1.3-1.4-0.6 0-1 0.4-1.4 0.8v3.4h-0.7v-4.8h0.6v0.6c0.3-0.4 0.8-0.7 1.6-0.7 1.2 0.1 1.9 0.9 1.9 2.1"/>
 <path class="st0" d="m70.2 36.4v-0.6h0.6v4.8h-0.6v-0.6c-0.3 0.4-0.8 0.7-1.6 0.7-1.3 0-2.2-1-2.2-2.5 0-1.4 0.9-2.5 2.2-2.5 0.8 0 1.3 0.4 1.6 0.7m-0.9-1.3h-0.7l-1.5-1.2h0.9l1.3 1.2zm-2.2 3.1c0 1.1 0.6 1.8 1.6 1.8 0.7 0 1.1-0.4 1.4-0.9v-2c-0.3-0.5-0.7-0.9-1.4-0.9-1 0.1-1.6 0.9-1.6 2"/>
 <rect class="st0" x="74.6" y="33.3" width=".7" height="7.2"/>
 <path class="st0" d="m80.1 36.4v-0.6h0.6v4.8h-0.6v-0.6c-0.3 0.4-0.8 0.7-1.6 0.7-1.3 0-2.2-1-2.2-2.5 0-1.4 0.9-2.5 2.2-2.5 0.8 0 1.3 0.4 1.6 0.7m-3.1 1.8c0 1.1 0.6 1.8 1.6 1.8 0.7 0 1.1-0.4 1.4-0.9v-2c-0.3-0.5-0.7-0.9-1.4-0.9-0.9 0.1-1.6 0.9-1.6 2"/>
 <polygon class="st0" points="86.2 40.7 86.2 40.7 83.8 35.8 84.6 35.8 86.2 39.3 87.9 35.8 88.6 35.8"/>
 <path class="st0" d="m90.2 34.3c0 0.3-0.2 0.5-0.5 0.5s-0.5-0.2-0.5-0.5 0.2-0.5 0.5-0.5 0.5 0.2 0.5 0.5m-0.1 6.3h-0.7v-4.8h0.7v4.8z"/>
 <path class="st0" d="m95.5 38.2v0.3h-3.7c0 1 0.6 1.6 1.7 1.6 0.7 0 1.2-0.3 1.4-0.7l0.5 0.4c-0.4 0.6-1 0.9-1.9 0.9-1.5 0-2.4-1-2.4-2.5 0-1.4 0.9-2.5 2.2-2.5 1.5 0 2.2 1.1 2.2 2.5m-3.6-0.3h3c0-0.9-0.6-1.5-1.5-1.5-0.9-0.1-1.5 0.5-1.5 1.5"/>
 <path class="st0" d="m97.4 40.1c0 0.3-0.2 0.6-0.6 0.6-0.3 0-0.6-0.2-0.6-0.6 0-0.3 0.2-0.6 0.6-0.6 0.4 0.1 0.6 0.3 0.6 0.6"/>
 <path class="st0" d="m40.9 21.5h1.2v6.1h-1.2v-6.1zm0.6-0.7c-0.4 0-0.7-0.3-0.7-0.7s0.3-0.7 0.7-0.7c0.5 0 0.7 0.4 0.7 0.7 0 0.4-0.3 0.7-0.7 0.7"/>
 <path class="st0" d="m64.2 18.7h-1.3c-0.2 0.6-0.7 1.5-1 2h0.8c0.5-0.5 1.2-1.5 1.5-2"/>
 <path class="st0" d="m85.2 21.5h1.2v6.1h-1.2v-6.1zm0.6-0.7c-0.4 0-0.7-0.3-0.7-0.7s0.3-0.7 0.7-0.7c0.5 0 0.7 0.4 0.7 0.7 0 0.4-0.3 0.7-0.7 0.7"/>
 <path class="st0" d="m13.7 12.5h-4.4c-0.7 0-1.3-0.5-1.3-1.2v-0.7c0-0.7 0.5-1.2 1.2-1.2h17.8c1.1 0 2 0.9 2 2v17.7c0 1.1-0.9 2-2 2h-1.1c-1.1 0-2-0.9-2-2v-15.2s0.1-1.4-1.2-1.4h-7.3-1.7z"/>
 <path class="st0" d="m19.1 24.4h0.8c0.7 0 1.2 0.6 1.2 1.2v0.7c0 0.7-0.6 1.2-1.2 1.2h-4.4-0.1-13.4c-1.1 0-2-0.9-2-2v-23.5c0-1.1 0.9-2 2-2h1.1c1.1 0 2 0.9 2 2v21.3s-0.1 1 1.1 1.1h12.4 0.5z"/>
 <polygon class="st0" points="85.3 15.4 85.3 9.2 84.4 9.1 84.4 15.4"/>
 <path class="st0" d="m33.5 16.4v11.1c0.4 0.2 1.3 0.3 2.1 0.3 2.6 0 4.2-1.5 4.2-4.3 0-2.2-1.5-3.6-3.1-3.7-0.7 0-1.5 0-2.1 0.5v-3.5c-1-0.2-1.1-0.4-1.1-0.4m5 7.2c0 1.6-0.7 3.1-2.5 3.1-0.4 0-0.9 0-1.3-0.2v-5.3c0.4-0.3 1-0.4 1.5-0.4 1.4 0.1 2.3 1.3 2.3 2.8"/>
 <path class="st0" d="m49.1 10c0.5 0 0.9 0.2 1.1 0.5s0.3 0.6 0.3 1.2h-2.9c0.1-1.1 0.6-1.7 1.5-1.7m1.9-0.2c-0.4-0.4-1.1-0.7-1.8-0.7-0.8 0-1.5 0.3-2 0.9-0.6 0.6-0.8 1.3-0.8 2.3 0 2 1.1 3.3 3 3.3 0.9 0 1.7-0.3 2.3-0.8h0.1v-0.1l-0.4-0.6v-0.1l-0.1 0.1c-0.5 0.4-1 0.6-1.6 0.6-0.5 0-1.2-0.1-1.6-0.7-0.2-0.3-0.3-0.7-0.3-1.3v-0.1h4.1v-0.2c-0.1-1.5-0.3-2.1-0.9-2.6"/>
 <path class="st0" d="m53.1 10.8v4.6h1.2v-4.5c0.5-0.4 1.3-0.8 1.8-0.8 0.3 0 0.5 0.1 0.7 0.2 0.2 0.2 0.2 0.3 0.2 1v4.1h1.2v-4.6c0-0.3-0.1-0.5-0.2-0.7-0.3-0.6-0.9-0.9-1.7-0.9-0.7 0-1.4 0.3-2 0.9 0-0.3-0.1-0.5-0.2-0.8v-0.1h-0.1l-1 0.3h-0.1v0.1c0.2 0.3 0.2 0.4 0.2 1.2"/>
 <path class="st0" d="m64.1 14.7v-0.1l-0.5-0.6-0.1-0.1v0.1c-0.4 0.4-0.9 0.6-1.4 0.6-1.3 0-1.6-1.1-1.6-2s0.1-1.5 0.4-1.9c0.2-0.4 0.7-0.6 1.2-0.6s0.7 0.1 1.2 0.5h0.1v-0.1l0.6-0.7h-0.1c-0.4-0.3-1-0.7-1.9-0.7-0.7 0-1.3 0.2-1.8 0.7-0.7 0.6-1 1.4-1 2.6 0 0.9 0.2 1.6 0.7 2.2s1.2 0.9 2.2 0.9c0.8 0 1.4-0.2 2-0.8"/>
 <path class="st0" d="m67.6 10c0.5 0 0.9 0.2 1.1 0.5s0.3 0.6 0.3 1.2h-2.9c0.1-1.1 0.6-1.7 1.5-1.7m0.2 5.5c0.9 0 1.7-0.3 2.3-0.8h0.1v-0.1l-0.4-0.6v-0.1l-0.1 0.1c-0.5 0.4-0.9 0.6-1.6 0.6-0.5 0-1.2-0.1-1.6-0.7-0.2-0.3-0.3-0.7-0.3-1.3v-0.1h4.1v-0.2c0-1.5-0.2-2.1-0.8-2.6-0.4-0.4-1.1-0.7-1.8-0.7-0.8 0-1.5 0.3-2 0.9-0.6 0.6-0.8 1.3-0.8 2.3-0.1 2.1 1 3.3 2.9 3.3"/>
 <path class="st0" d="m76.1 14.2c0 0.1-0.1 0.2-0.2 0.3-0.3 0.2-0.5 0.3-0.9 0.3-0.3 0-0.5-0.1-0.7-0.2-0.3-0.3-0.3-0.6-0.3-1.3 0-0.6 0.1-0.9 0.3-1.2s0.5-0.4 0.8-0.4c0.5 0 0.8 0.1 1.1 0.4v2.1zm0.9 0.8c0-0.2-0.1-0.6-0.1-1v-4.8h-0.1l-0.7-0.1h-0.1v1.9 0.5c-0.3-0.3-0.7-0.4-1.2-0.4-0.3 0-0.6 0.1-0.9 0.3-0.7 0.4-1 1.1-1 2 0 1.4 0.7 2.2 2 2.2 0.4 0 0.7-0.1 1-0.2l0.2-0.2c0 0.1 0 0.2 0.1 0.3h0.9v-0.1c-0.1-0.2-0.1-0.3-0.1-0.4"/>
 <path class="st0" d="m79.8 11.6c0.3 0 0.6 0.1 0.8 0.3 0.1 0.2 0.2 0.4 0.2 0.8h-2c0.1-0.7 0.4-1.1 1-1.1m0.2 3.9c0.6 0 1.2-0.2 1.6-0.5v-0.1l-0.3-0.4v-0.1l-0.1 0.1c-0.3 0.3-0.7 0.4-1.1 0.4-0.3 0-0.8-0.1-1.1-0.5-0.1-0.2-0.2-0.5-0.2-0.9h2.9v-0.2c0-1-0.1-1.4-0.6-1.8-0.3-0.3-0.8-0.5-1.3-0.5-0.6 0-1.1 0.2-1.4 0.6-0.4 0.4-0.6 0.9-0.6 1.6 0.1 1.4 0.9 2.3 2.2 2.3"/>
 <path class="st0" d="m47.5 26c-0.2 0.6-0.7 0.9-1.4 0.9-0.5 0-1.1-0.2-1.3-0.6s-0.4-1.1-0.4-1.9c0-0.7 0.1-1.2 0.3-1.5 0.2-0.4 0.7-0.6 1.3-0.6 0.5 0 1.1 0.2 1.3 0.7 0.2 0.4 0.3 0.9 0.3 1.8 0.1 0.5 0.1 0.9-0.1 1.2m-1.4-4.7c-1.8 0-2.9 1.2-2.9 3.2s1.1 3.3 2.9 3.3c0.8 0 1.3-0.2 1.8-0.6 0.7-0.6 1.1-1.3 1.1-2.5 0-1-0.2-1.7-0.6-2.3-0.5-0.7-1.3-1.1-2.3-1.1"/>
 <path class="st0" d="m56.8 21.3c-0.7 0-1.4 0.4-2.1 0.9-0.1-0.1-0.1-0.2-0.2-0.3-0.3-0.4-0.8-0.6-1.4-0.6-0.4 0-0.7 0.1-1.1 0.3-0.3 0.2-0.5 0.3-0.7 0.5 0-0.2-0.1-0.5-0.2-0.8v-0.1h-0.1l-1 0.2h-0.1v0.1c0.2 0.5 0.2 0.6 0.2 1.4v4.5h1.1v-4.5c0.7-0.5 1.1-0.8 1.6-0.8 0.3 0 0.5 0.1 0.6 0.2 0.2 0.1 0.2 0.2 0.2 0.7v4.3h1.2v-4.4l0.1-0.1c0.2-0.2 0.4-0.4 0.7-0.5 0.3-0.2 0.6-0.3 0.9-0.3 0.5 0 0.8 0.3 0.8 0.8v4.5h1.2v-4.3c0.1-1-0.7-1.7-1.7-1.7"/>
 <path class="st0" d="m62.5 22.2c0.5 0 0.9 0.2 1.1 0.5s0.3 0.6 0.3 1.2h-2.9c0.1-1.1 0.6-1.7 1.5-1.7m1.9-0.2c-0.4-0.4-1.1-0.7-1.8-0.7-0.8 0-1.5 0.3-2 0.9-0.6 0.6-0.8 1.3-0.8 2.3 0 2 1.1 3.3 3 3.3 0.9 0 1.7-0.3 2.3-0.8h0.1v-0.1l-0.4-0.6v-0.1l-0.1 0.1c-0.4 0.4-0.9 0.5-1.6 0.5-0.5 0-1.2-0.1-1.6-0.7-0.2-0.3-0.3-0.7-0.3-1.3v-0.1h4.1v-0.2c-0.2-1.4-0.3-2-0.9-2.5"/>
 <path class="st0" d="m70.5 26c0 0.1-0.1 0.2-0.4 0.4-0.4 0.3-0.7 0.4-1.2 0.4s-0.7-0.1-1-0.4c-0.4-0.4-0.5-0.8-0.5-1.8 0-0.8 0.1-1.2 0.4-1.7 0.3-0.4 0.7-0.6 1.2-0.6 0.7 0 1.2 0.2 1.5 0.6v3.1zm1.3 1.1c0-0.3-0.1-0.9-0.1-1.5v-6.7h-0.1l-1-0.2h-0.1v2.6 0.7c-0.4-0.4-1-0.6-1.7-0.6-0.5 0-0.9 0.1-1.3 0.4-0.9 0.6-1.4 1.5-1.4 2.8 0 2 1 3.1 2.8 3.1 0.5 0 1-0.1 1.3-0.3 0.1-0.1 0.2-0.2 0.4-0.3 0 0.2 0.1 0.3 0.1 0.5h1.2v-0.1c-0.1-0.2-0.1-0.3-0.1-0.4"/>
 <path class="st0" d="m75.6 22.2c0.5 0 0.9 0.2 1.1 0.5s0.3 0.6 0.3 1.2h-2.9c0.1-1.1 0.6-1.7 1.5-1.7m1.9-0.2c-0.4-0.4-1.1-0.7-1.8-0.7-0.8 0-1.5 0.3-2 0.9-0.6 0.6-0.8 1.3-0.8 2.3 0 2 1.1 3.3 3 3.3 0.9 0 1.7-0.3 2.3-0.8h0.1v-0.1l-0.4-0.6v-0.1l-0.1 0.1c-0.5 0.4-0.9 0.5-1.6 0.5-0.5 0-1.2-0.1-1.6-0.7-0.2-0.3-0.3-0.7-0.3-1.3v-0.1h4.1v-0.2c-0.1-1.4-0.3-2-0.9-2.5"/>
 <path class="st0" d="m83.6 26.2h-0.1c-0.4 0.4-0.8 0.6-1.4 0.6-1.3 0-1.6-1.1-1.6-2s0.1-1.5 0.4-1.9c0.2-0.4 0.7-0.6 1.2-0.6s0.7 0.1 1.2 0.5h0.1v-0.1l0.7-0.7h-0.1c-0.4-0.3-1-0.7-1.8-0.7-0.7 0-1.3 0.2-1.8 0.7-0.7 0.6-1 1.4-1 2.6 0 0.9 0.2 1.6 0.7 2.2s1.2 0.9 2.2 0.9c0.8 0 1.4-0.2 2.1-0.8l0.1-0.1-0.1-0.1-0.8-0.5z"/>
 <path class="st0" d="m90.9 21.3c-0.7 0-1.3 0.3-2 0.8 0-0.3-0.1-0.5-0.2-0.8v-0.1h-0.1l-1.1 0.3v0.1c0.2 0.4 0.2 0.6 0.2 1.4v4.5h1.2v-4.5c0.5-0.4 1.3-0.8 1.7-0.8 0.3 0 0.5 0.1 0.7 0.2 0.2 0.2 0.2 0.3 0.2 0.9v4.1h1.2v-4.4c0-0.3-0.1-0.5-0.2-0.7-0.2-0.6-0.8-1-1.6-1"/>
 <path class="st0" d="m96.6 22.2c0.5 0 0.9 0.2 1.1 0.5s0.3 0.6 0.3 1.2h-2.9c0.1-1.1 0.6-1.7 1.5-1.7m1.9-0.2c-0.4-0.4-1.1-0.7-1.8-0.7-0.8 0-1.5 0.3-2 0.9-0.6 0.6-0.8 1.3-0.8 2.3 0 2 1.1 3.3 3 3.3 0.9 0 1.7-0.3 2.3-0.8h0.1v-0.1l-0.4-0.6v-0.1l-0.1 0.1c-0.4 0.4-0.9 0.5-1.6 0.5-0.5 0-1.2-0.1-1.6-0.7-0.2-0.3-0.3-0.7-0.3-1.3v-0.1h4.1v-0.2c-0.1-1.4-0.3-2-0.9-2.5"/>
 <path class="st0" d="m34.8 12.8c0.3-0.3 0.9-0.5 1.9-0.5h0.3 0.1v1.5c-0.3 0.5-1 0.8-1.6 0.8-0.5 0-1.1-0.2-1.1-0.9 0.1-0.4 0.2-0.7 0.4-0.9m2.4 2.1c0 0.2 0.1 0.3 0.1 0.5h1.2v-0.1c-0.1-0.2-0.1-0.3-0.1-0.4 0-0.3-0.1-0.8-0.1-1.5v-1.8-0.1-0.3c0-0.6 0-0.8-0.2-1.1-0.3-0.6-1-1-1.9-1-1 0-1.9 0.3-2.8 0.8h-0.1l0.1 0.1 0.5 0.7v0.1h0.1c0.3-0.2 0.4-0.3 0.8-0.4 0.5-0.2 0.9-0.3 1.3-0.3s0.6 0.1 0.8 0.3 0.2 0.4 0.2 0.9v0.3h-0.4c-2.3 0-3.6 0.8-3.6 2.2 0 0.4 0.2 0.9 0.6 1.2 0.3 0.3 0.7 0.5 1.7 0.5 0.7 0 1.2-0.1 1.8-0.6z"/>
 <path class="st0" d="m87.2 13.6c0.2-0.2 0.6-0.3 1.3-0.3h0.2 0.1v1c-0.2 0.4-0.7 0.6-1.1 0.6-0.3 0-0.8-0.2-0.8-0.7 0.1-0.3 0.2-0.5 0.3-0.6m1.7 1.4c0 0.1 0 0.2 0.1 0.3h0.9v-0.1c-0.1-0.1-0.1-0.2-0.1-0.3v-1-1.6c0-0.4 0-0.6-0.1-0.8-0.2-0.5-0.7-0.7-1.4-0.7s-1.4 0.2-2 0.6l0.4 0.5c0.2-0.2 0.3-0.2 0.6-0.3s0.6-0.2 0.9-0.2 0.4 0.1 0.6 0.2c0.1 0.1 0.1 0.3 0.1 0.6v0.2h-0.3c-1.6 0-2.5 0.6-2.5 1.6 0 0.3 0.1 0.6 0.4 0.9 0.2 0.2 0.5 0.4 1.2 0.4 0.4 0.2 0.8 0.1 1.2-0.3z"/>
 <path class="st0" d="m43.9 15v0.5c0 0.8 0 1.9-2 1.9-0.8 0-1.5-0.2-1.9-0.4v1.1c0.3 0.1 1 0.2 2.1 0.2 2 0 3-0.8 3-2.7v-4.5c0-0.6 0-1.2 0.1-1.4 0-0.2 0-0.3 0.1-0.4v-0.1h-1.2c-0.1 0.3-0.1 0.4-0.1 0.5-0.4-0.4-1.1-0.7-1.7-0.7-0.5 0-0.8 0.1-1.3 0.4-0.9 0.6-1.4 1.6-1.4 2.9 0 2 1 3.2 2.7 3.2 0.5 0 1-0.1 1.3-0.3 0.1-0.1 0.2-0.1 0.3-0.2zm0-1.1c0 0.1-0.1 0.2-0.4 0.4-0.4 0.3-0.7 0.4-1.2 0.4s-0.7-0.1-1-0.4c-0.4-0.4-0.5-0.9-0.5-1.9 0-0.8 0.1-1.3 0.4-1.8 0.3-0.4 0.7-0.6 1.2-0.6 0.7 0 1.2 0.2 1.5 0.6v3.3z"/>
</svg>
