<?xml version="1.0" encoding="UTF-8" standalone="no"?>
<!-- Created with Inkscape (http://www.inkscape.org/) -->

<svg
   width="38.911667mm"
   height="59.660526mm"
   viewBox="0 0 38.911667 59.660526"
   version="1.1"
   id="svg1"
   xml:space="preserve"
   sodipodi:docname="coeur.svg"
   inkscape:version="1.3.2 (091e20ef0f, 2023-11-25, custom)"
   xmlns:inkscape="http://www.inkscape.org/namespaces/inkscape"
   xmlns:sodipodi="http://sodipodi.sourceforge.net/DTD/sodipodi-0.dtd"
   xmlns="http://www.w3.org/2000/svg"
   xmlns:svg="http://www.w3.org/2000/svg"><sodipodi:namedview
     id="namedview1"
     pagecolor="#ffffff"
     bordercolor="#000000"
     borderopacity="0.25"
     inkscape:showpageshadow="2"
     inkscape:pageopacity="0.0"
     inkscape:pagecheckerboard="0"
     inkscape:deskcolor="#d1d1d1"
     inkscape:document-units="mm"
     inkscape:zoom="1.0167041"
     inkscape:cx="125.40522"
     inkscape:cy="171.63303"
     inkscape:window-width="941"
     inkscape:window-height="1016"
     inkscape:window-x="0"
     inkscape:window-y="0"
     inkscape:window-maximized="1"
     inkscape:current-layer="g1" /><defs
     id="defs1" /><g
     inkscape:label="Calque 1"
     inkscape:groupmode="layer"
     id="layer1"
     transform="translate(-28.839583,-107.15625)"><g
       id="g1"
       transform="translate(-18.315196,47.148949)"><path
         style="fill:#ffffff;fill-opacity:1"
         d="M 67.429995,119.351 C 57.358074,116.51267 50.390224,107.85758 47.613844,94.73646 c -1.32299,-6.25243 0.203043,-11.56268 4.714998,-16.407143 1.930263,-2.072514 4.414482,-3.837933 6.533633,-4.643147 1.54095,-0.585515 5.401683,-1.307002 6.993866,-1.307002 h 1.081539 l -1.579218,1.618562 c -3.341595,3.424847 -8.058203,6.583521 -9.830673,6.583521 -0.76258,0 -0.351733,2.164655 0.342231,2.255623 2.631473,0.344948 2.33881,-0.723004 5.395683,-2.762484 0.945885,-0.631075 3.522684,-2.964864 5.726219,-5.186197 2.89158,-2.914934 4.485198,-4.30653 5.726982,-5.000976 2.088699,-1.168066 4.476804,-2.157618 5.811132,-2.407939 l 0.98932,-0.185597 -0.43085,1.021389 c -0.23845,0.565285 -0.43944,1.79039 -0.45009,2.743471 -0.0279,2.492897 1.02906,4.463761 3.37132,6.286603 0.4224,0.328726 0.68793,0.677752 0.59007,0.775614 -0.0979,0.09786 -1.64092,0.247156 -3.42903,0.331767 -2.973527,0.140704 -3.400805,0.227539 -5.004589,1.01708 -2.220491,1.093143 -3.861431,2.887425 -5.230662,5.719475 -1.495592,3.0934 -1.239938,5.283338 -1.760356,8.5548 -0.46255,2.907693 1.886924,4.271569 1.92371,0.33112 0.03643,-3.9021 0.07877,-4.21014 0.872864,-6.35 1.936434,-5.21816 4.71641,-7.408333 9.403363,-7.408333 1.39828,0 1.42388,0.0145 2.21919,1.256771 1.28969,2.014502 2.63735,5.059892 3.24908,7.342182 0.45633,1.70249 0.56754,2.86736 0.56834,5.95313 10e-4,4.57452 -0.49773,6.81357 -2.79549,12.54575 -2.5365,6.32776 -5.218803,10.04367 -8.252493,11.43254 -1.865854,0.85422 -4.906771,1.07523 -6.933938,0.50396 z M 83.261626,75.81391 c -1.71956,-1.245641 -2.68241,-2.95276 -2.67533,-4.743313 0.006,-1.644203 0.79797,-3.718512 1.41883,-3.718512 0.59278,0 2.89229,2.372564 3.45158,3.561246 0.77883,1.655271 0.81023,3.000992 0.1018,4.363033 -0.33682,0.647572 -0.73961,1.215836 -0.89509,1.262808 -0.15549,0.04697 -0.78629,-0.279395 -1.40179,-0.725262 z M 51.604808,71.250656 c -0.534684,-2.216975 -0.990688,-4.558778 -1.013341,-5.204007 -0.04099,-1.167577 -0.03569,-1.174764 1.117165,-1.514365 2.140406,-0.630507 6.642923,-1.258714 6.934159,-0.967478 0.148901,0.148901 0.547532,1.276821 0.885848,2.50649 0.518712,1.885351 0.560505,2.310451 0.266654,2.712316 -0.191656,0.262105 -0.552366,1.029502 -0.801578,1.705326 -0.411353,1.115528 -0.615815,1.307396 -2.218557,2.081904 -0.970994,0.469223 -2.312814,1.27108 -2.981821,1.781905 l -1.216376,0.928773 z m 9.400864,-0.364159 c 0.0024,-0.124917 0.274611,-0.703371 0.604926,-1.285454 l 0.600573,-1.058333 -0.86029,-3.17477 c -0.971583,-3.58548 -0.990135,-3.513779 1.086634,-4.19975 2.135601,-0.705404 2.485563,-0.61398 2.848829,0.744232 0.373556,1.396684 0.629339,1.343243 0.881244,-0.18412 0.28011,-1.698385 0.499415,-1.852205 2.357427,-1.653486 2.735051,0.29252 2.620241,0.18072 2.407252,2.344142 -0.211555,2.148845 -0.07938,2.184372 0.607604,0.16331 0.676693,-1.990798 0.998071,-2.118729 2.963114,-1.179525 0.893495,0.427052 1.720489,0.958091 1.837765,1.180087 0.13087,0.247728 -0.03529,1.073389 -0.430193,2.13764 -0.624207,1.682225 -0.691841,1.757005 -2.264762,2.504012 -0.891737,0.423502 -2.404905,1.277759 -3.362595,1.89835 -1.373257,0.88988 -1.992883,1.131269 -2.931881,1.142177 -1.305885,0.01517 -4.597833,0.408842 -5.670889,0.678162 -0.373511,0.09374 -0.677152,0.06824 -0.674758,-0.05667 z"
         id="path1"
         sodipodi:nodetypes="ssssscssssssscscscssssssssscsssscsssssssssssssscssscssssssssssssssss" /></g></g></svg>
