<?xml version="1.0" encoding="UTF-8" standalone="no"?>
<!-- Created with Inkscape (http://www.inkscape.org/) -->

<svg
   version="1.1"
   id="svg1"
   width="394.66666"
   height="166.66667"
   viewBox="0 0 394.66666 166.66667"
   xmlns="http://www.w3.org/2000/svg"
   xmlns:svg="http://www.w3.org/2000/svg">
  <defs
     id="defs1" />
  <g
     id="g1">
    <path
       id="path1"
       d="m 130.113,50.289 c -1.929,1.785 -4.156,2.68 -6.679,2.68 -1.668,0 -3.239,-0.317 -4.715,-0.949 -1.477,-0.629 -2.77,-1.516 -3.875,-2.661 -1.11,-1.144 -1.985,-2.523 -2.629,-4.129 -0.641,-1.609 -0.961,-3.378 -0.961,-5.308 0,-1.742 0.32,-3.387 0.961,-4.934 0.644,-1.55 1.531,-2.898 2.664,-4.039 1.129,-1.144 2.469,-2.051 4.019,-2.719 1.547,-0.668 3.215,-1 5,-1 2.36,0 4.418,0.493 6.18,1.485 1.762,0.988 3.082,2.34 3.965,4.055 l -4.359,3.289 c -0.571,-1.145 -1.399,-2.032 -2.481,-2.664 -1.086,-0.629 -2.258,-0.946 -3.519,-0.946 -0.977,0 -1.864,0.196 -2.661,0.59 -0.8,0.395 -1.484,0.941 -2.054,1.645 -0.571,0.703 -1.016,1.519 -1.324,2.449 -0.309,0.929 -0.461,1.929 -0.461,3.004 0,1.093 0.164,2.105 0.5,3.035 0.332,0.93 0.796,1.734 1.39,2.414 0.598,0.68 1.305,1.211 2.129,1.59 0.82,0.383 1.731,0.574 2.731,0.574 2.285,0 4.343,-1.062 6.179,-3.184 v -0.785 h -4.929 v -4.254 h 9.789 v 13.262 h -4.86 v -2.5"
       style="fill:#2c378f;fill-opacity:1;fill-rule:nonzero;stroke:none"
       transform="scale(1.3333333)" />
    <path
       id="path2"
       d="m 149.438,32.34 -3.641,-1 1.855,-4.649 h 5.18 z m 2.394,9.297 c -0.117,-1.192 -0.547,-2.133 -1.285,-2.825 -0.738,-0.691 -1.656,-1.035 -2.75,-1.035 -1.117,0 -2.043,0.352 -2.77,1.051 -0.726,0.703 -1.148,1.641 -1.265,2.809 z m -3.965,11.511 c -1.57,0 -2.98,-0.257 -4.23,-0.769 -1.254,-0.512 -2.313,-1.211 -3.18,-2.09 -0.871,-0.883 -1.531,-1.902 -1.984,-3.059 -0.453,-1.156 -0.68,-2.363 -0.68,-3.628 0,-1.36 0.227,-2.637 0.68,-3.844 0.453,-1.203 1.109,-2.258 1.965,-3.16 0.859,-0.907 1.91,-1.621 3.16,-2.149 1.254,-0.523 2.675,-0.785 4.269,-0.785 1.598,0 3.012,0.262 4.25,0.785 1.242,0.528 2.289,1.235 3.145,2.129 0.859,0.895 1.508,1.926 1.949,3.094 0.441,1.164 0.66,2.394 0.66,3.68 0,0.336 -0.012,0.66 -0.035,0.984 -0.024,0.32 -0.059,0.602 -0.109,0.84 h -13.86 c 0.094,1.262 0.555,2.222 1.375,2.879 0.82,0.656 1.758,0.98 2.805,0.98 0.832,0 1.637,-0.203 2.41,-0.605 0.777,-0.407 1.293,-0.953 1.555,-1.645 l 4.859,1.356 c -0.738,1.48 -1.883,2.683 -3.43,3.613 -1.546,0.93 -3.406,1.394 -5.574,1.394"
       style="fill:#2c378f;fill-opacity:1;fill-rule:nonzero;stroke:none"
       transform="scale(1.3333333)" />
    <path
       id="path3"
       d="m 165.766,43.426 c 0,1.476 0.394,2.66 1.175,3.554 0.789,0.895 1.789,1.34 3.004,1.34 0.594,0 1.141,-0.117 1.645,-0.355 0.5,-0.238 0.933,-0.574 1.301,-1.004 0.371,-0.426 0.66,-0.945 0.875,-1.555 0.214,-0.605 0.32,-1.269 0.32,-1.98 0,-1.481 -0.391,-2.664 -1.176,-3.559 -0.785,-0.894 -1.773,-1.34 -2.965,-1.34 -0.593,0 -1.148,0.118 -1.66,0.356 -0.515,0.238 -0.953,0.574 -1.324,1 -0.367,0.429 -0.66,0.949 -0.875,1.558 -0.215,0.606 -0.32,1.266 -0.32,1.985 z m 4.179,9.722 c -1.597,0 -3.019,-0.265 -4.269,-0.789 -1.25,-0.523 -2.305,-1.23 -3.16,-2.125 -0.86,-0.894 -1.508,-1.929 -1.95,-3.109 -0.437,-1.18 -0.66,-2.414 -0.66,-3.699 0,-1.289 0.223,-2.524 0.66,-3.703 0.442,-1.18 1.09,-2.215 1.95,-3.11 0.855,-0.894 1.91,-1.609 3.16,-2.144 1.25,-0.535 2.672,-0.805 4.269,-0.805 1.594,0 3.012,0.27 4.25,0.805 1.239,0.535 2.285,1.25 3.145,2.144 0.855,0.895 1.512,1.93 1.965,3.11 0.453,1.179 0.679,2.414 0.679,3.703 0,1.285 -0.222,2.519 -0.664,3.699 -0.437,1.18 -1.086,2.215 -1.945,3.109 -0.859,0.895 -1.91,1.602 -3.16,2.125 -1.25,0.524 -2.676,0.789 -4.27,0.789"
       style="fill:#2c378f;fill-opacity:1;fill-rule:nonzero;stroke:none"
       transform="scale(1.3333333)" />
    <path
       id="path4"
       d="m 192.664,48.32 c 0.785,0 1.539,-0.23 2.266,-0.695 0.726,-0.465 1.281,-1.102 1.664,-1.914 v -3.934 c -0.36,-0.953 -0.938,-1.73 -1.735,-2.339 -0.797,-0.61 -1.625,-0.911 -2.484,-0.911 -0.617,0 -1.184,0.137 -1.695,0.411 -0.512,0.273 -0.957,0.636 -1.34,1.089 -0.379,0.453 -0.672,0.977 -0.875,1.575 -0.203,0.593 -0.305,1.226 -0.305,1.894 0,0.692 0.113,1.336 0.34,1.93 0.227,0.597 0.535,1.109 0.93,1.535 0.394,0.43 0.867,0.766 1.429,1.004 0.559,0.238 1.161,0.355 1.805,0.355 z m -1.539,4.828 c -1.285,0 -2.469,-0.246 -3.555,-0.734 -1.082,-0.488 -2.015,-1.172 -2.8,-2.055 -0.79,-0.882 -1.403,-1.914 -1.84,-3.093 -0.442,-1.18 -0.664,-2.473 -0.664,-3.879 0,-1.356 0.203,-2.633 0.609,-3.825 0.402,-1.191 0.977,-2.222 1.715,-3.093 0.738,-0.867 1.613,-1.555 2.625,-2.055 1.012,-0.5 2.125,-0.75 3.34,-0.75 1.312,0 2.496,0.309 3.554,0.93 1.063,0.621 1.875,1.453 2.446,2.504 V 26.691 h 5.718 v 19.664 c 0,0.571 0.09,0.973 0.266,1.196 0.18,0.23 0.496,0.367 0.949,0.414 v 4.824 c -0.523,0.121 -0.976,0.195 -1.359,0.234 -0.379,0.036 -0.738,0.051 -1.07,0.051 -1,0 -1.813,-0.207 -2.43,-0.625 -0.621,-0.414 -0.977,-1.019 -1.074,-1.804 l -0.106,-0.965 c -0.668,1.168 -1.566,2.039 -2.695,2.609 -1.133,0.57 -2.34,0.859 -3.629,0.859"
       style="fill:#2c378f;fill-opacity:1;fill-rule:nonzero;stroke:none"
       transform="scale(1.3333333)" />
    <path
       id="path5"
       d="m 214.238,49.035 c 0.621,0 1.223,-0.105 1.805,-0.32 0.586,-0.215 1.066,-0.5 1.445,-0.86 0.551,-0.425 0.824,-0.878 0.824,-1.355 v -1.789 c -0.5,-0.191 -1.042,-0.34 -1.624,-0.445 -0.586,-0.11 -1.126,-0.164 -1.626,-0.164 -1.05,0 -1.914,0.238 -2.589,0.714 -0.68,0.477 -1.02,1.098 -1.02,1.86 0,0.691 0.262,1.258 0.785,1.699 0.524,0.441 1.192,0.66 2,0.66 z m -1.679,4.113 c -0.926,0 -1.789,-0.152 -2.59,-0.449 -0.797,-0.297 -1.481,-0.715 -2.051,-1.25 -0.574,-0.535 -1.027,-1.168 -1.359,-1.894 -0.332,-0.727 -0.5,-1.52 -0.5,-2.379 0,-0.93 0.195,-1.774 0.589,-2.535 0.395,-0.766 0.946,-1.418 1.661,-1.969 0.714,-0.547 1.562,-0.977 2.535,-1.285 0.98,-0.309 2.062,-0.465 3.254,-0.465 0.785,0 1.547,0.066 2.285,0.195 0.738,0.133 1.383,0.328 1.929,0.59 v -0.855 c 0,-2.172 -1.25,-3.254 -3.75,-3.254 -1.027,0 -2.003,0.172 -2.929,0.515 -0.93,0.348 -1.906,0.867 -2.93,1.559 l -1.68,-3.578 c 1.239,-0.809 2.524,-1.418 3.86,-1.821 1.332,-0.406 2.75,-0.609 4.25,-0.609 2.836,0 5.023,0.668 6.574,2.004 1.547,1.332 2.32,3.289 2.32,5.859 v 4.828 c 0,0.571 0.09,0.973 0.27,1.196 0.176,0.23 0.492,0.367 0.945,0.414 v 4.824 c -0.5,0.121 -0.953,0.195 -1.355,0.234 -0.407,0.036 -0.778,0.051 -1.11,0.051 -1.07,0 -1.882,-0.207 -2.429,-0.625 -0.547,-0.414 -0.891,-1.008 -1.036,-1.769 l -0.109,-0.856 c -0.832,1.071 -1.824,1.895 -2.98,2.465 -1.157,0.57 -2.375,0.859 -3.664,0.859"
       style="fill:#2c378f;fill-opacity:1;fill-rule:nonzero;stroke:none"
       transform="scale(1.3333333)" />
    <path
       id="path6"
       d="m 240.711,51.789 c -0.785,0.332 -1.688,0.645 -2.695,0.93 -1.016,0.285 -2.032,0.429 -3.055,0.429 -0.715,0 -1.391,-0.089 -2.02,-0.269 -0.632,-0.18 -1.183,-0.465 -1.66,-0.859 -0.476,-0.391 -0.851,-0.911 -1.125,-1.555 -0.277,-0.641 -0.41,-1.418 -0.41,-2.324 v -9.793 h -2.394 v -4.325 h 2.394 v -5.972 h 5.715 v 5.972 h 3.82 v 4.325 h -3.82 v 7.828 c 0,0.621 0.152,1.066 0.465,1.34 0.308,0.277 0.699,0.414 1.176,0.414 0.429,0 0.871,-0.075 1.324,-0.215 0.449,-0.145 0.844,-0.297 1.179,-0.465 l 1.106,4.539"
       style="fill:#2c378f;fill-opacity:1;fill-rule:nonzero;stroke:none"
       transform="scale(1.3333333)" />
    <path
       id="path7"
       d="m 250.461,49.035 c 0.621,0 1.223,-0.105 1.805,-0.32 0.582,-0.215 1.066,-0.5 1.449,-0.86 0.547,-0.425 0.82,-0.878 0.82,-1.355 v -1.789 c -0.5,-0.191 -1.043,-0.34 -1.625,-0.445 -0.582,-0.11 -1.125,-0.164 -1.625,-0.164 -1.051,0 -1.91,0.238 -2.59,0.714 -0.679,0.477 -1.019,1.098 -1.019,1.86 0,0.691 0.262,1.258 0.785,1.699 0.523,0.441 1.191,0.66 2,0.66 z m -1.676,4.113 c -0.93,0 -1.793,-0.152 -2.59,-0.449 -0.8,-0.297 -1.484,-0.715 -2.054,-1.25 -0.571,-0.535 -1.024,-1.168 -1.36,-1.894 -0.332,-0.727 -0.5,-1.52 -0.5,-2.379 0,-0.93 0.199,-1.774 0.59,-2.535 0.395,-0.766 0.945,-1.418 1.66,-1.969 0.715,-0.547 1.559,-0.977 2.539,-1.285 0.977,-0.309 2.059,-0.465 3.25,-0.465 0.785,0 1.547,0.066 2.285,0.195 0.739,0.133 1.383,0.328 1.93,0.59 v -0.855 c 0,-2.172 -1.25,-3.254 -3.75,-3.254 -1.027,0 -2,0.172 -2.93,0.515 -0.929,0.348 -1.906,0.867 -2.929,1.559 l -1.68,-3.578 c 1.238,-0.809 2.524,-1.418 3.859,-1.821 1.333,-0.406 2.75,-0.609 4.25,-0.609 2.836,0 5.024,0.668 6.575,2.004 1.547,1.332 2.32,3.289 2.32,5.859 v 4.828 c 0,0.571 0.09,0.973 0.27,1.196 0.179,0.23 0.492,0.367 0.945,0.414 v 4.824 c -0.5,0.121 -0.953,0.195 -1.356,0.234 -0.406,0.036 -0.777,0.051 -1.109,0.051 -1.07,0 -1.883,-0.207 -2.43,-0.625 -0.547,-0.414 -0.89,-1.008 -1.035,-1.769 l -0.105,-0.856 c -0.836,1.071 -1.828,1.895 -2.985,2.465 -1.156,0.57 -2.375,0.859 -3.66,0.859"
       style="fill:#2c378f;fill-opacity:1;fill-rule:nonzero;stroke:none"
       transform="scale(1.3333333)" />
    <path
       id="path8"
       d="m 115.934,75.312 h 8.109 c 0.734,0 1.41,-0.164 2.016,-0.484 0.609,-0.32 1.125,-0.75 1.554,-1.285 0.43,-0.539 0.762,-1.156 1,-1.859 0.239,-0.704 0.356,-1.438 0.356,-2.2 0,-0.785 -0.137,-1.531 -0.41,-2.234 -0.274,-0.703 -0.641,-1.316 -1.106,-1.84 -0.465,-0.527 -1.012,-0.937 -1.644,-1.234 -0.629,-0.297 -1.293,-0.446 -1.981,-0.446 h -7.894 z m -2.465,11.583 V 61.512 h 10.5 c 1.097,0 2.101,0.234 3.019,0.699 0.914,0.465 1.707,1.07 2.375,1.82 0.668,0.754 1.184,1.606 1.555,2.559 0.367,0.953 0.555,1.918 0.555,2.894 0,1.051 -0.176,2.055 -0.52,3.02 -0.344,0.965 -0.84,1.82 -1.48,2.558 -0.645,0.739 -1.414,1.333 -2.305,1.786 -0.895,0.453 -1.891,0.679 -2.984,0.679 h -8.25 v 9.368 h -2.465"
       style="fill:#2c378f;fill-opacity:1;fill-rule:nonzero;stroke:none"
       transform="scale(1.3333333)" />
    <path
       id="path9"
       d="m 140.758,85.391 c 1.074,0 2.137,-0.231 3.199,-0.696 1.059,-0.465 1.898,-1.101 2.516,-1.914 0.168,-0.215 0.312,-0.445 0.429,-0.695 0.121,-0.25 0.18,-0.484 0.18,-0.699 v -3.039 c -0.809,-0.309 -1.656,-0.547 -2.535,-0.711 -0.883,-0.168 -1.738,-0.254 -2.574,-0.254 -1.739,0 -3.149,0.351 -4.231,1.055 -1.086,0.703 -1.625,1.675 -1.625,2.914 0,0.5 0.094,0.988 0.285,1.464 0.188,0.481 0.481,0.907 0.875,1.289 0.391,0.383 0.875,0.692 1.446,0.93 0.57,0.238 1.25,0.356 2.035,0.356 z m -0.606,1.859 c -0.953,0 -1.82,-0.148 -2.609,-0.445 -0.785,-0.297 -1.457,-0.711 -2.016,-1.235 -0.562,-0.523 -0.996,-1.132 -1.304,-1.824 -0.309,-0.691 -0.465,-1.418 -0.465,-2.18 0,-0.855 0.187,-1.636 0.57,-2.339 0.383,-0.704 0.918,-1.305 1.61,-1.805 0.687,-0.504 1.515,-0.891 2.48,-1.164 0.965,-0.274 2.031,-0.41 3.199,-0.41 0.93,0 1.879,0.082 2.856,0.25 0.976,0.168 1.847,0.406 2.609,0.714 v -1.679 c 0,-1.645 -0.469,-2.949 -1.41,-3.914 -0.942,-0.965 -2.211,-1.449 -3.805,-1.449 -1,0 -1.996,0.191 -2.984,0.574 -0.988,0.379 -1.992,0.926 -3.016,1.64 l -0.859,-1.605 c 1.215,-0.813 2.394,-1.418 3.535,-1.824 1.145,-0.407 2.336,-0.61 3.574,-0.61 2.262,0 4.063,0.657 5.395,1.969 1.332,1.309 2,3.121 2,5.434 v 8.398 c 0,0.668 0.285,1.004 0.855,1.004 v 2.145 c -0.187,0.023 -0.367,0.039 -0.535,0.05 -0.168,0.012 -0.309,0.02 -0.43,0.02 -0.472,0 -0.91,-0.145 -1.3,-0.43 -0.395,-0.285 -0.614,-0.715 -0.664,-1.285 l -0.071,-1.465 c -0.808,1.094 -1.875,1.945 -3.195,2.555 -1.324,0.605 -2.664,0.91 -4.02,0.91"
       style="fill:#2c378f;fill-opacity:1;fill-rule:nonzero;stroke:none"
       transform="scale(1.3333333)" />
    <path
       id="path10"
       d="m 164.621,70.414 c -1.644,0.047 -3.07,0.5 -4.285,1.359 -1.215,0.856 -2.074,2.036 -2.574,3.539 v 11.583 h -2.43 V 68.27 h 2.289 v 4.468 c 0.641,-1.312 1.488,-2.402 2.535,-3.273 1.047,-0.867 2.18,-1.305 3.395,-1.305 0.215,0 0.414,0 0.605,0 0.192,0 0.348,0.012 0.465,0.035 v 2.219"
       style="fill:#2c378f;fill-opacity:1;fill-rule:nonzero;stroke:none"
       transform="scale(1.3333333)" />
    <path
       id="path11"
       d="M 168.406,86.895 V 68.27 h 2.43 v 18.625 z m 0,-22.524 v -3.574 h 2.43 v 3.574 h -2.43"
       style="fill:#2c378f;fill-opacity:1;fill-rule:nonzero;stroke:none"
       transform="scale(1.3333333)" />
    <path
       id="path12"
       d="m 182.84,87.25 c -1.453,0 -2.871,-0.238 -4.25,-0.715 -1.383,-0.476 -2.574,-1.168 -3.574,-2.074 l 1.109,-1.645 c 1.047,0.86 2.113,1.504 3.195,1.934 1.086,0.426 2.246,0.641 3.485,0.641 1.5,0 2.695,-0.301 3.59,-0.911 0.89,-0.609 1.339,-1.472 1.339,-2.593 0,-0.524 -0.121,-0.957 -0.359,-1.305 -0.238,-0.344 -0.59,-0.648 -1.051,-0.91 -0.465,-0.262 -1.051,-0.492 -1.754,-0.695 -0.699,-0.204 -1.515,-0.415 -2.445,-0.629 -1.07,-0.262 -2,-0.524 -2.785,-0.786 -0.789,-0.261 -1.438,-0.558 -1.949,-0.894 -0.512,-0.332 -0.891,-0.742 -1.141,-1.23 -0.25,-0.489 -0.375,-1.102 -0.375,-1.844 0,-0.93 0.184,-1.75 0.551,-2.465 0.371,-0.715 0.871,-1.305 1.504,-1.77 0.629,-0.464 1.367,-0.816 2.211,-1.054 0.847,-0.239 1.746,-0.36 2.699,-0.36 1.43,0 2.726,0.235 3.894,0.7 1.164,0.464 2.106,1.078 2.821,1.839 l -1.18,1.43 c -0.687,-0.715 -1.527,-1.25 -2.516,-1.609 -0.988,-0.356 -2.019,-0.535 -3.089,-0.535 -0.645,0 -1.243,0.066 -1.79,0.195 -0.546,0.133 -1.027,0.34 -1.445,0.629 -0.418,0.285 -0.746,0.648 -0.984,1.09 -0.235,0.441 -0.356,0.957 -0.356,1.554 0,0.5 0.082,0.907 0.25,1.215 0.168,0.309 0.442,0.578 0.821,0.805 0.382,0.226 0.867,0.43 1.449,0.605 0.582,0.18 1.293,0.367 2.125,0.555 1.191,0.289 2.238,0.574 3.144,0.859 0.903,0.285 1.661,0.621 2.266,1 0.609,0.383 1.066,0.848 1.379,1.395 0.309,0.551 0.461,1.215 0.461,2 0,1.719 -0.652,3.078 -1.965,4.078 -1.309,1 -3.07,1.5 -5.285,1.5"
       style="fill:#2c378f;fill-opacity:1;fill-rule:nonzero;stroke:none"
       transform="scale(1.3333333)" />
    <path
       id="path13"
       d="m 113.027,96.477 h 1.082 v 6.828 h -1.082 z"
       style="fill:#2b398c;fill-opacity:1;fill-rule:nonzero;stroke:none"
       transform="scale(1.3333333)" />
    <path
       id="path14"
       d="m 115.598,98.754 -0.551,-0.344 c 0.269,-0.387 0.402,-0.797 0.414,-1.23 v -0.703 h 0.945 v 0.613 c 0,0.305 -0.078,0.613 -0.234,0.922 -0.152,0.308 -0.348,0.558 -0.574,0.742"
       style="fill:#2b398c;fill-opacity:1;fill-rule:nonzero;stroke:none"
       transform="scale(1.3333333)" />
    <path
       id="path15"
       d="m 119.668,96.477 h 1.23 l -1.23,1.347 -0.863,-0.004 z m -0.242,2.796 c -0.297,0 -0.535,0.102 -0.719,0.309 -0.18,0.207 -0.297,0.5 -0.348,0.867 h 2.055 v -0.078 c -0.023,-0.363 -0.117,-0.637 -0.289,-0.82 -0.168,-0.188 -0.402,-0.278 -0.699,-0.278 z m 0.129,4.118 c -0.688,0 -1.239,-0.215 -1.664,-0.645 -0.426,-0.43 -0.637,-1.008 -0.637,-1.723 v -0.132 c 0,-0.481 0.09,-0.911 0.277,-1.289 0.184,-0.375 0.446,-0.672 0.781,-0.879 0.333,-0.211 0.704,-0.317 1.118,-0.317 0.652,0 1.16,0.207 1.515,0.625 0.36,0.418 0.535,1.012 0.535,1.774 v 0.437 h -3.14 c 0.035,0.395 0.168,0.711 0.398,0.942 0.235,0.23 0.528,0.347 0.879,0.347 0.492,0 0.895,-0.203 1.207,-0.601 l 0.582,0.554 c -0.195,0.289 -0.449,0.512 -0.769,0.672 -0.321,0.156 -0.684,0.235 -1.082,0.235"
       style="fill:#2b398c;fill-opacity:1;fill-rule:nonzero;stroke:none"
       transform="scale(1.3333333)" />
    <path
       id="path16"
       d="m 124.383,102.531 c 0.269,0 0.492,-0.078 0.672,-0.234 0.175,-0.16 0.269,-0.352 0.285,-0.586 h 1.015 c -0.011,0.301 -0.105,0.582 -0.281,0.84 -0.172,0.258 -0.41,0.465 -0.711,0.613 -0.297,0.152 -0.621,0.227 -0.968,0.227 -0.672,0 -1.204,-0.215 -1.598,-0.653 -0.391,-0.433 -0.59,-1.035 -0.59,-1.804 v -0.11 c 0,-0.73 0.195,-1.32 0.586,-1.758 0.391,-0.441 0.922,-0.66 1.598,-0.66 0.574,0 1.039,0.168 1.398,0.5 0.359,0.332 0.547,0.77 0.566,1.313 h -1.015 c -0.016,-0.278 -0.11,-0.5 -0.285,-0.68 -0.176,-0.176 -0.399,-0.266 -0.672,-0.266 -0.348,0 -0.617,0.125 -0.809,0.379 -0.191,0.254 -0.285,0.637 -0.289,1.153 v 0.175 c 0,0.52 0.094,0.911 0.281,1.165 0.188,0.257 0.461,0.386 0.817,0.386"
       style="fill:#2b398c;fill-opacity:1;fill-rule:nonzero;stroke:none"
       transform="scale(1.3333333)" />
    <path
       id="path17"
       d="m 128.141,100.949 c 0,0.492 0.097,0.883 0.304,1.16 0.203,0.282 0.489,0.422 0.852,0.422 0.363,0 0.648,-0.144 0.851,-0.429 0.204,-0.282 0.305,-0.7 0.305,-1.247 0,-0.484 -0.105,-0.871 -0.312,-1.156 -0.211,-0.285 -0.496,-0.426 -0.852,-0.426 -0.351,0 -0.633,0.141 -0.84,0.418 -0.207,0.282 -0.308,0.7 -0.308,1.258 z m -1.082,-0.094 c 0,-0.472 0.093,-0.894 0.281,-1.273 0.183,-0.379 0.449,-0.668 0.785,-0.871 0.336,-0.203 0.727,-0.305 1.164,-0.305 0.649,0 1.176,0.207 1.578,0.625 0.406,0.418 0.621,0.973 0.656,1.664 l 0.004,0.254 c 0,0.473 -0.089,0.895 -0.273,1.27 -0.184,0.375 -0.442,0.664 -0.781,0.867 -0.34,0.203 -0.731,0.305 -1.176,0.305 -0.676,0 -1.219,-0.223 -1.629,-0.676 -0.406,-0.453 -0.609,-1.055 -0.609,-1.809 v -0.051"
       style="fill:#2b398c;fill-opacity:1;fill-rule:nonzero;stroke:none"
       transform="scale(1.3333333)" />
    <path
       id="path18"
       d="m 132.602,96.477 h 1.078 v 6.828 h -1.078 z"
       style="fill:#2b398c;fill-opacity:1;fill-rule:nonzero;stroke:none"
       transform="scale(1.3333333)" />
    <path
       id="path19"
       d="m 136.934,99.273 c -0.297,0 -0.536,0.102 -0.719,0.309 -0.184,0.207 -0.297,0.5 -0.348,0.867 h 2.055 v -0.078 c -0.024,-0.363 -0.117,-0.637 -0.289,-0.82 -0.168,-0.188 -0.403,-0.278 -0.699,-0.278 z m 0.128,4.118 c -0.687,0 -1.238,-0.215 -1.664,-0.645 -0.425,-0.43 -0.636,-1.008 -0.636,-1.723 v -0.132 c 0,-0.481 0.09,-0.911 0.277,-1.289 0.184,-0.375 0.445,-0.672 0.781,-0.879 0.332,-0.211 0.703,-0.317 1.118,-0.317 0.652,0 1.16,0.207 1.515,0.625 0.359,0.418 0.535,1.012 0.535,1.774 v 0.437 h -3.14 c 0.035,0.395 0.168,0.711 0.398,0.942 0.234,0.23 0.527,0.347 0.879,0.347 0.492,0 0.895,-0.203 1.207,-0.601 l 0.582,0.554 c -0.195,0.289 -0.449,0.512 -0.769,0.672 -0.321,0.156 -0.684,0.235 -1.083,0.235"
       style="fill:#2b398c;fill-opacity:1;fill-rule:nonzero;stroke:none"
       transform="scale(1.3333333)" />
    <path
       id="path20"
       d="m 143.148,100.957 c 0,0.488 0.094,0.871 0.282,1.145 0.191,0.273 0.457,0.41 0.804,0.41 0.442,0 0.762,-0.196 0.969,-0.59 v -2.055 c -0.199,-0.383 -0.519,-0.578 -0.961,-0.578 -0.351,0 -0.617,0.141 -0.808,0.418 -0.188,0.277 -0.286,0.691 -0.286,1.25 z m -1.078,-0.094 c 0,-0.742 0.172,-1.336 0.516,-1.785 0.344,-0.449 0.805,-0.672 1.383,-0.672 0.508,0 0.918,0.176 1.234,0.532 v -2.461 h 1.078 v 6.828 h -0.976 l -0.055,-0.5 c -0.32,0.39 -0.754,0.586 -1.293,0.586 -0.562,0 -1.016,-0.227 -1.363,-0.68 -0.348,-0.453 -0.524,-1.066 -0.524,-1.848"
       style="fill:#2b398c;fill-opacity:1;fill-rule:nonzero;stroke:none"
       transform="scale(1.3333333)" />
    <path
       id="path21"
       d="m 149.484,99.273 c -0.293,0 -0.531,0.102 -0.714,0.309 -0.184,0.207 -0.297,0.5 -0.348,0.867 h 2.055 v -0.078 c -0.024,-0.363 -0.118,-0.637 -0.289,-0.82 -0.168,-0.188 -0.403,-0.278 -0.704,-0.278 z m 0.129,4.118 c -0.683,0 -1.238,-0.215 -1.66,-0.645 -0.426,-0.43 -0.641,-1.008 -0.641,-1.723 v -0.132 c 0,-0.481 0.094,-0.911 0.282,-1.289 0.183,-0.375 0.441,-0.672 0.777,-0.879 0.336,-0.211 0.707,-0.317 1.121,-0.317 0.653,0 1.156,0.207 1.516,0.625 0.355,0.418 0.535,1.012 0.535,1.774 v 0.437 h -3.141 c 0.036,0.395 0.164,0.711 0.399,0.942 0.23,0.23 0.523,0.347 0.879,0.347 0.492,0 0.894,-0.203 1.207,-0.601 l 0.582,0.554 c -0.196,0.289 -0.449,0.512 -0.774,0.672 -0.32,0.156 -0.679,0.235 -1.082,0.235"
       style="fill:#2b398c;fill-opacity:1;fill-rule:nonzero;stroke:none"
       transform="scale(1.3333333)" />
    <path
       id="path22"
       d="m 155.164,101.996 c 0,-0.191 -0.078,-0.34 -0.238,-0.437 -0.156,-0.102 -0.422,-0.192 -0.789,-0.27 -0.367,-0.074 -0.672,-0.172 -0.918,-0.293 -0.539,-0.258 -0.809,-0.637 -0.809,-1.133 0,-0.414 0.176,-0.761 0.524,-1.039 0.351,-0.277 0.793,-0.418 1.332,-0.418 0.574,0 1.039,0.141 1.394,0.426 0.352,0.285 0.531,0.652 0.531,1.106 h -1.082 c 0,-0.208 -0.074,-0.379 -0.23,-0.516 -0.152,-0.137 -0.359,-0.207 -0.613,-0.207 -0.235,0 -0.43,0.055 -0.578,0.164 -0.153,0.109 -0.227,0.258 -0.227,0.441 0,0.164 0.07,0.293 0.211,0.387 0.137,0.09 0.422,0.184 0.844,0.277 0.422,0.094 0.754,0.204 0.996,0.332 0.242,0.129 0.422,0.286 0.539,0.465 0.117,0.18 0.176,0.399 0.176,0.657 0,0.433 -0.18,0.785 -0.539,1.05 -0.36,0.27 -0.829,0.403 -1.407,0.403 -0.394,0 -0.746,-0.071 -1.054,-0.211 -0.309,-0.141 -0.547,-0.34 -0.719,-0.586 -0.172,-0.25 -0.258,-0.52 -0.258,-0.805 h 1.047 c 0.015,0.254 0.113,0.449 0.289,0.59 0.18,0.137 0.414,0.203 0.707,0.203 0.285,0 0.5,-0.051 0.648,-0.16 0.149,-0.11 0.223,-0.25 0.223,-0.426"
       style="fill:#2b398c;fill-opacity:1;fill-rule:nonzero;stroke:none"
       transform="scale(1.3333333)" />
    <path
       id="path23"
       d="m 160.758,103.305 h -1.078 v -4.809 h 1.078 z m -1.145,-6.059 c 0,-0.168 0.055,-0.305 0.157,-0.414 0.109,-0.109 0.257,-0.164 0.453,-0.164 0.195,0 0.347,0.055 0.453,0.164 0.105,0.109 0.16,0.246 0.16,0.414 0,0.164 -0.055,0.297 -0.16,0.406 -0.106,0.11 -0.258,0.16 -0.453,0.16 -0.196,0 -0.344,-0.05 -0.453,-0.16 -0.102,-0.109 -0.157,-0.242 -0.157,-0.406"
       style="fill:#2b398c;fill-opacity:1;fill-rule:nonzero;stroke:none"
       transform="scale(1.3333333)" />
    <path
       id="path24"
       d="m 163.027,98.496 0.032,0.555 c 0.355,-0.43 0.82,-0.645 1.398,-0.645 1,0 1.512,0.574 1.527,1.719 v 3.18 h -1.078 v -3.117 c 0,-0.305 -0.066,-0.532 -0.199,-0.676 -0.129,-0.149 -0.348,-0.223 -0.645,-0.223 -0.433,0 -0.761,0.199 -0.972,0.594 v 3.422 h -1.078 v -4.809 h 1.015"
       style="fill:#2b398c;fill-opacity:1;fill-rule:nonzero;stroke:none"
       transform="scale(1.3333333)" />
    <path
       id="path25"
       d="m 168.062,100.957 c 0,0.484 0.098,0.863 0.297,1.141 0.196,0.277 0.469,0.414 0.817,0.414 0.437,0 0.758,-0.188 0.969,-0.559 v -2.117 c -0.204,-0.363 -0.524,-0.547 -0.961,-0.547 -0.356,0 -0.629,0.141 -0.825,0.422 -0.199,0.281 -0.297,0.695 -0.297,1.246 z m -1.078,-0.094 c 0,-0.746 0.176,-1.343 0.528,-1.789 0.351,-0.445 0.816,-0.668 1.398,-0.668 0.547,0 0.981,0.192 1.293,0.574 l 0.047,-0.484 h 0.973 v 4.66 c 0,0.633 -0.196,1.129 -0.586,1.492 -0.395,0.368 -0.922,0.547 -1.59,0.547 -0.352,0 -0.695,-0.07 -1.031,-0.218 -0.336,-0.145 -0.594,-0.34 -0.766,-0.575 l 0.512,-0.648 c 0.328,0.394 0.738,0.59 1.222,0.59 0.36,0 0.641,-0.098 0.848,-0.293 0.207,-0.192 0.313,-0.477 0.313,-0.856 v -0.324 c -0.313,0.348 -0.727,0.52 -1.243,0.52 -0.562,0 -1.023,-0.223 -1.379,-0.668 -0.359,-0.45 -0.539,-1.067 -0.539,-1.86"
       style="fill:#2b398c;fill-opacity:1;fill-rule:nonzero;stroke:none"
       transform="scale(1.3333333)" />
    <path
       id="path26"
       d="m 174.656,96.477 h 1.231 l -1.231,1.347 -0.867,-0.004 z m -0.246,2.796 c -0.297,0 -0.535,0.102 -0.715,0.309 -0.183,0.207 -0.3,0.5 -0.351,0.867 h 2.058 v -0.078 c -0.027,-0.363 -0.121,-0.637 -0.289,-0.82 -0.168,-0.188 -0.402,-0.278 -0.703,-0.278 z m 0.129,4.118 c -0.684,0 -1.238,-0.215 -1.664,-0.645 -0.426,-0.43 -0.637,-1.008 -0.637,-1.723 v -0.132 c 0,-0.481 0.094,-0.911 0.278,-1.289 0.187,-0.375 0.445,-0.672 0.781,-0.879 0.332,-0.211 0.707,-0.317 1.117,-0.317 0.656,0 1.16,0.207 1.516,0.625 0.359,0.418 0.535,1.012 0.535,1.774 v 0.437 h -3.137 c 0.031,0.395 0.164,0.711 0.395,0.942 0.234,0.23 0.527,0.347 0.879,0.347 0.496,0 0.898,-0.203 1.207,-0.601 l 0.582,0.554 c -0.192,0.289 -0.45,0.512 -0.77,0.672 -0.32,0.156 -0.683,0.235 -1.082,0.235"
       style="fill:#2b398c;fill-opacity:1;fill-rule:nonzero;stroke:none"
       transform="scale(1.3333333)" />
    <path
       id="path27"
       d="m 178.398,98.496 0.032,0.555 c 0.355,-0.43 0.82,-0.645 1.398,-0.645 1,0 1.508,0.574 1.527,1.719 v 3.18 h -1.082 v -3.117 c 0,-0.305 -0.062,-0.532 -0.195,-0.676 -0.133,-0.149 -0.348,-0.223 -0.648,-0.223 -0.434,0 -0.758,0.199 -0.969,0.594 v 3.422 h -1.082 v -4.809 h 1.019"
       style="fill:#2b398c;fill-opacity:1;fill-rule:nonzero;stroke:none"
       transform="scale(1.3333333)" />
    <path
       id="path28"
       d="m 183.691,103.305 h -1.078 v -4.809 h 1.078 z m -1.144,-6.059 c 0,-0.168 0.055,-0.305 0.156,-0.414 0.106,-0.109 0.258,-0.164 0.453,-0.164 0.196,0 0.348,0.055 0.453,0.164 0.106,0.109 0.161,0.246 0.161,0.414 0,0.164 -0.055,0.297 -0.161,0.406 -0.105,0.11 -0.257,0.16 -0.453,0.16 -0.195,0 -0.347,-0.05 -0.453,-0.16 -0.101,-0.109 -0.156,-0.242 -0.156,-0.406"
       style="fill:#2b398c;fill-opacity:1;fill-rule:nonzero;stroke:none"
       transform="scale(1.3333333)" />
    <path
       id="path29"
       d="m 186.945,99.273 c -0.293,0 -0.535,0.102 -0.715,0.309 -0.183,0.207 -0.3,0.5 -0.351,0.867 h 2.059 v -0.078 c -0.024,-0.363 -0.122,-0.637 -0.29,-0.82 -0.168,-0.188 -0.402,-0.278 -0.703,-0.278 z m 0.129,4.118 c -0.683,0 -1.238,-0.215 -1.66,-0.645 -0.426,-0.43 -0.641,-1.008 -0.641,-1.723 v -0.132 c 0,-0.481 0.094,-0.911 0.278,-1.289 0.187,-0.375 0.445,-0.672 0.781,-0.879 0.332,-0.211 0.707,-0.317 1.117,-0.317 0.656,0 1.164,0.207 1.52,0.625 0.355,0.418 0.535,1.012 0.535,1.774 v 0.437 h -3.141 c 0.032,0.395 0.164,0.711 0.399,0.942 0.23,0.23 0.523,0.347 0.875,0.347 0.496,0 0.898,-0.203 1.211,-0.601 l 0.578,0.554 c -0.192,0.289 -0.449,0.512 -0.77,0.672 -0.32,0.156 -0.679,0.235 -1.082,0.235"
       style="fill:#2b398c;fill-opacity:1;fill-rule:nonzero;stroke:none"
       transform="scale(1.3333333)" />
    <path
       id="path30"
       d="m 192.84,102.832 c -0.317,0.375 -0.766,0.559 -1.348,0.559 -0.523,0 -0.914,-0.153 -1.183,-0.457 -0.27,-0.305 -0.403,-0.746 -0.403,-1.325 v -3.113 h 1.078 v 3.102 c 0,0.609 0.254,0.914 0.762,0.914 0.524,0 0.875,-0.188 1.059,-0.563 v -3.453 h 1.082 v 4.809 h -1.02 l -0.027,-0.473"
       style="fill:#2b398c;fill-opacity:1;fill-rule:nonzero;stroke:none"
       transform="scale(1.3333333)" />
    <path
       id="path31"
       d="m 197.594,99.48 c -0.145,-0.023 -0.289,-0.035 -0.442,-0.035 -0.492,0 -0.828,0.192 -1,0.571 v 3.289 h -1.078 v -4.809 h 1.031 l 0.028,0.535 c 0.258,-0.418 0.621,-0.625 1.082,-0.625 0.152,0 0.281,0.02 0.383,0.063 l -0.004,1.011"
       style="fill:#2b398c;fill-opacity:1;fill-rule:nonzero;stroke:none"
       transform="scale(1.3333333)" />
    <path
       id="path32"
       d="m 198.441,100.129 c 0,-0.172 0.055,-0.317 0.164,-0.43 0.114,-0.117 0.266,-0.172 0.465,-0.172 0.196,0 0.352,0.055 0.461,0.172 0.114,0.113 0.168,0.258 0.168,0.43 0,0.176 -0.058,0.316 -0.172,0.426 -0.117,0.113 -0.269,0.168 -0.457,0.168 -0.195,0 -0.347,-0.055 -0.457,-0.168 -0.113,-0.11 -0.172,-0.25 -0.172,-0.426"
       style="fill:#2b398c;fill-opacity:1;fill-rule:nonzero;stroke:none"
       transform="scale(1.3333333)" />
    <path
       id="path33"
       d="m 203.012,99.273 c -0.297,0 -0.535,0.102 -0.719,0.309 -0.184,0.207 -0.297,0.5 -0.348,0.867 H 204 v -0.078 c -0.023,-0.363 -0.117,-0.637 -0.289,-0.82 -0.168,-0.188 -0.402,-0.278 -0.699,-0.278 z m 0.129,4.118 c -0.688,0 -1.239,-0.215 -1.664,-0.645 -0.426,-0.43 -0.637,-1.008 -0.637,-1.723 v -0.132 c 0,-0.481 0.09,-0.911 0.277,-1.289 0.184,-0.375 0.445,-0.672 0.778,-0.879 0.335,-0.211 0.707,-0.317 1.121,-0.317 0.652,0 1.16,0.207 1.515,0.625 0.356,0.418 0.535,1.012 0.535,1.774 v 0.437 h -3.14 c 0.035,0.395 0.168,0.711 0.398,0.942 0.235,0.23 0.528,0.347 0.879,0.347 0.492,0 0.895,-0.203 1.207,-0.601 l 0.582,0.554 c -0.195,0.289 -0.449,0.512 -0.769,0.672 -0.325,0.156 -0.684,0.235 -1.082,0.235"
       style="fill:#2b398c;fill-opacity:1;fill-rule:nonzero;stroke:none"
       transform="scale(1.3333333)" />
    <path
       id="path34"
       d="m 208.691,101.996 c 0,-0.191 -0.082,-0.34 -0.238,-0.437 -0.16,-0.102 -0.422,-0.192 -0.789,-0.27 -0.367,-0.074 -0.672,-0.172 -0.922,-0.293 -0.539,-0.258 -0.804,-0.637 -0.804,-1.133 0,-0.414 0.171,-0.761 0.523,-1.039 0.348,-0.277 0.793,-0.418 1.332,-0.418 0.574,0 1.035,0.141 1.391,0.426 0.355,0.285 0.531,0.652 0.531,1.106 h -1.078 c 0,-0.208 -0.078,-0.379 -0.231,-0.516 -0.156,-0.137 -0.359,-0.207 -0.613,-0.207 -0.238,0 -0.43,0.055 -0.582,0.164 -0.149,0.109 -0.223,0.258 -0.223,0.441 0,0.164 0.071,0.293 0.207,0.387 0.141,0.09 0.422,0.184 0.844,0.277 0.426,0.094 0.758,0.204 1,0.332 0.242,0.129 0.418,0.286 0.535,0.465 0.117,0.18 0.176,0.399 0.176,0.657 0,0.433 -0.18,0.785 -0.539,1.05 -0.356,0.27 -0.824,0.403 -1.406,0.403 -0.395,0 -0.743,-0.071 -1.051,-0.211 -0.309,-0.141 -0.551,-0.34 -0.723,-0.586 -0.168,-0.25 -0.254,-0.52 -0.254,-0.805 h 1.047 c 0.016,0.254 0.11,0.449 0.289,0.59 0.176,0.137 0.414,0.203 0.707,0.203 0.282,0 0.5,-0.051 0.649,-0.16 0.148,-0.11 0.222,-0.25 0.222,-0.426"
       style="fill:#2b398c;fill-opacity:1;fill-rule:nonzero;stroke:none"
       transform="scale(1.3333333)" />
    <path
       id="path35"
       d="m 214.023,100.957 c 0,0.484 0.098,0.863 0.297,1.141 0.196,0.277 0.469,0.414 0.817,0.414 0.437,0 0.758,-0.188 0.968,-0.559 v -2.117 c -0.203,-0.363 -0.523,-0.547 -0.957,-0.547 -0.355,0 -0.632,0.141 -0.828,0.422 -0.199,0.281 -0.297,0.695 -0.297,1.246 z m -1.074,-0.094 c 0,-0.746 0.176,-1.343 0.528,-1.789 0.347,-0.445 0.816,-0.668 1.394,-0.668 0.547,0 0.981,0.192 1.293,0.574 l 0.051,-0.484 h 0.969 v 4.66 c 0,0.633 -0.196,1.129 -0.586,1.492 -0.395,0.368 -0.922,0.547 -1.59,0.547 -0.352,0 -0.696,-0.07 -1.031,-0.218 -0.336,-0.145 -0.594,-0.34 -0.766,-0.575 l 0.512,-0.648 c 0.328,0.394 0.738,0.59 1.222,0.59 0.36,0 0.645,-0.098 0.852,-0.293 0.207,-0.192 0.308,-0.477 0.308,-0.856 v -0.324 c -0.308,0.348 -0.722,0.52 -1.242,0.52 -0.562,0 -1.023,-0.223 -1.379,-0.668 -0.359,-0.45 -0.535,-1.067 -0.535,-1.86"
       style="fill:#2b398c;fill-opacity:1;fill-rule:nonzero;stroke:none"
       transform="scale(1.3333333)" />
    <path
       id="path36"
       d="m 220.617,96.477 h 1.231 l -1.231,1.347 -0.867,-0.004 z m -0.246,2.796 c -0.297,0 -0.535,0.102 -0.715,0.309 -0.183,0.207 -0.301,0.5 -0.351,0.867 h 2.058 v -0.078 c -0.023,-0.363 -0.121,-0.637 -0.289,-0.82 -0.168,-0.188 -0.402,-0.278 -0.703,-0.278 z m 0.129,4.118 c -0.684,0 -1.238,-0.215 -1.66,-0.645 -0.426,-0.43 -0.641,-1.008 -0.641,-1.723 v -0.132 c 0,-0.481 0.094,-0.911 0.278,-1.289 0.187,-0.375 0.445,-0.672 0.781,-0.879 0.336,-0.211 0.707,-0.317 1.117,-0.317 0.656,0 1.16,0.207 1.52,0.625 0.355,0.418 0.535,1.012 0.535,1.774 v 0.437 h -3.141 c 0.031,0.395 0.164,0.711 0.399,0.942 0.23,0.23 0.523,0.347 0.874,0.347 0.497,0 0.899,-0.203 1.211,-0.601 l 0.579,0.554 c -0.192,0.289 -0.45,0.512 -0.77,0.672 -0.32,0.156 -0.684,0.235 -1.082,0.235"
       style="fill:#2b398c;fill-opacity:1;fill-rule:nonzero;stroke:none"
       transform="scale(1.3333333)" />
    <path
       id="path37"
       d="m 224.234,100.949 c 0,0.492 0.102,0.883 0.305,1.16 0.207,0.282 0.492,0.422 0.856,0.422 0.363,0 0.644,-0.144 0.847,-0.429 0.203,-0.282 0.305,-0.7 0.305,-1.247 0,-0.484 -0.102,-0.871 -0.313,-1.156 -0.207,-0.285 -0.492,-0.426 -0.851,-0.426 -0.352,0 -0.633,0.141 -0.836,0.418 -0.207,0.282 -0.313,0.7 -0.313,1.258 z m -1.082,-0.094 c 0,-0.472 0.098,-0.894 0.282,-1.273 0.187,-0.379 0.449,-0.668 0.785,-0.871 0.34,-0.203 0.73,-0.305 1.164,-0.305 0.652,0 1.176,0.207 1.582,0.625 0.402,0.418 0.621,0.973 0.656,1.664 v 0.254 c 0,0.473 -0.09,0.895 -0.269,1.27 -0.184,0.375 -0.446,0.664 -0.786,0.867 -0.336,0.203 -0.73,0.305 -1.171,0.305 -0.68,0 -1.223,-0.223 -1.629,-0.676 -0.407,-0.453 -0.614,-1.055 -0.614,-1.809 v -0.051"
       style="fill:#2b398c;fill-opacity:1;fill-rule:nonzero;stroke:none"
       transform="scale(1.3333333)" />
    <path
       id="path38"
       d="m 229.512,100.957 c 0,0.484 0.097,0.863 0.297,1.141 0.195,0.277 0.468,0.414 0.82,0.414 0.433,0 0.754,-0.188 0.965,-0.559 v -2.117 c -0.203,-0.363 -0.524,-0.547 -0.957,-0.547 -0.356,0 -0.633,0.141 -0.828,0.422 -0.2,0.281 -0.297,0.695 -0.297,1.246 z m -1.074,-0.094 c 0,-0.746 0.175,-1.343 0.527,-1.789 0.351,-0.445 0.816,-0.668 1.394,-0.668 0.551,0 0.981,0.192 1.293,0.574 l 0.051,-0.484 h 0.973 v 4.66 c 0,0.633 -0.199,1.129 -0.59,1.492 -0.391,0.368 -0.922,0.547 -1.586,0.547 -0.355,0 -0.699,-0.07 -1.035,-0.218 -0.336,-0.145 -0.59,-0.34 -0.766,-0.575 l 0.512,-0.648 c 0.332,0.394 0.738,0.59 1.227,0.59 0.359,0 0.64,-0.098 0.847,-0.293 0.207,-0.192 0.309,-0.477 0.309,-0.856 v -0.324 c -0.309,0.348 -0.723,0.52 -1.242,0.52 -0.563,0 -1.024,-0.223 -1.379,-0.668 -0.356,-0.45 -0.535,-1.067 -0.535,-1.86"
       style="fill:#2b398c;fill-opacity:1;fill-rule:nonzero;stroke:none"
       transform="scale(1.3333333)" />
    <path
       id="path39"
       d="m 236.391,99.48 c -0.145,-0.023 -0.289,-0.035 -0.442,-0.035 -0.492,0 -0.824,0.192 -1,0.571 v 3.289 h -1.078 v -4.809 h 1.031 l 0.028,0.535 c 0.258,-0.418 0.621,-0.625 1.082,-0.625 0.156,0 0.281,0.02 0.383,0.063 l -0.004,1.011"
       style="fill:#2b398c;fill-opacity:1;fill-rule:nonzero;stroke:none"
       transform="scale(1.3333333)" />
    <path
       id="path40"
       d="m 238.715,102.527 c 0.215,0 0.414,-0.054 0.601,-0.156 0.188,-0.105 0.332,-0.242 0.426,-0.418 v -0.906 h -0.582 c -0.402,0 -0.703,0.07 -0.902,0.207 -0.199,0.141 -0.301,0.336 -0.301,0.59 0,0.211 0.066,0.375 0.207,0.496 0.137,0.125 0.32,0.187 0.551,0.187 z m 1.183,0.778 c -0.043,-0.094 -0.086,-0.243 -0.121,-0.45 -0.343,0.36 -0.765,0.536 -1.261,0.536 -0.485,0 -0.875,-0.137 -1.18,-0.411 -0.309,-0.277 -0.461,-0.617 -0.461,-1.023 0,-0.512 0.191,-0.906 0.57,-1.18 0.383,-0.273 0.926,-0.414 1.633,-0.414 h 0.664 v -0.312 c 0,-0.25 -0.07,-0.449 -0.211,-0.598 -0.136,-0.148 -0.351,-0.226 -0.633,-0.226 -0.246,0 -0.449,0.062 -0.605,0.187 -0.156,0.121 -0.234,0.277 -0.234,0.469 h -1.082 c 0,-0.266 0.089,-0.512 0.261,-0.742 0.176,-0.231 0.414,-0.411 0.715,-0.539 0.301,-0.129 0.637,-0.196 1.008,-0.196 0.562,0 1.008,0.141 1.344,0.426 0.336,0.281 0.507,0.68 0.515,1.191 v 2.168 c 0,0.434 0.063,0.778 0.184,1.036 v 0.078 h -1.106"
       style="fill:#2b398c;fill-opacity:1;fill-rule:nonzero;stroke:none"
       transform="scale(1.3333333)" />
    <path
       id="path41"
       d="m 245.176,100.855 c 0,-0.48 -0.098,-0.863 -0.289,-1.144 -0.188,-0.281 -0.465,-0.422 -0.817,-0.422 -0.445,0 -0.758,0.184 -0.953,0.547 v 2.133 c 0.195,0.375 0.516,0.562 0.961,0.562 0.344,0 0.613,-0.14 0.805,-0.418 0.195,-0.277 0.293,-0.695 0.293,-1.258 z m 1.074,0.094 c 0,0.742 -0.168,1.336 -0.508,1.778 -0.336,0.445 -0.789,0.664 -1.359,0.664 -0.524,0 -0.949,-0.172 -1.266,-0.52 v 2.281 h -1.078 v -6.656 h 0.996 l 0.043,0.488 c 0.317,-0.386 0.75,-0.578 1.293,-0.578 0.586,0 1.047,0.219 1.379,0.656 0.332,0.438 0.5,1.043 0.5,1.821 v 0.066"
       style="fill:#2b398c;fill-opacity:1;fill-rule:nonzero;stroke:none"
       transform="scale(1.3333333)" />
    <path
       id="path42"
       d="m 248.316,99.02 c 0.356,-0.411 0.801,-0.614 1.336,-0.614 1.028,0 1.547,0.586 1.563,1.754 v 3.145 h -1.082 v -3.102 c 0,-0.332 -0.071,-0.57 -0.215,-0.707 -0.145,-0.137 -0.356,-0.207 -0.633,-0.207 -0.433,0 -0.754,0.195 -0.969,0.578 v 3.438 h -1.078 v -6.828 h 1.078 v 2.543"
       style="fill:#2b398c;fill-opacity:1;fill-rule:nonzero;stroke:none"
       transform="scale(1.3333333)" />
    <path
       id="path43"
       d="m 254.383,99.273 c -0.297,0 -0.535,0.102 -0.719,0.309 -0.18,0.207 -0.297,0.5 -0.348,0.867 h 2.055 v -0.078 c -0.023,-0.363 -0.117,-0.637 -0.289,-0.82 -0.168,-0.188 -0.398,-0.278 -0.699,-0.278 z m 0.129,4.118 c -0.684,0 -1.239,-0.215 -1.664,-0.645 -0.426,-0.43 -0.637,-1.008 -0.637,-1.723 v -0.132 c 0,-0.481 0.094,-0.911 0.277,-1.289 0.184,-0.375 0.446,-0.672 0.778,-0.879 0.336,-0.211 0.711,-0.317 1.121,-0.317 0.652,0 1.16,0.207 1.515,0.625 0.36,0.418 0.536,1.012 0.536,1.774 v 0.437 h -3.141 c 0.035,0.395 0.168,0.711 0.398,0.942 0.235,0.23 0.528,0.347 0.879,0.347 0.492,0 0.895,-0.203 1.207,-0.601 l 0.582,0.554 c -0.191,0.289 -0.449,0.512 -0.769,0.672 -0.324,0.156 -0.684,0.235 -1.082,0.235"
       style="fill:#2b398c;fill-opacity:1;fill-rule:nonzero;stroke:none"
       transform="scale(1.3333333)" />
    <path
       id="path44"
       d="m 260.059,101.996 c 0,-0.191 -0.079,-0.34 -0.239,-0.437 -0.156,-0.102 -0.418,-0.192 -0.785,-0.27 -0.367,-0.074 -0.676,-0.172 -0.922,-0.293 -0.539,-0.258 -0.804,-0.637 -0.804,-1.133 0,-0.414 0.171,-0.761 0.519,-1.039 0.352,-0.277 0.797,-0.418 1.336,-0.418 0.574,0 1.035,0.141 1.391,0.426 0.351,0.285 0.531,0.652 0.531,1.106 h -1.078 c 0,-0.208 -0.078,-0.379 -0.231,-0.516 -0.156,-0.137 -0.359,-0.207 -0.613,-0.207 -0.238,0 -0.43,0.055 -0.582,0.164 -0.148,0.109 -0.223,0.258 -0.223,0.441 0,0.164 0.071,0.293 0.207,0.387 0.141,0.09 0.422,0.184 0.844,0.277 0.426,0.094 0.758,0.204 0.996,0.332 0.246,0.129 0.422,0.286 0.539,0.465 0.117,0.18 0.176,0.399 0.176,0.657 0,0.433 -0.18,0.785 -0.539,1.05 -0.355,0.27 -0.824,0.403 -1.406,0.403 -0.395,0 -0.746,-0.071 -1.051,-0.211 -0.309,-0.141 -0.551,-0.34 -0.723,-0.586 -0.168,-0.25 -0.257,-0.52 -0.257,-0.805 h 1.05 c 0.012,0.254 0.11,0.449 0.289,0.59 0.176,0.137 0.414,0.203 0.707,0.203 0.282,0 0.5,-0.051 0.645,-0.16 0.148,-0.11 0.223,-0.25 0.223,-0.426"
       style="fill:#2b398c;fill-opacity:1;fill-rule:nonzero;stroke:none"
       transform="scale(1.3333333)" />
    <path
       id="path45"
       d="m 44.117,35.488 5.543,1.098 10.828,1.16 16.129,-5.441 16.535,-3.778 V 27.91 L 76.457,31.727 60.422,37.133 49.75,35.992 44.137,34.879 25.062,37.395 V 38 l 19.055,-2.512"
       style="fill:#f9b273;fill-opacity:1;fill-rule:nonzero;stroke:none"
       transform="scale(1.3333333)" />
    <path
       id="path46"
       d="m 26.602,38.668 19.75,0.617 5.281,0.399 10.195,0.043 9.16,-3.204 6.235,-1.386 15.929,-2.227 v -0.609 l -16.035,2.242 -6.297,1.402 -9.093,3.18 -10.071,-0.043 -5.269,-0.398 -19.813,-0.622 h -0.047 l -1.465,0.43 v 0.629 l 1.54,-0.453"
       style="fill:#f19f5a;fill-opacity:1;fill-rule:nonzero;stroke:none"
       transform="scale(1.3333333)" />
    <path
       id="path47"
       d="m 26.766,39.52 21.812,3.562 0.031,0.004 5.004,-0.309 9.52,-1.062 8.719,-3.16 5.976,-0.59 15.324,-0.66 v -0.602 l -15.367,0.664 -6.027,0.594 -8.727,3.16 -9.472,1.055 -4.918,0.304 -21.953,-3.585 -1.626,0.71 v 0.653 l 1.704,-0.738"
       style="fill:#e89043;fill-opacity:1;fill-rule:nonzero;stroke:none"
       transform="scale(1.3333333)" />
    <path
       id="path48"
       d="m 26.926,41.164 23.871,6.504 0.07,0.016 4.727,-1.028 8.933,-2.179 8.172,-3.094 5.727,0.199 14.726,0.926 V 41.91 l -14.695,-0.926 -5.855,-0.207 -8.25,3.125 -8.895,2.168 -4.574,0.996 -24.035,-6.546 -1.786,1 v 0.683 l 1.864,-1.039"
       style="fill:#e1812d;fill-opacity:1;fill-rule:nonzero;stroke:none"
       transform="scale(1.3333333)" />
    <path
       id="path49"
       d="m 27.09,43.992 26.039,9.477 20.414,-8.074 19.609,3.523 V 48.309 L 73.566,44.785 73.48,44.77 53.121,52.828 27.008,43.324 25.062,44.629 v 0.723 l 2.028,-1.36"
       style="fill:#dc741a;fill-opacity:1;fill-rule:nonzero;stroke:none"
       transform="scale(1.3333333)" />
    <path
       id="path50"
       d="m 29.934,51.73 c 7.902,2.286 11.773,3.317 12.769,3.098 l 6.039,1.211 18.797,-7.656 2.215,-0.684 23.398,2.457 v -0.664 l -23.464,-2.465 -2.372,0.731 -18.64,7.594 -5.922,-1.188 -0.106,-0.031 -0.105,0.058 C 41.75,54.453 34.465,52.352 30.117,51.094 27.5,50.336 25.82,49.855 25.062,49.691 v 0.676 c 0.868,0.203 2.825,0.77 4.872,1.363"
       style="fill:#ab5842;fill-opacity:1;fill-rule:nonzero;stroke:none"
       transform="scale(1.3333333)" />
    <path
       id="path51"
       d="m 26.457,58.043 c 5.898,1.137 10.918,2.012 12.496,1.266 l 5.41,0.007 19.282,-8.07 2.316,-0.527 27.191,0.957 V 50.953 L 65.941,49.992 h -0.046 l -2.442,0.559 -19.234,8.043 -5.446,-0.008 -0.085,0.047 C 37.332,59.398 30.609,58.105 26.594,57.332 26.047,57.23 25.539,57.129 25.062,57.043 v 0.734 c 0.442,0.082 0.911,0.172 1.395,0.266"
       style="fill:#7c415d;fill-opacity:1;fill-rule:nonzero;stroke:none"
       transform="scale(1.3333333)" />
    <path
       id="path52"
       d="m 35.191,64.301 4.774,-1.18 19.773,-8.473 2.407,-0.382 31.007,-0.926 v -0.785 l -31.078,0.933 -2.504,0.395 -19.82,8.488 -4.797,1.184 -0.098,0.039 c -1.964,1.105 -6.14,1.097 -9.793,0.89 v 0.782 c 3.719,0.207 7.993,0.207 10.129,-0.965"
       style="fill:#543b7c;fill-opacity:1;fill-rule:nonzero;stroke:none"
       transform="scale(1.3333333)" />
    <path
       id="path53"
       d="m 31.43,69.891 4.195,-2.371 20.207,-8.872 37.32,-3.394 v -0.848 l -37.535,3.418 -20.367,8.942 -4.234,2.39 c -1.879,1.063 -5.954,2.364 -5.954,2.364 v 0.867 c 2.211,-0.532 4.36,-1.36 6.368,-2.496"
       style="fill:#2b398c;fill-opacity:1;fill-rule:nonzero;stroke:none"
       transform="scale(1.3333333)" />
    <path
       id="path54"
       d="m 36.945,74.434 0.153,-0.079 c 2.722,-1.398 3.519,-1.722 3.75,-1.8 l 0.019,0.004 20,-4.957 c 0.703,-0.02 3.711,-0.188 16.449,-0.903 5.985,-0.336 12.547,-0.707 15.836,-0.883 v -1.687 c -2.242,0.121 -6.75,0.371 -15.929,0.887 -7.766,0.437 -15.797,0.89 -16.442,0.906 L 60.68,65.914 40.695,70.863 c -0.332,0.032 -1.082,0.309 -4.367,1.992 l -0.144,0.075 c -2.735,1.386 -7.008,2.75 -11.122,3.316 v 1.699 c 0,0 8.911,-2.004 11.883,-3.511"
       style="fill:#2b398c;fill-opacity:1;fill-rule:nonzero;stroke:none"
       transform="scale(1.3333333)" />
    <path
       id="path55"
       d="m 32.645,82.477 c 4.082,-1.106 8.113,-2.633 9.832,-3.504 0.859,-0.438 3.043,-1.356 3.613,-1.426 l 0.035,0.004 19.66,-0.989 c 0.695,0.02 3.938,-0.011 13.184,-0.105 5.027,-0.051 10.922,-0.113 14.183,-0.129 v -2.527 c -2.269,0.011 -6.441,0.051 -14.211,0.129 -6.203,0.062 -12.613,0.129 -13.066,0.109 L 65.789,74.031 46.125,75.02 c -1.395,0.007 -4.758,1.683 -4.789,1.699 -3.402,1.726 -16.274,4.582 -16.274,4.582 v 2.515 c 0,0 4.446,-0.488 7.583,-1.339"
       style="fill:#2b398c;fill-opacity:1;fill-rule:nonzero;stroke:none"
       transform="scale(1.3333333)" />
    <path
       id="path56"
       d="m 38.824,89.395 c 4.094,-1.493 8.238,-3.207 9.184,-3.688 0.965,-0.488 2.683,-1 3.301,-0.969 l 19.226,2.957 0.113,0.012 c 0.36,0.031 3.055,0.176 7.782,0.434 4.703,0.25 11.101,0.593 14.722,0.808 V 85.574 C 90.66,85.426 86.305,85.188 78.613,84.773 74.973,84.578 71.527,84.391 70.984,84.355 L 51.75,81.395 51.637,81.379 c -1.633,-0.133 -4.223,0.851 -5.153,1.324 -2.086,1.059 -18.793,7.285 -21.422,6.871 v 3.43 c 0,0 7.469,-1.316 13.762,-3.609"
       style="fill:#2b398c;fill-opacity:1;fill-rule:nonzero;stroke:none"
       transform="scale(1.3333333)" />
    <path
       id="path57"
       d="m 36.645,100.707 16.808,-7.602 c 0.926,-0.417 1.942,-0.613 2.949,-0.57 l 18.953,6.918 0.282,0.024 c 0.808,0.07 17.515,2.582 17.515,2.582 v -4.258 c 0,0 -14.867,-2.239 -16.851,-2.485 L 57.297,88.379 57.02,88.355 c -1.813,-0.152 -3.645,0.165 -5.297,0.911 l -16.809,7.605 c -3.109,1.406 -9.852,2.457 -9.852,2.457 v 4.223 c 0,0 7.93,-1.192 11.583,-2.844"
       style="fill:#2b398c;fill-opacity:1;fill-rule:nonzero;stroke:none"
       transform="scale(1.3333333)" />
  </g>
</svg>
