<?xml version="1.0" encoding="UTF-8" standalone="no"?>
<!-- Created with Inkscape (http://www.inkscape.org/) -->

<svg
   width="96.585022mm"
   height="32.050568mm"
   viewBox="0 0 96.585022 32.050568"
   version="1.1"
   id="svg1"
   inkscape:version="1.4.2 (ebf0e940d0, 2025-05-08)"
   sodipodi:docname="geodata.svg"
   xmlns:inkscape="http://www.inkscape.org/namespaces/inkscape"
   xmlns:sodipodi="http://sodipodi.sourceforge.net/DTD/sodipodi-0.dtd"
   xmlns="http://www.w3.org/2000/svg"
   xmlns:svg="http://www.w3.org/2000/svg">
  <sodipodi:namedview
     id="namedview1"
     pagecolor="#ffffff"
     bordercolor="#000000"
     borderopacity="0.25"
     inkscape:showpageshadow="2"
     inkscape:pageopacity="0.0"
     inkscape:pagecheckerboard="0"
     inkscape:deskcolor="#d1d1d1"
     inkscape:document-units="mm"
     inkscape:zoom="1.7390337"
     inkscape:cx="108.10601"
     inkscape:cy="125.64449"
     inkscape:window-width="1920"
     inkscape:window-height="1080"
     inkscape:window-x="0"
     inkscape:window-y="0"
     inkscape:window-maximized="1"
     inkscape:current-layer="layer1" />
  <defs
     id="defs1">
    <clipPath
       clipPathUnits="userSpaceOnUse"
       id="clipPath21">
      <path
         d="M 259.971,689.628 H 569.84 V 834.292 H 259.971 Z"
         transform="translate(-410.65741,-776.09442)"
         id="path21" />
    </clipPath>
    <clipPath
       clipPathUnits="userSpaceOnUse"
       id="clipPath23">
      <path
         d="M 259.971,689.628 H 569.84 V 834.292 H 259.971 Z"
         transform="translate(-433.03951,-796.86292)"
         id="path23" />
    </clipPath>
    <clipPath
       clipPathUnits="userSpaceOnUse"
       id="clipPath25">
      <path
         d="M 259.971,689.628 H 569.84 V 834.292 H 259.971 Z"
         transform="translate(-451.94601,-784.03782)"
         id="path25" />
    </clipPath>
    <clipPath
       clipPathUnits="userSpaceOnUse"
       id="clipPath27">
      <path
         d="M 259.971,689.628 H 569.84 V 834.292 H 259.971 Z"
         transform="translate(-483.09691,-778.37022)"
         id="path27" />
    </clipPath>
    <clipPath
       clipPathUnits="userSpaceOnUse"
       id="clipPath29">
      <path
         d="M 259.971,689.628 H 569.84 V 834.292 H 259.971 Z"
         transform="translate(-508.08532,-777.54272)"
         id="path29" />
    </clipPath>
    <clipPath
       clipPathUnits="userSpaceOnUse"
       id="clipPath31">
      <path
         d="M 259.971,689.628 H 569.84 V 834.292 H 259.971 Z"
         transform="translate(-538.74301,-774.35722)"
         id="path31" />
    </clipPath>
    <clipPath
       clipPathUnits="userSpaceOnUse"
       id="clipPath33">
      <path
         d="M 259.971,689.628 H 569.84 V 834.292 H 259.971 Z"
         transform="translate(-550.03631,-777.54272)"
         id="path33" />
    </clipPath>
    <clipPath
       clipPathUnits="userSpaceOnUse"
       id="clipPath35">
      <path
         d="M 259.971,689.628 H 569.84 V 834.292 H 259.971 Z"
         transform="translate(-394.23331,-747.13512)"
         id="path35" />
    </clipPath>
    <clipPath
       clipPathUnits="userSpaceOnUse"
       id="clipPath37">
      <path
         d="M 259.971,689.628 H 569.84 V 834.292 H 259.971 Z"
         transform="translate(-422.98661,-735.46842)"
         id="path37" />
    </clipPath>
    <clipPath
       clipPathUnits="userSpaceOnUse"
       id="clipPath39">
      <path
         d="M 259.971,689.628 H 569.84 V 834.292 H 259.971 Z"
         transform="translate(-450.62211,-752.80272)"
         id="path39" />
    </clipPath>
    <clipPath
       clipPathUnits="userSpaceOnUse"
       id="clipPath41">
      <path
         d="M 259.971,689.628 H 569.84 V 834.292 H 259.971 Z"
         id="path41" />
    </clipPath>
    <clipPath
       clipPathUnits="userSpaceOnUse"
       id="clipPath43">
      <path
         d="M 259.971,689.628 H 569.84 V 834.292 H 259.971 Z"
         transform="translate(-471.72101,-733.31662)"
         id="path43" />
    </clipPath>
    <clipPath
       clipPathUnits="userSpaceOnUse"
       id="clipPath45">
      <path
         d="M 259.971,689.628 H 569.84 V 834.292 H 259.971 Z"
         id="path45" />
    </clipPath>
    <clipPath
       clipPathUnits="userSpaceOnUse"
       id="clipPath47">
      <path
         d="M 259.971,689.628 H 569.84 V 834.292 H 259.971 Z"
         transform="translate(-393.84681,-720.00622)"
         id="path47" />
    </clipPath>
    <clipPath
       clipPathUnits="userSpaceOnUse"
       id="clipPath49">
      <path
         d="M 259.971,689.628 H 569.84 V 834.292 H 259.971 Z"
         transform="translate(-398.56161,-722.63962)"
         id="path49" />
    </clipPath>
    <clipPath
       clipPathUnits="userSpaceOnUse"
       id="clipPath51">
      <path
         d="M 259.971,689.628 H 569.84 V 834.292 H 259.971 Z"
         transform="translate(-404.02111,-715.63382)"
         id="path51" />
    </clipPath>
    <clipPath
       clipPathUnits="userSpaceOnUse"
       id="clipPath53">
      <path
         d="M 259.971,689.628 H 569.84 V 834.292 H 259.971 Z"
         transform="translate(-408.36951,-717.46522)"
         id="path53" />
    </clipPath>
    <clipPath
       clipPathUnits="userSpaceOnUse"
       id="clipPath55">
      <path
         d="M 259.971,689.628 H 569.84 V 834.292 H 259.971 Z"
         id="path55" />
    </clipPath>
    <clipPath
       clipPathUnits="userSpaceOnUse"
       id="clipPath57">
      <path
         d="M 259.971,689.628 H 569.84 V 834.292 H 259.971 Z"
         transform="translate(-418.55421,-719.40442)"
         id="path57" />
    </clipPath>
    <clipPath
       clipPathUnits="userSpaceOnUse"
       id="clipPath59">
      <path
         d="M 259.971,689.628 H 569.84 V 834.292 H 259.971 Z"
         transform="translate(-425.75491,-717.45522)"
         id="path59" />
    </clipPath>
    <clipPath
       clipPathUnits="userSpaceOnUse"
       id="clipPath61">
      <path
         d="M 259.971,689.628 H 569.84 V 834.292 H 259.971 Z"
         transform="translate(-433.09271,-719.40442)"
         id="path61" />
    </clipPath>
    <clipPath
       clipPathUnits="userSpaceOnUse"
       id="clipPath63">
      <path
         d="M 259.971,689.628 H 569.84 V 834.292 H 259.971 Z"
         transform="translate(-439.66901,-716.25122)"
         id="path63" />
    </clipPath>
    <clipPath
       clipPathUnits="userSpaceOnUse"
       id="clipPath65">
      <path
         d="M 259.971,689.628 H 569.84 V 834.292 H 259.971 Z"
         id="path65" />
    </clipPath>
    <clipPath
       clipPathUnits="userSpaceOnUse"
       id="clipPath67">
      <path
         d="M 259.971,689.628 H 569.84 V 834.292 H 259.971 Z"
         transform="translate(-448.77541,-720.30462)"
         id="path67" />
    </clipPath>
    <clipPath
       clipPathUnits="userSpaceOnUse"
       id="clipPath69">
      <path
         d="M 259.971,689.628 H 569.84 V 834.292 H 259.971 Z"
         transform="translate(-454.60541,-717.45522)"
         id="path69" />
    </clipPath>
    <clipPath
       clipPathUnits="userSpaceOnUse"
       id="clipPath71">
      <path
         d="M 259.971,689.628 H 569.84 V 834.292 H 259.971 Z"
         transform="translate(-462.24171,-722.63962)"
         id="path71" />
    </clipPath>
    <clipPath
       clipPathUnits="userSpaceOnUse"
       id="clipPath73">
      <path
         d="M 259.971,689.628 H 569.84 V 834.292 H 259.971 Z"
         transform="translate(-466.57531,-720.30462)"
         id="path73" />
    </clipPath>
    <clipPath
       clipPathUnits="userSpaceOnUse"
       id="clipPath75">
      <path
         d="M 259.971,689.628 H 569.84 V 834.292 H 259.971 Z"
         id="path75" />
    </clipPath>
    <clipPath
       clipPathUnits="userSpaceOnUse"
       id="clipPath77">
      <path
         d="M 259.971,689.628 H 569.84 V 834.292 H 259.971 Z"
         transform="translate(-476.47661,-719.40442)"
         id="path77" />
    </clipPath>
    <clipPath
       clipPathUnits="userSpaceOnUse"
       id="clipPath79">
      <path
         d="M 259.971,689.628 H 569.84 V 834.292 H 259.971 Z"
         transform="translate(-483.30421,-715.28402)"
         id="path79" />
    </clipPath>
    <clipPath
       clipPathUnits="userSpaceOnUse"
       id="clipPath81">
      <path
         d="M 259.971,689.628 H 569.84 V 834.292 H 259.971 Z"
         transform="translate(-488.80591,-719.16222)"
         id="path81" />
    </clipPath>
    <clipPath
       clipPathUnits="userSpaceOnUse"
       id="clipPath83">
      <path
         d="M 259.971,689.628 H 569.84 V 834.292 H 259.971 Z"
         transform="translate(-489.79101,-718.41142)"
         id="path83" />
    </clipPath>
    <clipPath
       clipPathUnits="userSpaceOnUse"
       id="clipPath85">
      <path
         d="M 259.971,689.628 H 569.84 V 834.292 H 259.971 Z"
         transform="translate(-495.08031,-719.40442)"
         id="path85" />
    </clipPath>
    <clipPath
       clipPathUnits="userSpaceOnUse"
       id="clipPath87">
      <path
         d="M 259.971,689.628 H 569.84 V 834.292 H 259.971 Z"
         transform="translate(-501.65761,-716.25122)"
         id="path87" />
    </clipPath>
    <clipPath
       clipPathUnits="userSpaceOnUse"
       id="clipPath89">
      <path
         d="M 259.971,689.628 H 569.84 V 834.292 H 259.971 Z"
         transform="translate(-507.83491,-717.45522)"
         id="path89" />
    </clipPath>
    <clipPath
       clipPathUnits="userSpaceOnUse"
       id="clipPath91">
      <path
         d="M 259.971,689.628 H 569.84 V 834.292 H 259.971 Z"
         transform="translate(-515.47091,-722.63962)"
         id="path91" />
    </clipPath>
    <clipPath
       clipPathUnits="userSpaceOnUse"
       id="clipPath93">
      <path
         d="M 259.971,689.628 H 569.84 V 834.292 H 259.971 Z"
         transform="translate(-519.66082,-717.46522)"
         id="path93" />
    </clipPath>
    <clipPath
       clipPathUnits="userSpaceOnUse"
       id="clipPath95">
      <path
         d="M 259.971,689.628 H 569.84 V 834.292 H 259.971 Z"
         transform="translate(-525.77321,-717.45522)"
         id="path95" />
    </clipPath>
    <clipPath
       clipPathUnits="userSpaceOnUse"
       id="clipPath97">
      <path
         d="M 259.971,689.628 H 569.84 V 834.292 H 259.971 Z"
         transform="translate(-533.73802,-719.16222)"
         id="path97" />
    </clipPath>
    <clipPath
       clipPathUnits="userSpaceOnUse"
       id="clipPath99">
      <path
         d="M 259.971,689.628 H 569.84 V 834.292 H 259.971 Z"
         transform="translate(-536.43172,-715.63902)"
         id="path99" />
    </clipPath>
    <clipPath
       clipPathUnits="userSpaceOnUse"
       id="clipPath101">
      <path
         d="M 259.971,689.628 H 569.84 V 834.292 H 259.971 Z"
         transform="translate(-543.91241,-717.57282)"
         id="path101" />
    </clipPath>
    <clipPath
       clipPathUnits="userSpaceOnUse"
       id="clipPath103">
      <path
         d="M 259.971,689.628 H 569.84 V 834.292 H 259.971 Z"
         transform="translate(-547.55242,-719.69732)"
         id="path103" />
    </clipPath>
    <clipPath
       clipPathUnits="userSpaceOnUse"
       id="clipPath105">
      <path
         d="M 259.971,689.628 H 569.84 V 834.292 H 259.971 Z"
         transform="translate(-554.57512,-719.40442)"
         id="path105" />
    </clipPath>
    <clipPath
       clipPathUnits="userSpaceOnUse"
       id="clipPath107">
      <path
         d="M 259.971,689.628 H 569.84 V 834.292 H 259.971 Z"
         transform="translate(-561.15121,-716.25122)"
         id="path107" />
    </clipPath>
    <clipPath
       clipPathUnits="userSpaceOnUse"
       id="clipPath114">
      <path
         d="m 288.995,714.451 h 78.858 v 87.541 h -78.858 z"
         transform="translate(-294.63571,-774.42572)"
         id="path114" />
    </clipPath>
    <clipPath
       clipPathUnits="userSpaceOnUse"
       id="clipPath116">
      <path
         d="m 288.995,714.451 h 78.858 v 87.541 h -78.858 z"
         transform="translate(-290.6125,-767.11862)"
         id="path116" />
    </clipPath>
    <clipPath
       clipPathUnits="userSpaceOnUse"
       id="clipPath118">
      <path
         d="m 288.995,714.451 h 78.858 v 87.541 h -78.858 z"
         transform="translate(-300.72401,-759.87782)"
         id="path118" />
    </clipPath>
    <clipPath
       clipPathUnits="userSpaceOnUse"
       id="clipPath120">
      <path
         d="m 288.995,714.451 h 78.858 v 87.541 h -78.858 z"
         transform="translate(-296.3701,-753.40882)"
         id="path120" />
    </clipPath>
    <clipPath
       clipPathUnits="userSpaceOnUse"
       id="clipPath122">
      <path
         d="m 288.995,714.451 h 78.858 v 87.541 h -78.858 z"
         transform="translate(-302.75711,-748.15082)"
         id="path122" />
    </clipPath>
    <clipPath
       clipPathUnits="userSpaceOnUse"
       id="clipPath124">
      <path
         d="m 288.995,714.451 h 78.858 v 87.541 h -78.858 z"
         transform="translate(-297.77541,-738.84202)"
         id="path124" />
    </clipPath>
    <clipPath
       clipPathUnits="userSpaceOnUse"
       id="clipPath126">
      <path
         d="m 288.995,714.451 h 78.858 v 87.541 h -78.858 z"
         transform="translate(-304.93361,-730.83482)"
         id="path126" />
    </clipPath>
    <clipPath
       clipPathUnits="userSpaceOnUse"
       id="clipPath128">
      <path
         d="m 288.995,714.451 h 78.858 v 87.541 h -78.858 z"
         transform="translate(-302.41011,-717.74162)"
         id="path128" />
    </clipPath>
  </defs>
  <g
     inkscape:label="Calque 1"
     inkscape:groupmode="layer"
     id="layer1"
     transform="translate(-58.472916,-6.3500004)">
    <path
       id="path20"
       d="m 0,0 c -2.235,-2.069 -4.813,-3.102 -7.736,-3.102 -1.931,0 -3.752,0.366 -5.463,1.094 -1.71,0.732 -3.204,1.76 -4.485,3.085 -1.284,1.322 -2.299,2.915 -3.043,4.777 -0.745,1.861 -1.115,3.91 -1.115,6.143 0,2.015 0.37,3.917 1.115,5.71 0.744,1.793 1.772,3.353 3.081,4.675 1.31,1.325 2.862,2.371 4.657,3.145 1.793,0.773 3.721,1.159 5.79,1.159 2.731,0 5.117,-0.576 7.158,-1.719 2.041,-1.145 3.57,-2.71 4.593,-4.695 l -5.048,-3.805 c -0.662,1.322 -1.619,2.35 -2.875,3.081 -1.255,0.732 -2.613,1.098 -4.076,1.098 -1.13,0 -2.158,-0.228 -3.082,-0.683 -0.923,-0.456 -1.716,-1.092 -2.378,-1.903 -0.662,-0.816 -1.174,-1.76 -1.532,-2.834 -0.358,-1.076 -0.537,-2.235 -0.537,-3.475 0,-1.271 0.192,-2.442 0.581,-3.519 0.383,-1.074 0.923,-2.005 1.611,-2.79 0.69,-0.788 1.511,-1.401 2.462,-1.841 0.952,-0.443 2.008,-0.663 3.167,-0.663 2.646,0 5.03,1.225 7.155,3.683 v 0.908 h -5.708 v 4.925 H 5.629 V -2.898 H 0 Z"
       style="fill:#2b398c;fill-opacity:1;fill-rule:nonzero;stroke:none"
       transform="matrix(0.35277776,0,0,-0.35277776,101.39271,15.982526)"
       clip-path="url(#clipPath21)" />
    <path
       id="path22"
       d="m 0,0 -4.22,1.158 2.151,5.378 h 6 z m 2.772,-10.756 c -0.138,1.378 -0.634,2.468 -1.488,3.268 -0.857,0.8 -1.918,1.199 -3.187,1.199 -1.296,0 -2.365,-0.406 -3.207,-1.219 -0.841,-0.814 -1.329,-1.898 -1.468,-3.248 z m -4.593,-13.322 c -1.818,0 -3.455,0.297 -4.902,0.888 -1.448,0.593 -2.675,1.399 -3.68,2.422 -1.008,1.02 -1.775,2.199 -2.297,3.536 -0.527,1.338 -0.787,2.737 -0.787,4.2 0,1.572 0.26,3.056 0.787,4.447 0.522,1.391 1.281,2.614 2.276,3.662 0.99,1.049 2.212,1.875 3.66,2.481 1.45,0.608 3.097,0.913 4.943,0.913 1.847,0 3.488,-0.305 4.923,-0.913 1.435,-0.606 2.649,-1.425 3.642,-2.461 0.992,-1.033 1.744,-2.227 2.255,-3.577 0.509,-1.353 0.765,-2.772 0.765,-4.263 0,-0.387 -0.015,-0.765 -0.041,-1.136 -0.028,-0.373 -0.069,-0.698 -0.125,-0.972 H -6.455 c 0.11,-1.462 0.642,-2.572 1.593,-3.332 0.952,-0.759 2.034,-1.138 3.248,-1.138 0.964,0 1.895,0.235 2.793,0.703 0.898,0.468 1.496,1.103 1.8,1.903 l 5.626,-1.57 C 7.751,-19.996 6.427,-21.39 4.634,-22.464 2.841,-23.54 0.69,-24.078 -1.821,-24.078"
       style="fill:#2b398c;fill-opacity:1;fill-rule:nonzero;stroke:none"
       transform="matrix(0.35277776,0,0,-0.35277776,109.28862,8.655861)"
       clip-path="url(#clipPath23)" />
    <path
       id="path24"
       d="m 0,0 c 0,-1.711 0.455,-3.082 1.366,-4.117 0.91,-1.034 2.068,-1.55 3.475,-1.55 0.688,0 1.325,0.138 1.903,0.414 0.58,0.274 1.081,0.66 1.509,1.159 0.429,0.493 0.767,1.097 1.015,1.797 C 9.516,-1.593 9.639,-0.826 9.639,0 9.639,1.711 9.183,3.081 8.276,4.117 7.365,5.15 6.219,5.667 4.841,5.667 4.151,5.667 3.509,5.529 2.918,5.253 2.322,4.979 1.813,4.593 1.386,4.094 0.956,3.601 0.619,3 0.373,2.296 0.125,1.593 0,0.828 0,0 m 4.841,-11.252 c -1.849,0 -3.496,0.304 -4.943,0.91 -1.45,0.606 -2.67,1.427 -3.662,2.46 -0.995,1.036 -1.745,2.235 -2.256,3.601 -0.509,1.366 -0.765,2.793 -0.765,4.281 0,1.488 0.256,2.918 0.765,4.281 0.511,1.365 1.261,2.565 2.256,3.601 0.992,1.035 2.212,1.862 3.662,2.483 1.447,0.619 3.094,0.931 4.943,0.931 1.846,0 3.488,-0.312 4.923,-0.931 1.435,-0.621 2.647,-1.448 3.639,-2.483 0.995,-1.036 1.752,-2.236 2.279,-3.601 0.521,-1.363 0.785,-2.793 0.785,-4.281 0,-1.488 -0.256,-2.915 -0.767,-4.281 -0.509,-1.366 -1.261,-2.565 -2.253,-3.601 -0.993,-1.033 -2.215,-1.854 -3.663,-2.46 -1.447,-0.606 -3.097,-0.91 -4.943,-0.91"
       style="fill:#2b398c;fill-opacity:1;fill-rule:nonzero;stroke:none"
       transform="matrix(0.35277776,0,0,-0.35277776,115.95841,13.180271)"
       clip-path="url(#clipPath25)" />
    <path
       id="path26"
       d="M 0,0 C 0.91,0 1.785,0.268 2.629,0.805 3.468,1.345 4.11,2.082 4.552,3.02 v 4.55 c -0.414,1.104 -1.084,2.007 -2.007,2.71 -0.924,0.704 -1.883,1.057 -2.875,1.057 -0.719,0 -1.373,-0.161 -1.967,-0.479 -0.593,-0.317 -1.109,-0.736 -1.549,-1.26 -0.443,-0.525 -0.78,-1.131 -1.016,-1.821 -0.235,-0.688 -0.35,-1.42 -0.35,-2.192 0,-0.8 0.13,-1.545 0.394,-2.235 C -4.557,2.66 -4.199,2.069 -3.744,1.573 -3.289,1.074 -2.736,0.688 -2.089,0.414 -1.44,0.138 -0.744,0 0,0 m -1.777,-5.585 c -1.491,0 -2.862,0.283 -4.118,0.849 -1.255,0.565 -2.337,1.358 -3.248,2.378 -0.91,1.02 -1.621,2.212 -2.13,3.578 -0.511,1.365 -0.767,2.861 -0.767,4.488 0,1.573 0.235,3.048 0.703,4.427 0.471,1.378 1.133,2.572 1.987,3.58 0.854,1.008 1.87,1.8 3.041,2.378 1.171,0.581 2.463,0.87 3.867,0.87 1.519,0 2.892,-0.361 4.117,-1.077 1.228,-0.718 2.171,-1.683 2.834,-2.895 V 25.029 H 11.13 V 2.276 c 0,-0.662 0.104,-1.125 0.309,-1.386 0.207,-0.263 0.573,-0.422 1.097,-0.476 V -5.171 C 11.927,-5.309 11.403,-5.399 10.963,-5.442 10.521,-5.48 10.109,-5.504 9.723,-5.504 8.565,-5.504 7.626,-5.26 6.91,-4.78 6.191,-4.297 5.78,-3.601 5.667,-2.69 L 5.544,-1.573 C 4.772,-2.923 3.731,-3.931 2.419,-4.593 1.11,-5.253 -0.289,-5.585 -1.777,-5.585"
       style="fill:#2b398c;fill-opacity:1;fill-rule:nonzero;stroke:none"
       transform="matrix(0.35277776,0,0,-0.35277776,126.94776,15.179675)"
       clip-path="url(#clipPath27)" />
    <path
       id="path28"
       d="m 0,0 c 0.719,0 1.414,0.125 2.089,0.373 0.675,0.248 1.236,0.578 1.675,0.993 0.635,0.496 0.952,1.02 0.952,1.57 V 5.005 C 4.138,5.227 3.509,5.398 2.833,5.524 2.158,5.646 1.532,5.708 0.951,5.708 -0.263,5.708 -1.261,5.434 -2.048,4.882 -2.834,4.33 -3.225,3.613 -3.225,2.731 c 0,-0.8 0.302,-1.455 0.908,-1.967 C -1.711,0.253 -0.939,0 0,0 m -1.944,-4.759 c -1.076,0 -2.076,0.174 -2.999,0.519 -0.926,0.345 -1.716,0.826 -2.379,1.447 -0.662,0.622 -1.186,1.351 -1.573,2.192 -0.386,0.841 -0.577,1.759 -0.577,2.752 0,1.076 0.227,2.056 0.68,2.938 0.455,0.882 1.097,1.639 1.925,2.276 0.826,0.634 1.806,1.13 2.936,1.488 1.133,0.359 2.386,0.538 3.765,0.538 0.91,0 1.792,-0.077 2.649,-0.228 C 3.337,9.012 4.081,8.784 4.716,8.48 v 0.995 c 0,2.509 -1.448,3.764 -4.343,3.764 -1.186,0 -2.317,-0.202 -3.393,-0.601 -1.074,-0.399 -2.207,-1 -3.391,-1.8 l -1.946,4.138 c 1.434,0.938 2.923,1.642 4.467,2.11 1.545,0.47 3.187,0.703 4.926,0.703 3.281,0 5.818,-0.772 7.61,-2.317 1.793,-1.545 2.691,-3.805 2.691,-6.785 V 3.102 c 0,-0.66 0.102,-1.123 0.309,-1.386 0.207,-0.261 0.57,-0.42 1.097,-0.476 v -5.585 c -0.578,-0.138 -1.105,-0.228 -1.573,-0.269 -0.467,-0.04 -0.895,-0.061 -1.281,-0.061 -1.243,0 -2.181,0.24 -2.813,0.724 -0.637,0.483 -1.036,1.166 -1.199,2.048 L 5.751,-0.91 C 4.785,-2.153 3.634,-3.102 2.296,-3.765 0.956,-4.427 -0.455,-4.759 -1.944,-4.759"
       style="fill:#2b398c;fill-opacity:1;fill-rule:nonzero;stroke:none"
       transform="matrix(0.35277776,0,0,-0.35277776,135.76311,15.471598)"
       clip-path="url(#clipPath29)" />
    <path
       id="path30"
       d="m 0,0 c -0.91,-0.386 -1.951,-0.744 -3.123,-1.077 -1.174,-0.33 -2.352,-0.496 -3.539,-0.496 -0.826,0 -1.606,0.105 -2.337,0.312 -0.732,0.205 -1.374,0.537 -1.924,0.992 -0.552,0.456 -0.987,1.054 -1.304,1.798 -0.317,0.747 -0.473,1.642 -0.473,2.691 v 11.334 h -2.775 v 5.007 h 2.775 v 6.91 h 6.618 v -6.91 h 4.427 V 15.554 H -6.082 V 6.496 c 0,-0.719 0.18,-1.236 0.538,-1.553 0.358,-0.317 0.813,-0.475 1.365,-0.475 0.496,0 1.005,0.081 1.532,0.248 0.522,0.166 0.977,0.345 1.363,0.537 z"
       style="fill:#2b398c;fill-opacity:1;fill-rule:nonzero;stroke:none"
       transform="matrix(0.35277776,0,0,-0.35277776,146.57846,16.595372)"
       clip-path="url(#clipPath31)" />
    <path
       id="path32"
       d="m 0,0 c 0.719,0 1.414,0.125 2.089,0.373 0.676,0.248 1.236,0.578 1.675,0.993 0.635,0.496 0.952,1.02 0.952,1.57 V 5.005 C 4.138,5.227 3.509,5.398 2.833,5.524 2.158,5.646 1.532,5.708 0.951,5.708 -0.263,5.708 -1.261,5.434 -2.048,4.882 -2.834,4.33 -3.225,3.613 -3.225,2.731 c 0,-0.8 0.302,-1.455 0.908,-1.967 C -1.711,0.253 -0.939,0 0,0 m -1.944,-4.759 c -1.076,0 -2.076,0.174 -2.999,0.519 -0.926,0.345 -1.716,0.826 -2.379,1.447 -0.662,0.622 -1.186,1.351 -1.573,2.192 -0.386,0.841 -0.578,1.759 -0.578,2.752 0,1.076 0.228,2.056 0.681,2.938 0.455,0.882 1.097,1.639 1.925,2.276 0.826,0.634 1.806,1.13 2.936,1.488 1.133,0.359 2.386,0.538 3.765,0.538 0.91,0 1.792,-0.077 2.649,-0.228 C 3.337,9.012 4.081,8.784 4.716,8.48 v 0.995 c 0,2.509 -1.448,3.764 -4.343,3.764 -1.186,0 -2.317,-0.202 -3.393,-0.601 -1.074,-0.399 -2.207,-1 -3.391,-1.8 l -1.946,4.138 c 1.434,0.938 2.923,1.642 4.467,2.11 1.545,0.47 3.187,0.703 4.926,0.703 3.281,0 5.818,-0.772 7.61,-2.317 1.793,-1.545 2.691,-3.805 2.691,-6.785 V 3.102 c 0,-0.66 0.102,-1.123 0.309,-1.386 0.207,-0.261 0.573,-0.42 1.097,-0.476 v -5.585 c -0.578,-0.138 -1.105,-0.228 -1.573,-0.269 -0.467,-0.04 -0.895,-0.061 -1.281,-0.061 -1.243,0 -2.181,0.24 -2.813,0.724 -0.637,0.483 -1.036,1.166 -1.199,2.048 L 5.751,-0.91 C 4.785,-2.153 3.634,-3.102 2.296,-3.765 0.959,-4.427 -0.455,-4.759 -1.944,-4.759"
       style="fill:#2b398c;fill-opacity:1;fill-rule:nonzero;stroke:none"
       transform="matrix(0.35277776,0,0,-0.35277776,150.56249,15.471598)"
       clip-path="url(#clipPath33)" />
    <path
       id="path34"
       d="m 0,0 h 9.391 c 0.854,0 1.634,0.187 2.337,0.557 0.703,0.374 1.304,0.87 1.8,1.491 0.496,0.622 0.883,1.338 1.159,2.151 0.276,0.813 0.414,1.66 0.414,2.545 0,0.91 -0.161,1.769 -0.476,2.585 -0.317,0.813 -0.746,1.524 -1.283,2.13 -0.537,0.606 -1.174,1.082 -1.903,1.427 -0.731,0.346 -1.499,0.517 -2.297,0.517 L 0,13.403 Z M -2.854,-13.403 V 15.971 H 9.309 c 1.268,0 2.432,-0.271 3.496,-0.809 1.061,-0.537 1.976,-1.24 2.751,-2.109 0.77,-0.87 1.371,-1.857 1.798,-2.959 0.427,-1.102 0.642,-2.22 0.642,-3.35 0,-1.215 -0.199,-2.379 -0.601,-3.496 C 16.996,2.13 16.423,1.143 15.679,0.289 14.935,-0.565 14.045,-1.256 13.012,-1.78 11.976,-2.304 10.825,-2.565 9.557,-2.565 H 0 v -10.838 z"
       style="fill:#2b398c;fill-opacity:1;fill-rule:nonzero;stroke:none"
       transform="matrix(0.35277776,0,0,-0.35277776,95.598653,26.198725)"
       clip-path="url(#clipPath35)" />
    <path
       id="path36"
       d="m 0,0 c 1.24,0 2.475,0.268 3.703,0.805 1.225,0.54 2.199,1.277 2.915,2.215 0.195,0.248 0.358,0.517 0.499,0.806 0.136,0.291 0.205,0.56 0.205,0.808 V 8.15 C 6.386,8.508 5.404,8.784 4.383,8.976 3.363,9.168 2.371,9.268 1.406,9.268 c -2.012,0 -3.649,-0.409 -4.902,-1.22 -1.256,-0.816 -1.882,-1.941 -1.882,-3.373 0,-0.581 0.11,-1.146 0.33,-1.696 0.222,-0.552 0.56,-1.048 1.015,-1.491 0.455,-0.442 1.013,-0.8 1.675,-1.074 C -1.696,0.138 -0.91,0 0,0 m -0.703,-2.153 c -1.105,0 -2.11,0.173 -3.021,0.519 -0.91,0.345 -1.69,0.821 -2.337,1.427 -0.65,0.606 -1.153,1.309 -1.509,2.11 -0.36,0.8 -0.539,1.641 -0.539,2.524 0,0.992 0.22,1.895 0.662,2.708 0.442,0.813 1.061,1.511 1.862,2.089 0.798,0.581 1.757,1.028 2.874,1.346 1.118,0.317 2.35,0.475 3.703,0.475 1.077,0 2.179,-0.097 3.309,-0.289 1.133,-0.192 2.138,-0.468 3.021,-0.829 v 1.947 c 0,1.902 -0.545,3.411 -1.634,4.529 -1.09,1.117 -2.558,1.675 -4.407,1.675 -1.158,0 -2.309,-0.22 -3.452,-0.66 -1.146,-0.442 -2.312,-1.077 -3.496,-1.903 l -0.995,1.859 c 1.409,0.939 2.772,1.642 4.097,2.11 1.325,0.471 2.703,0.706 4.138,0.706 2.618,0 4.7,-0.759 6.245,-2.276 1.544,-1.516 2.317,-3.613 2.317,-6.288 V 1.903 c 0,-0.773 0.332,-1.159 0.995,-1.159 V -1.739 C 10.907,-1.765 10.702,-1.785 10.508,-1.8 10.316,-1.813 10.15,-1.821 10.012,-1.821 9.46,-1.821 8.956,-1.655 8.501,-1.325 8.048,-0.992 7.792,-0.496 7.736,0.166 L 7.654,1.862 C 6.716,0.591 5.48,-0.394 3.951,-1.097 2.419,-1.8 0.869,-2.153 -0.703,-2.153"
       style="fill:#2b398c;fill-opacity:1;fill-rule:nonzero;stroke:none"
       transform="matrix(0.35277776,0,0,-0.35277776,105.74218,30.314477)"
       clip-path="url(#clipPath37)" />
    <path
       id="path38"
       d="M 0,0 C -1.903,-0.056 -3.557,-0.581 -4.964,-1.573 -6.37,-2.565 -7.365,-3.931 -7.943,-5.667 v -13.406 h -2.813 V 2.483 h 2.647 v -5.171 c 0.744,1.517 1.723,2.777 2.938,3.785 1.212,1.008 2.524,1.511 3.931,1.511 h 0.7 c 0.223,0 0.402,-0.015 0.54,-0.043 z"
       style="fill:#2b398c;fill-opacity:1;fill-rule:nonzero;stroke:none"
       transform="matrix(0.35277776,0,0,-0.35277776,115.49137,24.199321)"
       clip-path="url(#clipPath39)" />
    <path
       id="path40"
       d="m 455.007,755.285 h 2.813 v -21.553 h -2.813 z m 0,8.646 h 2.813 v -4.138 h -2.813 z"
       style="fill:#2b398c;fill-opacity:1;fill-rule:nonzero;stroke:none"
       transform="matrix(0.35277776,0,0,-0.35277776,-43.478093,289.77138)"
       clip-path="url(#clipPath41)" />
    <path
       id="path42"
       d="m 0,0 c -1.683,0 -3.325,0.276 -4.923,0.828 -1.601,0.55 -2.979,1.351 -4.138,2.399 l 1.284,1.903 c 1.212,-0.992 2.447,-1.739 3.701,-2.233 1.255,-0.498 2.6,-0.744 4.035,-0.744 1.737,0 3.123,0.35 4.158,1.054 1.033,0.703 1.55,1.703 1.55,3 0,0.606 -0.138,1.109 -0.414,1.508 -0.276,0.399 -0.68,0.752 -1.22,1.057 -0.537,0.301 -1.212,0.57 -2.026,0.805 -0.815,0.236 -1.759,0.476 -2.836,0.727 -1.24,0.301 -2.317,0.603 -3.227,0.907 -0.908,0.302 -1.662,0.647 -2.253,1.034 -0.593,0.388 -1.033,0.864 -1.325,1.429 -0.289,0.565 -0.435,1.274 -0.435,2.13 0,1.074 0.213,2.028 0.642,2.854 0.427,0.829 1.008,1.512 1.739,2.049 0.729,0.537 1.583,0.943 2.565,1.22 0.977,0.276 2.018,0.414 3.123,0.414 1.655,0 3.158,-0.269 4.509,-0.808 1.35,-0.537 2.442,-1.248 3.268,-2.13 L 6.411,17.748 c -0.798,0.829 -1.772,1.447 -2.915,1.862 -1.146,0.414 -2.338,0.621 -3.578,0.621 -0.747,0 -1.437,-0.077 -2.071,-0.228 C -2.785,19.85 -3.345,19.61 -3.828,19.28 -4.309,18.947 -4.69,18.528 -4.964,18.016 -5.24,17.508 -5.378,16.907 -5.378,16.219 c 0,-0.581 0.094,-1.051 0.289,-1.407 0.192,-0.361 0.511,-0.67 0.951,-0.933 0.44,-0.261 1,-0.496 1.675,-0.704 C -1.788,12.971 -0.967,12.756 0,12.536 1.378,12.206 2.591,11.874 3.639,11.541 4.688,11.211 5.565,10.825 6.268,10.385 6.971,9.943 7.501,9.406 7.859,8.772 8.219,8.137 8.398,7.365 8.398,6.455 8.398,4.468 7.639,2.897 6.122,1.739 4.606,0.581 2.565,0 0,0"
       style="fill:#2b398c;fill-opacity:1;fill-rule:nonzero;stroke:none"
       transform="matrix(0.35277776,0,0,-0.35277776,122.93459,31.073582)"
       clip-path="url(#clipPath43)" />
    <path
       id="path108"
       d="M 79.470605,8.4047891 72.919875,10.611414 68.558836,10.1461 66.265428,9.6920751 58.473273,10.718658 v 0.247298 l 7.784394,-1.0251725 2.264127,0.4476745 4.425245,0.472723 6.590594,-2.2200308 6.754636,-1.5426971 V 6.8465697 Z"
       style="fill:#f8b172;fill-opacity:1;fill-rule:nonzero;stroke:none;stroke-width:0.352778" />
    <path
       id="path109"
       d="m 79.74048,9.5550916 -2.572103,0.5722054 -3.715102,1.298222 -4.1148,-0.01799 -2.153708,-0.162278 -8.094133,-0.253647 -0.01976,-0.0011 -0.597605,0.176742 v 0.256469 l 0.629002,-0.185913 8.069086,0.252588 2.156883,0.162278 4.166306,0.01835 3.741561,-1.307748 2.548466,-0.5662079 6.506633,-0.9101666 V 8.638575 Z"
       style="fill:#f19e5b;fill-opacity:1;fill-rule:nonzero;stroke:none;stroke-width:0.352778" />
    <path
       id="path110"
       d="m 80.013213,10.706982 -2.463094,0.243064 -3.56482,1.28905 -3.869266,0.431447 -2.010128,0.125236 -8.969374,-1.463322 -0.66287,0.288572 v 0.267053 l 0.69462,-0.302331 8.911519,1.454503 0.01376,0.0025 2.043642,-0.127 3.889727,-0.432859 3.562703,-1.290461 2.440869,-0.240594 6.2611,-0.268817 v -0.246592 z"
       style="fill:#e89143;fill-opacity:1;fill-rule:nonzero;stroke:none;stroke-width:0.352778" />
    <path
       id="path111"
       d="m 58.473378,12.403384 v 0.278694 l 0.761294,-0.423686 9.752894,2.653947 0.02858,0.0081 1.9304,-0.420158 3.650545,-0.890764 3.339041,-1.261886 2.339269,0.08114 6.016625,0.377825 v -0.245181 l -6.00463,-0.378177 -2.392892,-0.0829 -3.369733,1.275644 -3.632905,0.884061 -1.86937,0.407106 -9.820274,-2.672292 z"
       style="fill:#e1812c;fill-opacity:1;fill-rule:nonzero;stroke:none;stroke-width:0.352778" />
    <path
       id="path112"
       d="m 58.473696,13.671162 v 0.295981 l 0.827264,-0.554214 10.639424,3.868561 8.340725,-3.297414 8.010524,1.440039 v -0.249767 l -8.001352,-1.437569 -0.03457,-0.0063 -8.318852,3.288947 -10.669058,-3.87985 z"
       style="fill:#dc751b;fill-opacity:1;fill-rule:nonzero;stroke:none;stroke-width:0.352778" />
    <path
       id="path113"
       d="m 0,0 c 9.153,-2.644 13.638,-3.841 14.792,-3.586 l 6.989,-1.404 21.768,8.864 2.568,0.791 27.1,-2.844 V 2.59 L 46.04,5.442 43.293,4.596 21.707,-4.192 14.848,-2.816 14.725,-2.78 14.602,-2.849 C 13.687,-3.153 5.25,-0.719 0.212,0.736 -2.818,1.611 -4.764,2.169 -5.642,2.36 V 1.578 C -4.637,1.34 -2.371,0.685 0,0"
       style="fill:#aa5841;fill-opacity:1;fill-rule:nonzero;stroke:none"
       transform="matrix(0.35277776,0,0,-0.35277776,60.462833,16.571207)"
       clip-path="url(#clipPath114)" />
    <path
       id="path115"
       d="m 0,0 c 6.831,-1.312 12.641,-2.33 14.472,-1.463 l 6.263,-0.01 22.331,9.337 2.682,0.613 L 77.24,7.368 V 8.204 L 45.723,9.316 45.669,9.319 42.846,8.672 20.569,-0.637 14.26,-0.627 14.165,-0.68 C 12.592,-1.568 4.81,-0.074 0.159,0.821 -0.476,0.944 -1.066,1.056 -1.616,1.158 V 0.309 C -1.107,0.212 -0.565,0.107 0,0"
       style="fill:#7d415d;fill-opacity:1;fill-rule:nonzero;stroke:none"
       transform="matrix(0.35277776,0,0,-0.35277776,59.043537,19.148989)"
       clip-path="url(#clipPath116)" />
    <path
       id="path117"
       d="m 0,0 5.532,1.363 22.898,9.81 2.788,0.44 35.91,1.071 v 0.908 L 31.136,12.513 28.233,12.058 5.278,2.235 -0.276,0.864 -0.391,0.818 C -2.66,-0.463 -7.498,-0.453 -11.728,-0.212 V -1.118 C -7.421,-1.361 -2.473,-1.355 0,0"
       style="fill:#553c7c;fill-opacity:1;fill-rule:nonzero;stroke:none"
       transform="matrix(0.35277776,0,0,-0.35277776,62.610649,21.703382)"
       clip-path="url(#clipPath118)" />
    <path
       id="path119"
       d="m 0,0 4.856,2.744 23.403,10.265 43.221,3.928 v 0.98 L 28.013,13.966 4.422,3.616 -0.478,0.849 c -2.179,-1.23 -6.897,-2.734 -6.897,-2.734 V -2.893 C -4.813,-2.274 -2.327,-1.315 0,0"
       style="fill:#2a3a88;fill-opacity:1;fill-rule:nonzero;stroke:none"
       transform="matrix(0.35277776,0,0,-0.35277776,61.07469,23.985501)"
       clip-path="url(#clipPath120)" />
    <path
       id="path121"
       d="M 0,0 0.176,0.089 C 3.33,1.708 4.255,2.084 4.519,2.174 l 0.025,-0.003 23.16,5.734 c 0.816,0.025 4.301,0.217 19.052,1.046 6.928,0.388 14.531,0.815 18.339,1.02 v 1.951 C 62.496,11.787 57.277,11.495 46.646,10.897 37.649,10.391 28.353,9.869 27.604,9.851 L 27.486,9.859 4.345,4.13 C 3.956,4.094 3.087,3.777 -0.714,1.826 L -0.882,1.739 C -4.051,0.133 -8.999,-1.445 -13.761,-2.1 v -1.966 c 0,0 10.319,2.319 13.761,4.066"
       style="fill:#2a3a88;fill-opacity:1;fill-rule:nonzero;stroke:none"
       transform="matrix(0.35277776,0,0,-0.35277776,63.327882,25.840407)"
       clip-path="url(#clipPath122)" />
    <path
       id="path123"
       d="m 0,0 c 4.729,1.281 9.396,3.046 11.388,4.056 0.997,0.504 3.524,1.568 4.186,1.647 L 15.615,5.7 38.383,6.843 c 0.801,-0.02 4.557,0.013 15.265,0.123 5.823,0.059 12.651,0.13 16.428,0.151 V 10.04 C 67.448,10.025 62.614,9.981 53.617,9.889 46.434,9.818 39.01,9.743 38.486,9.764 L 38.388,9.772 15.61,8.628 C 13.996,8.621 10.104,6.685 10.066,6.662 6.125,4.664 -8.779,1.36 -8.779,1.36 v -2.91 c 0,0 5.15,0.568 8.779,1.55"
       style="fill:#2a3a88;fill-opacity:1;fill-rule:nonzero;stroke:none"
       transform="matrix(0.35277776,0,0,-0.35277776,61.57045,29.124344)"
       clip-path="url(#clipPath124)" />
    <path
       id="path125"
       d="m 0,0 c 4.739,1.726 9.541,3.711 10.636,4.268 1.118,0.565 3.107,1.159 3.823,1.123 L 36.726,1.967 36.857,1.951 C 37.271,1.918 40.391,1.749 45.869,1.455 51.313,1.161 58.727,0.762 62.918,0.516 V 4.422 C 60.031,4.593 54.986,4.869 46.078,5.35 41.864,5.575 37.874,5.79 37.245,5.833 L 14.968,9.26 14.838,9.275 C 12.948,9.434 9.951,8.291 8.871,7.746 6.452,6.519 -12.894,-0.685 -15.937,-0.207 c -0.006,0.002 0,0 0,0 v -3.969 c 0,0 8.649,1.521 15.937,4.176"
       style="fill:#2a3a88;fill-opacity:1;fill-rule:nonzero;stroke:none"
       transform="matrix(0.35277776,0,0,-0.35277776,64.095703,31.949107)"
       clip-path="url(#clipPath126)" />
    <path
       id="path127"
       d="m 0,0 19.467,8.8 c 1.069,0.483 2.245,0.711 3.414,0.657 L 44.83,1.453 45.155,1.424 c 0.936,-0.079 20.288,-2.987 20.288,-2.987 v 4.931 c 0,0 -17.217,2.588 -19.516,2.874 l -22.011,8.028 -0.324,0.025 c -2.095,0.177 -4.215,-0.186 -6.133,-1.053 L -2.008,4.442 C -5.608,2.815 -13.413,1.598 -13.413,1.598 v -4.889 c 0,0 9.183,1.378 13.413,3.291"
       style="fill:#2a3a88;fill-opacity:1;fill-rule:nonzero;stroke:none"
       transform="matrix(0.35277776,0,0,-0.35277776,63.20547,36.568097)"
       clip-path="url(#clipPath128)" />
  </g>
</svg>
