<?xml version="1.0" encoding="UTF-8" standalone="no"?>
<!-- Uploaded to: SVG Repo, www.svgrepo.com, Generator: SVG Repo Mixer Tools -->

<svg
   fill="#000000"
   height="800px"
   width="800px"
   version="1.1"
   id="Capa_1"
   viewBox="0 0 489.698 489.698"
   xml:space="preserve"
   xmlns="http://www.w3.org/2000/svg"
   xmlns:svg="http://www.w3.org/2000/svg"><defs
   id="defs5" />&#10;<g
   id="g5">&#10;	<g
   id="g4">&#10;		<g
   id="g3"
   style="fill:#eee8d5;fill-opacity:1">&#10;			<path
   d="M275.539,300.298c-15.2-40.4-0.8-89.8,33.4-115.9c76.7-34.7,71.9-95.7,58.7-127.2c-10.8-25.6-45.1-74.6-118.1-50.9     c-55.6,16.7-104.2,55.6-135.3,105.4c-33.1,52.5-74.3,233.3,33.1,319.3c31.5,25.3,129.2,55.4,169.6-12.4     C333.839,376.498,282.939,320.498,275.539,300.298z"
   id="path1"
   style="fill:#eee8d5;fill-opacity:1" />&#10;			<path
   d="m 331.939,232.298 h -35.4 c -5.4,12.4 -7.8,26.1 -7,39.7 h 42 c 22.2,0 40.4,17.9 40.4,40.4 0,0 -7.23789,150.17254 13.03025,150.17254 20.26814,0 -4.48099,1.04486 16.42803,1.04486 20.90902,0 10.24172,-151.6174 10.24172,-151.6174 0,-44 -35.7,-79.7 -79.7,-79.7 z"
   id="path2"
   style="fill:#eee8d5;fill-opacity:1" />&#10;			<path
   d="M321.839,199.598h86.7v-39.7h-33.8C368.139,172.398,326.939,196.098,321.839,199.598z"
   id="path3"
   style="fill:#eee8d5;fill-opacity:1" />&#10;		</g>&#10;	</g>&#10;</g>&#10;</svg>
