<?xml version="1.0" encoding="UTF-8" standalone="no"?>
<!-- Created with Inkscape (http://www.inkscape.org/) -->

<svg
   width="27.885302mm"
   height="27.885302mm"
   viewBox="0 0 27.885302 27.885302"
   version="1.1"
   id="svg1"
   inkscape:version="1.4.2 (f4327f4, 2025-05-13)"
   sodipodi:docname="logo_efs_sansdetourage.svg"
   xmlns:inkscape="http://www.inkscape.org/namespaces/inkscape"
   xmlns:sodipodi="http://sodipodi.sourceforge.net/DTD/sodipodi-0.dtd"
   xmlns="http://www.w3.org/2000/svg"
   xmlns:svg="http://www.w3.org/2000/svg">
  <sodipodi:namedview
     id="namedview1"
     pagecolor="#ffffff"
     bordercolor="#000000"
     borderopacity="0.25"
     inkscape:showpageshadow="2"
     inkscape:pageopacity="0.0"
     inkscape:pagecheckerboard="0"
     inkscape:deskcolor="#d1d1d1"
     inkscape:document-units="mm"
     inkscape:zoom="2.0334082"
     inkscape:cx="107.20917"
     inkscape:cy="127.61825"
     inkscape:window-width="1920"
     inkscape:window-height="1009"
     inkscape:window-x="1912"
     inkscape:window-y="-8"
     inkscape:window-maximized="1"
     inkscape:current-layer="layer1" />
  <defs
     id="defs1">
    <clipPath
       clipPathUnits="userSpaceOnUse"
       id="clipPath102">
      <path
         d="M 0,0 H 1920 V 1080 H 0 Z"
         transform="translate(-899.61355,-756.58732)"
         id="path102" />
    </clipPath>
    <clipPath
       clipPathUnits="userSpaceOnUse"
       id="clipPath107">
      <path
         d="M 0,0 H 1920 V 1080 H 0 Z"
         transform="translate(-976.69645,-561.74932)"
         id="path107" />
    </clipPath>
    <clipPath
       clipPathUnits="userSpaceOnUse"
       id="clipPath109">
      <path
         d="M 0,0 H 1920 V 1080 H 0 Z"
         transform="translate(-858.42925,-565.27111)"
         id="path109" />
    </clipPath>
    <clipPath
       clipPathUnits="userSpaceOnUse"
       id="clipPath111">
      <path
         d="M 0,0 H 1920 V 1080 H 0 Z"
         transform="translate(-853.43552,-538.50502)"
         id="path111" />
    </clipPath>
    <clipPath
       clipPathUnits="userSpaceOnUse"
       id="clipPath113">
      <path
         d="M 0,0 H 1920 V 1080 H 0 Z"
         transform="translate(-927.2086,-544.51141)"
         id="path113" />
    </clipPath>
    <clipPath
       clipPathUnits="userSpaceOnUse"
       id="clipPath115">
      <path
         d="M 0,0 H 1920 V 1080 H 0 Z"
         transform="translate(-968.98292,-541.68952)"
         id="path115" />
    </clipPath>
    <clipPath
       clipPathUnits="userSpaceOnUse"
       id="clipPath119">
      <path
         d="M 0,0 H 1920 V 1080 H 0 Z"
         transform="translate(-900.92762,-608.51651)"
         id="path119" />
    </clipPath>
    <clipPath
       clipPathUnits="userSpaceOnUse"
       id="clipPath123">
      <path
         d="M 0,0 H 1920 V 1080 H 0 Z"
         transform="translate(-928.9327,-605.82731)"
         id="path123" />
    </clipPath>
    <clipPath
       clipPathUnits="userSpaceOnUse"
       id="clipPath127">
      <path
         d="M 0,0 H 1920 V 1080 H 0 Z"
         transform="translate(-953.59952,-610.07432)"
         id="path127" />
    </clipPath>
    <clipPath
       clipPathUnits="userSpaceOnUse"
       id="clipPath129">
      <path
         d="M 0,0 H 1920 V 1080 H 0 Z"
         transform="translate(-964.11685,-604.55921)"
         id="path129" />
    </clipPath>
    <clipPath
       clipPathUnits="userSpaceOnUse"
       id="clipPath131">
      <path
         d="M 0,0 H 1920 V 1080 H 0 Z"
         transform="translate(-973.22635,-612.85931)"
         id="path131" />
    </clipPath>
    <clipPath
       clipPathUnits="userSpaceOnUse"
       id="clipPath133">
      <path
         d="M 0,0 H 1920 V 1080 H 0 Z"
         transform="translate(-990.1093,-610.07432)"
         id="path133" />
    </clipPath>
    <clipPath
       clipPathUnits="userSpaceOnUse"
       id="clipPath137">
      <path
         d="M 0,0 H 1920 V 1080 H 0 Z"
         transform="translate(-1016.2927,-602.73722)"
         id="path137" />
    </clipPath>
    <clipPath
       clipPathUnits="userSpaceOnUse"
       id="clipPath140">
      <path
         d="M 0,0 H 1920 V 1080 H 0 Z"
         transform="translate(-947.3386,-674.70071)"
         id="path140" />
    </clipPath>
    <clipPath
       clipPathUnits="userSpaceOnUse"
       id="clipPath143">
      <path
         d="M 0,0 H 1920 V 1080 H 0 Z"
         transform="translate(-899.66132,-718.42002)"
         id="path143" />
    </clipPath>
    <clipPath
       clipPathUnits="userSpaceOnUse"
       id="clipPath149">
      <path
         d="M 0,0 H 1920 V 1080 H 0 Z"
         transform="translate(-805.92692,-604.44802)"
         id="path149" />
    </clipPath>
    <clipPath
       clipPathUnits="userSpaceOnUse"
       id="clipPath153">
      <path
         d="M 0,0 H 1920 V 1080 H 0 Z"
         transform="translate(-828.60415,-610.07432)"
         id="path153" />
    </clipPath>
    <clipPath
       clipPathUnits="userSpaceOnUse"
       id="clipPath155">
      <path
         d="M 0,0 H 1920 V 1080 H 0 Z"
         transform="translate(-836.91085,-610.07432)"
         id="path155" />
    </clipPath>
  </defs>
  <g
     inkscape:label="Calque 1"
     inkscape:groupmode="layer"
     id="layer1"
     transform="translate(-4.534564,-4.9065086)">
    <path
       id="path101"
       d="m 0,0 c -36.197,0 -70.225,-14.095 -95.819,-39.687 -25.593,-25.594 -39.686,-59.621 -39.686,-95.815 0,-36.191 14.093,-70.219 39.686,-95.809 C -70.225,-256.906 -36.197,-271 0,-271 c 36.19,0 70.218,14.094 95.809,39.689 25.594,25.59 39.686,59.618 39.686,95.809 0,36.194 -14.092,70.221 -39.686,95.815 C 70.218,-14.095 36.194,0 0,0"
       style="fill:#ffffff;fill-opacity:1;fill-rule:nonzero;stroke:none"
       transform="matrix(0.10289779,0,0,-0.10289779,18.477729,4.9065086)"
       clip-path="url(#clipPath102)" />
    <path
       id="path103"
       d="M 6.0695349,21.384081 H 30.884264 V 21.23632 H 6.0695349 Z"
       style="fill:#e30015;fill-opacity:1;fill-rule:nonzero;stroke:none;stroke-width:0.102898" />
    <path
       id="path104"
       d="m 10.302168,18.037131 h 1.08197 l -1.08197,-0.720592 -1.0822801,0.720592 z"
       style="fill:#e30015;fill-opacity:1;fill-rule:nonzero;stroke:none;stroke-width:0.102898" />
    <path
       id="path105"
       d="m 26.652986,17.316527 h 1.081456 l -1.081456,0.720593 -1.08125,-0.720593 z"
       style="fill:#e30015;fill-opacity:1;fill-rule:nonzero;stroke:none;stroke-width:0.102898" />
    <path
       id="path106"
       d="m 0,0 c -0.648,-2.131 -1.785,-4.566 1.182,-4.718 1.947,-0.099 4.535,1.104 5.966,1.916 1.074,0.61 1.189,1.022 1.057,1.952 C 8.159,-0.52 7.874,-0.323 7.556,-0.443 7.073,-0.631 6.538,-0.972 5.714,-1.331 4.568,-1.832 3.442,-2.034 2.795,-1.91 1.604,-1.681 3.297,1.354 3.636,3.205 4.288,6.744 1.818,7.05 -1.65,7.869 c 0,0 -0.354,1.123 -1.058,1.265 C -4.047,9.407 -5.083,8.091 -4.471,6.732 -4.283,6.317 -4.031,6.021 -3.687,5.842 -3.85,5.387 -4.353,4.116 -4.521,3.718 -6.558,-1.066 -8.319,-2.656 -9.444,-2.44 c -1.06,0.205 -0.546,4.006 0.29,7.006 0.697,2.498 0.946,3.207 0.433,3.539 -0.549,0.355 -2.724,0.531 -3.709,-1.081 -0.862,-1.411 -5.168,-9.138 -7.824,-8.771 -1.683,0.231 2.187,7.374 3.028,9.088 0.513,1.043 -0.579,1.613 -1.587,1.404 -0.358,-0.076 -0.69,-0.299 -0.972,-0.541 -1.91,-1.642 -6.793,-10.319 -11.528,-10.714 -1.521,-0.127 -1.941,0.645 -1.921,0.655 5.638,2.519 6.924,6.194 6.833,7.741 -0.081,1.392 -1.268,2.892 -3.191,2.932 -0.794,0.016 -1.436,-0.113 -2.274,-0.497 -3.194,-1.469 -4.877,-6.124 -4.439,-9.359 0,0 -2.199,-1.164 -3.487,-1.335 -0.753,-0.101 -0.676,0.671 -0.476,1.549 0.546,2.423 1.121,4.073 1.385,5.681 0.115,0.712 0.257,1.533 0.17,2.16 -0.13,0.949 -0.942,1.549 -1.957,1.433 -1.394,-0.162 -4.389,-4.165 -7.097,-7.068 -0.017,-0.017 -0.037,0 -0.031,0.026 0.794,3.071 1.548,6.894 -0.285,6.904 -2.531,0.014 -6.927,-10.403 -9.187,-10.403 -1.744,0 2.423,10.541 -0.982,10.541 -2.378,0 -7.226,-6.414 -8.189,-7.861 -0.051,-0.074 -0.052,-0.055 -0.009,0.035 0.763,1.606 3.539,8.098 0.555,8.098 -0.313,0 -3.308,-0.18 -6.698,-1.439 -0.603,0.367 -1.389,0.645 -2.388,0.602 -3.473,-0.15 -8.545,-3.99 -8.672,-8.709 -2.243,-1.291 -5.549,-0.137 -2.87,4.613 0.726,1.358 6.351,10.863 6.96,12.017 0.361,0.683 0.895,1.324 0.565,2.252 -0.193,0.545 -0.527,1.092 -1.073,1.149 -0.575,0.061 -1.437,-1.388 -1.599,-1.656 -0.627,-1.027 -4.985,-8.112 -5.208,-8.484 -0.207,-0.338 -0.429,-0.732 -0.648,-1.149 -0.537,0.94 -1.644,1.691 -3.478,1.687 -3.458,-0.003 -9.705,-5.96 -9.517,-10.893 0.055,-1.399 0.912,-3.417 4.109,-3.417 2.34,0 4.9,1.839 6.503,4.168 0.002,-0.016 0.002,-0.033 0.003,-0.05 0.112,-1.614 1.031,-2.856 1.975,-3.322 1.674,-0.826 3.725,0.076 4.78,0.855 0.53,-0.902 1.551,-1.651 3.475,-1.651 4.771,0 9.094,5.593 8.489,10.052 -0.012,0.102 -0.053,0.2 -0.085,0.299 1.42,0.441 3.077,0.58 3.826,0.528 -0.853,-2.901 -3.449,-10.36 -1.27,-10.334 2.056,0.025 7.382,8.457 8.228,8.414 1.367,-0.072 -1.64,-8.899 2.21,-8.899 3.666,0 8.154,8.003 8.747,9.053 0.045,0.08 0.048,0.044 0.04,0.002 -1.162,-4.947 -1.718,-8.267 -0.353,-8.267 1.288,0 4.027,4.229 7.97,8.934 0.019,0.025 0.033,0.004 0.027,-0.019 -0.307,-1.38 -1.34,-5.842 -1.394,-7.794 -0.038,-1.497 1.095,-2.048 2.623,-1.879 1.137,0.123 2.726,0.647 5.066,1.843 0.497,-1.297 2.355,-2.344 3.961,-2.203 3.477,0.299 6.89,3.637 9.847,7.478 0.049,0.064 0.078,0.082 0.035,-0.021 -0.523,-1.204 -2.859,-7.043 0.93,-7.293 4.89,-0.322 8.262,7.855 8.759,8.866 0.03,0.056 0.031,0.026 0.021,-0.015 -1.893,-7.247 -0.007,-8.784 2.44,-8.77 5.161,0.033 7.555,10.126 7.555,10.126 C -1.196,5.293 0.749,4.977 0.921,3.44 0.994,2.797 0.395,1.292 0,0 m -96.196,-1.516 c -0.718,0 -1.382,0.339 -1.44,1.198 -0.21,3.018 4.316,7.742 6.574,7.987 0.977,0.106 1.81,-0.434 1.925,-1.304 0.206,-1.585 -4.755,-7.881 -7.059,-7.881 m 16.72,-0.292 c -0.72,0.046 -1.361,0.492 -1.42,1.349 -0.179,2.528 3.241,5.681 5.482,6.451 -0.108,-0.383 -0.09,-1.102 0.325,-1.577 0.422,-0.476 1.081,-0.579 1.523,-0.48 0.532,0.115 0.839,0.23 1.001,0.301 -1.297,-4.542 -4.818,-6.171 -6.911,-6.044 m 50.508,8.862 c 1.764,-0.937 -1.083,-5.1 -4.973,-6.998 0.151,4.493 3.532,7.763 4.973,6.998"
       style="fill:#e30015;fill-opacity:1;fill-rule:nonzero;stroke:none"
       transform="matrix(0.10289779,0,0,-0.10289779,26.409388,24.954909)"
       clip-path="url(#clipPath107)" />
    <path
       id="path108"
       d="m 0,0 c -1.928,-4.712 -2.715,-8.257 0.747,-8.257 1.954,0 4.21,0.918 5.78,1.77 1.08,0.603 1.419,0.859 1.193,1.769 C 7.594,-4.219 7.262,-4.099 6.936,-4.191 6.31,-4.373 5.976,-4.493 5.039,-4.867 3.657,-5.422 1.653,-5.872 1.006,-5.55 0.07,-5.081 1.881,-1.773 3.091,1.158 4.027,3.431 4.088,4.389 3.57,4.723 3.026,5.076 1.641,5.343 0.259,3.722 -0.815,2.458 -5.967,-5.427 -7.998,-4.914 c -1.781,0.452 2.036,6.494 2.881,8.21 0.511,1.046 -0.206,1.802 -1.278,1.427 -0.923,-0.325 -3.704,-3.666 -8.738,-4.923 1.208,1.316 2.591,3.395 2.591,6.718 0,6.764 -7.783,11.829 -19.023,11.186 -4.126,-0.235 -10.468,-1.342 -11.747,-2.581 -0.203,-0.2 -0.273,-0.494 -0.289,-0.764 -0.034,-0.697 0.176,-1.232 0.176,-1.232 l 2.578,0.645 c 1.644,0.341 6.04,1.476 10.043,1.431 0.306,0 0.602,-0.014 0.894,-0.037 0,0 -7.973,-13.909 -8.61,-16.086 -0.22,-0.754 -0.283,-1.496 0.072,-2.221 0.578,-1.027 1.698,-0.598 1.785,0.115 0.061,0.441 0.273,0.857 0.48,1.246 0.419,0.791 9.186,16.289 9.223,16.285 4.975,-0.403 10.647,-3.043 10.647,-8.658 0,-9.139 -21.395,-12.576 -25.377,-12.576 -1.653,0 -2.397,-0.135 -2.46,-0.792 -0.04,-0.421 -0.17,-1.393 3.779,-1.32 4.822,0.087 8.768,1.165 11.596,1.739 3.506,0.711 13.124,4.071 19.182,6.899 0.519,0.243 -4.445,-8.238 0.806,-8.238 3.996,0 8.069,7.129 8.759,8.457 C -0.005,0.061 0.012,0.03 0,0"
       style="fill:#e30015;fill-opacity:1;fill-rule:nonzero;stroke:none"
       transform="matrix(0.10289779,0,0,-0.10289779,14.239954,24.592525)"
       clip-path="url(#clipPath109)" />
    <path
       id="path110"
       d="M 0,0 C 0.84,2.533 1.013,3.457 0.49,3.814 -0.063,4.193 -1.634,4.21 -2.87,2.74 c 0,0 -0.026,-0.028 -0.056,-0.07 -1.183,-1.618 -4.627,-8.669 -7.443,-8.324 -1.462,0.173 1.572,6.615 2.422,8.515 0.514,1.158 -0.374,1.921 -1.468,1.575 -0.363,-0.113 -0.596,-0.245 -0.98,-0.598 -2.185,-1.823 -5.654,-9.284 -8.451,-9.284 -0.911,0 -0.939,2.129 0.756,5.693 0.344,0.727 1.14,2.426 0.921,3.052 -0.37,1.045 -1.076,1.273 -1.076,1.273 -0.502,0.085 -1.154,-0.955 -1.547,-1.765 -0.547,1.021 -1.672,1.728 -3.457,1.728 -2.922,0 -8.288,-4.286 -8.099,-9.746 0.053,-1.551 0.793,-3.845 4.005,-3.845 1.996,0 4.075,1.469 5.587,3.495 0.035,-2.24 0.979,-3.285 2.284,-3.252 0,0 0.48,0.019 1.043,0.237 0.812,0.313 1.681,0.923 2.472,1.847 2.214,2.274 4.144,5.613 4.377,5.747 0.518,0.294 -3.541,-7.897 0.961,-7.897 4.028,0 7.217,6.71 7.848,8.13 0.005,0.012 0.028,0.012 0.023,-0.004 -1.452,-4.345 -1.198,-7.952 2.27,-8.47 2.305,-0.341 5.109,0.424 8.171,3.367 1.424,-5.29 7.282,-2.879 9.222,-0.469 0.813,1.01 0.695,1.59 0.471,1.948 -0.257,0.44 -0.774,0.476 -1.617,-0.226 -1.394,-1.166 -3.12,-2.31 -4.397,-2.126 -3.633,0.524 0.185,8.45 5.833,8.321 1.963,-0.043 0.495,2.356 -1.335,2.356 -2.532,0 -4.782,-2.446 -5.741,-4.016 C 10.21,3.715 6.358,5.418 3.12,2.102 2.3,1.26 1.677,0.254 2.173,-0.82 2.524,-1.577 3.699,-1.458 4.153,-0.787 6.119,2.159 7.646,2.195 7.671,-0.325 7.704,-3.906 4.253,-6.946 0.942,-6.809 -1.519,-6.708 -1.309,-4.191 0,0 m -27.023,-5.919 c -0.732,0 -1.502,0.607 -1.563,1.528 -0.212,3.237 3.425,7.094 5.737,7.094 1.004,0 1.972,-0.626 2.093,-1.554 0.212,-1.702 -3.92,-7.068 -6.267,-7.068"
       style="fill:#e30015;fill-opacity:1;fill-rule:nonzero;stroke:none"
       transform="matrix(0.10289779,0,0,-0.10289779,13.726112,27.346696)"
       clip-path="url(#clipPath111)" />
    <path
       id="path112"
       d="m 0,0 c -0.881,0.149 -1.493,-0.217 -1.625,-1.001 -0.131,-0.76 0.332,-1.259 1.093,-1.412 0.839,-0.17 1.761,0.073 1.921,1.012 C 1.493,-0.777 0.892,-0.15 0,0"
       style="fill:#e30015;fill-opacity:1;fill-rule:nonzero;stroke:none"
       transform="matrix(0.10289779,0,0,-0.10289779,21.317198,26.728652)"
       clip-path="url(#clipPath113)" />
    <path
       id="path114"
       d="m 0,0 c -0.52,0.08 -1.806,0.13 -2.197,-0.506 -1.264,-2.054 -4.417,-9.2 -7.037,-9.2 -1.592,0 -1.741,1.401 -0.418,5.129 0.863,2.429 2.245,5.37 3.427,8.027 0.108,0.245 0.209,0.55 0.428,0.569 1.766,0.142 6.16,0.438 7.467,1.408 C 1.848,5.564 2.048,5.814 2.058,6.053 2.048,6.341 1.622,6.402 1.408,6.407 0.384,6.412 -0.631,6.346 -1.648,6.339 -3.549,6.32 -2.873,6.325 -4.817,6.322 c 0.49,1.017 0.96,2.006 1.441,2.981 0.353,0.709 0.094,1.307 -0.537,1.443 -0.452,0.094 -1.098,-0.136 -1.488,-0.772 -0.222,-0.363 -1.95,-3.299 -2.174,-3.565 -0.284,-0.117 -2.86,-0.104 -4.002,-0.056 -0.745,0.033 -1.006,-0.391 -0.699,-1.076 0.247,-0.546 0.948,-0.944 1.69,-1.079 0.471,-0.087 1.358,-0.071 1.994,-0.094 0,0 -3.131,-6.025 -4.568,-9.572 -0.308,-0.755 -0.494,-1.483 -0.572,-2.165 -1.153,-1.075 -1.827,-1.294 -2.335,-1.294 -1.237,0 -0.624,2.72 -0.333,5.188 0.083,0.706 0.255,1.519 0.173,2.145 -0.191,1.333 -1.18,2.201 -2.664,1.325 -0.701,-0.416 -1.241,-0.955 -2.024,-1.716 -0.629,-0.659 -5.687,-5.953 -5.407,-5.349 2.259,3.797 3.085,6.68 1.595,6.68 -1.934,0 -4.827,-9.876 -10.653,-9.876 -1.323,0 -1.817,0.914 -1.817,0.914 5.305,2.376 6.663,5.7 6.663,7.313 0,1.384 -1.198,2.929 -3.101,2.929 -0.652,0 -1.417,-0.138 -2.258,-0.494 -3.247,-1.378 -4.789,-5.727 -4.353,-8.94 0,0 -2.421,-1.029 -3.162,-1.029 -1.964,0 -1.07,2.987 -0.198,5.26 0.548,1.415 0.494,1.208 0.708,1.66 0.469,0.979 0.399,1.325 0.104,1.645 -0.278,0.293 -0.887,0.9 -1.406,0.229 -0.974,-1.345 -2.505,-4.592 -3.006,-6.984 -0.975,-0.788 -3.292,-1.81 -4.118,-1.81 -1.946,0 -1.053,2.981 -0.194,5.26 0.912,2.41 2.242,5.37 3.426,8.027 0.108,0.245 0.24,0.555 0.429,0.569 1.77,0.116 6.16,0.438 7.462,1.408 0.185,0.137 0.392,0.398 0.397,0.626 -0.005,0.283 -0.442,0.349 -0.654,0.354 -1.02,0.005 -2.039,-0.061 -3.056,-0.068 -1.896,-0.019 -1.229,-0.014 -3.167,-0.017 0.489,1.017 0.955,2.006 1.441,2.981 0.35,0.709 -0.083,1.243 -0.577,1.434 -0.434,0.167 -1.048,-0.12 -1.45,-0.763 -0.285,-0.462 -1.891,-3.125 -2.176,-3.565 -0.28,-0.117 -2.856,-0.104 -3.998,-0.056 -0.749,0.033 -1.008,-0.391 -0.702,-1.076 0.249,-0.546 0.953,-0.944 1.691,-1.079 0.47,-0.087 1.447,-0.047 1.994,-0.094 0,0 -3.131,-6.025 -4.57,-9.572 -0.217,-0.538 -0.379,-1.063 -0.495,-1.572 -1.77,-1.846 -2.589,-1.948 -3.199,-1.87 -0.891,0.111 -1.274,2.329 0.397,5.522 0.342,0.652 1.135,2.176 0.914,2.733 -0.348,0.874 -0.973,0.956 -0.973,0.956 -0.494,0.074 -1.139,-0.855 -1.527,-1.584 -0.54,0.918 -1.663,1.641 -3.431,1.641 -2.835,0 -7.944,-4.217 -7.935,-8.988 -1.013,-0.638 -2.428,-1.401 -2.932,-0.409 -0.664,1.321 4.623,9.341 -0.04,9.567 -1.561,0.079 -3.044,-0.773 -4.395,-1.8 0.364,1.256 0.868,3.066 0.88,3.34 0.028,0.781 -0.701,1.308 -1.288,1.346 -0.372,0.024 -0.636,-0.026 -1.045,-0.563 -0.455,-0.6 -1.636,-2.204 -2.117,-2.79 -1.669,-2.001 -3.548,-3.963 -7.643,-7.052 -0.579,-0.421 -0.836,-0.876 -0.384,-1.471 0.499,-0.655 1.145,-0.561 2.03,-0.224 1.299,0.494 4.881,3.021 5.898,4.594 0.043,-0.318 -0.066,-0.57 -0.257,-0.931 -2.097,-4.005 -4.15,-7.624 -6.016,-10.917 -0.741,-1.305 -1.224,-2.211 -1.897,-3.558 -0.349,-0.691 -0.087,-1.279 0.534,-1.658 0.662,-0.408 1.383,-0.023 1.696,0.588 0.477,0.928 0.923,1.851 1.478,2.734 2.046,3.803 4.717,8.171 6.657,11.589 1.888,2.755 2.99,4.053 4.549,4.053 2.521,0 -1.135,-4.851 -1.559,-7.196 -0.838,-4.599 3.863,-2.722 6.359,-1.295 0.523,-0.89 1.538,-1.632 3.441,-1.632 1.975,0 4.033,1.321 5.53,3.141 0.074,-3.894 3.725,-3.605 6.221,-0.485 0.367,-1.453 1.514,-2.401 3.588,-2.401 2,0 4.064,1.618 4.603,2.09 0.714,-1.961 2.393,-2.09 3.311,-2.09 1.716,0 4.559,1.627 4.573,1.596 0.892,-1.505 2.667,-2.183 4.262,-2.044 2.194,0.187 4.285,1.526 6.215,3.497 0.015,0.017 0.04,0.033 0.02,-0.005 -0.217,-0.431 -1.409,-2.964 0.778,-2.964 0.667,0 1.183,0.47 1.5,0.788 3.151,3.153 7.537,7.681 7.864,7.975 -0.303,-1.318 -0.578,-5.165 -0.506,-6.383 0.196,-3.346 3.539,-3.072 5.918,-0.376 0.164,-0.372 0.388,-0.717 0.588,-0.931 0.61,-0.659 1.653,-1.172 3.129,-1.153 5.018,0.068 9.214,9.894 9.214,9.894 0,0 1.215,-3.681 2.316,-6.522 0.323,-0.837 0.005,-1.187 -0.567,-1.387 -1.716,-0.603 -3.218,0.883 -3.544,1.158 -0.214,0.182 -0.835,-1.005 -0.81,-1.542 0.038,-0.834 1.302,-1.995 3.054,-2.021 3.574,-0.06 4.156,2.216 3.516,4.621 C 2.998,-6.174 2.114,-3.052 1.403,-1.196 1.057,-0.295 0.497,-0.078 0,0 m -67.008,-9.527 c -0.718,0 -1.472,0.575 -1.529,1.429 -0.211,2.995 3.549,6.737 5.805,6.737 0.979,0 1.671,-0.351 1.784,-1.212 0.207,-1.574 -3.774,-6.954 -6.06,-6.954 m 33.894,8.475 c 1.754,-0.928 -0.926,-4.785 -4.785,-6.666 0.149,4.457 3.356,7.426 4.785,6.666"
       style="fill:#e30015;fill-opacity:1;fill-rule:nonzero;stroke:none"
       transform="matrix(0.10289779,0,0,-0.10289779,25.615683,27.019018)"
       clip-path="url(#clipPath115)" />
    <path
       id="path116"
       d="m 21.516951,21.023412 0.09765,-0.218042 h 0.165767 l -0.09765,0.218042 z"
       style="fill:#00306c;fill-opacity:1;fill-rule:nonzero;stroke:none;stroke-width:0.102898" />
    <path
       id="path117"
       d="m 17.548113,20.724852 v -1.029183 h 0.689826 v 0.173692 h -0.46304 v 0.236458 h 0.383707 v 0.173485 h -0.383707 v 0.445548 z"
       style="fill:#00306c;fill-opacity:1;fill-rule:nonzero;stroke:none;stroke-width:0.102898" />
    <path
       id="path118"
       d="m 0,0 h 1.132 c 0.971,0 1.561,0.403 1.561,1.382 0,0.977 -0.59,1.384 -1.561,1.384 H 0 Z m 2.964,-5.658 -1.912,4.08 H 0 v -4.08 H -2.199 V 4.344 h 3.183 c 2.652,0 3.911,-1.114 3.911,-2.99 0,-1.251 -0.508,-2.141 -1.735,-2.555 l 2.168,-4.457 z"
       style="fill:#00306c;fill-opacity:1;fill-rule:nonzero;stroke:none"
       transform="matrix(0.10289779,0,0,-0.10289779,18.612942,20.142667)"
       clip-path="url(#clipPath119)" />
    <path
       id="path120"
       d="m 19.578498,20.333781 h 0.225141 l -0.110307,-0.416223 h -0.0031 z m -0.3232,0.391319 0.293875,-1.029285 h 0.289966 l 0.285746,1.029285 h -0.215982 l -0.05762,-0.217627 h -0.31394 l -0.06441,0.217627 z"
       style="fill:#00306c;fill-opacity:1;fill-rule:nonzero;stroke:none;stroke-width:0.102898" />
    <path
       id="path121"
       d="m 20.273274,20.724852 v -1.029183 h 0.248292 l 0.314765,0.609361 h 0.0032 v -0.609361 h 0.206926 v 1.029183 H 20.83027 L 20.483607,20.06044 h -0.003 v 0.664412 z"
       style="fill:#00306c;fill-opacity:1;fill-rule:nonzero;stroke:none;stroke-width:0.102898" />
    <path
       id="path122"
       d="m 0,0 c 0,-1.111 0.558,-1.411 1.425,-1.411 0.887,0 1.443,0.3 1.443,1.411 V 0.678 H 5.069 V 0.242 c 0,-2.451 -1.504,-3.35 -3.644,-3.35 -2.127,0 -3.624,0.899 -3.624,3.35 v 3.577 c 0,2.477 1.497,3.353 3.624,3.353 2.14,0 3.644,-0.876 3.644,-3.353 V 3.798 H 2.868 v 0.276 c 0,1.097 -0.556,1.41 -1.443,1.41 C 0.558,5.484 0,5.171 0,4.074 Z"
       style="fill:#00306c;fill-opacity:1;fill-rule:nonzero;stroke:none"
       transform="matrix(0.10289779,0,0,-0.10289779,21.494603,20.41938)"
       clip-path="url(#clipPath123)" />
    <path
       id="path124"
       d="m 22.430329,20.333781 h 0.225552 l -0.109793,-0.416223 h -0.0038 z m -0.322687,0.391319 0.293362,-1.029285 h 0.29048 l 0.285851,1.029285 h -0.216499 l -0.05793,-0.217627 h -0.313117 l -0.06442,0.217627 z"
       style="fill:#00306c;fill-opacity:1;fill-rule:nonzero;stroke:none;stroke-width:0.102898" />
    <path
       id="path125"
       d="m 23.101485,19.69625 h 0.226273 v 1.029183 h -0.226273 z"
       style="fill:#00306c;fill-opacity:1;fill-rule:nonzero;stroke:none;stroke-width:0.102898" />
    <path
       id="path126"
       d="m 0,0 c -0.368,0.951 -0.855,1.354 -1.615,1.354 -0.784,0 -1.206,-0.429 -1.206,-1.105 0,-1.514 4.905,-1.619 4.905,-4.739 0,-1.722 -1.356,-2.866 -3.666,-2.866 -1.785,0 -3.176,0.862 -3.765,2.816 l 2.175,0.398 c 0.25,-1.205 1.048,-1.624 1.701,-1.624 0.764,0 1.365,0.426 1.365,1.182 0,1.886 -4.924,1.911 -4.924,4.707 0,1.73 1.181,2.802 3.462,2.802 1.966,0 3.16,-1.003 3.544,-2.414 z"
       style="fill:#00306c;fill-opacity:1;fill-rule:nonzero;stroke:none"
       transform="matrix(0.10289779,0,0,-0.10289779,24.032766,19.982375)"
       clip-path="url(#clipPath127)" />
    <path
       id="path128"
       d="M 0,0 H 0.761 C 1.977,0 2.68,0.495 2.68,1.989 v 2.638 c 0,1.41 -0.544,1.987 -1.919,1.987 H 0 Z M -2.207,8.3 H 0.857 C 3.383,8.3 4.782,7.365 4.876,4.839 V 1.778 C 4.782,-0.749 3.383,-1.703 0.857,-1.703 h -3.064 z"
       style="fill:#00306c;fill-opacity:1;fill-rule:nonzero;stroke:none"
       transform="matrix(0.10289779,0,0,-0.10289779,25.114976,20.549865)"
       clip-path="url(#clipPath129)" />
    <path
       id="path130"
       d="m 0,0 v -6.991 c 0,-0.967 0.481,-1.452 1.549,-1.452 1.07,0 1.568,0.485 1.568,1.452 V 0 h 2.195 v -7.007 c 0,-2.193 -1.498,-3.132 -3.763,-3.132 -2.262,0 -3.748,0.939 -3.748,3.132 V 0 Z"
       style="fill:#00306c;fill-opacity:1;fill-rule:nonzero;stroke:none"
       transform="matrix(0.10289779,0,0,-0.10289779,26.052323,19.695804)"
       clip-path="url(#clipPath131)" />
    <path
       id="path132"
       d="m 0,0 c -0.369,0.951 -0.841,1.354 -1.611,1.354 -0.784,0 -1.215,-0.429 -1.215,-1.105 0,-1.514 4.915,-1.619 4.915,-4.739 0,-1.722 -1.357,-2.866 -3.667,-2.866 -1.791,0 -3.181,0.862 -3.767,2.816 l 2.169,0.398 c 0.256,-1.205 1.057,-1.624 1.702,-1.624 0.766,0 1.366,0.426 1.366,1.182 0,1.886 -4.921,1.911 -4.921,4.707 0,1.73 1.189,2.802 3.461,2.802 1.963,0 3.162,-1.003 3.543,-2.414 z"
       style="fill:#00306c;fill-opacity:1;fill-rule:nonzero;stroke:none"
       transform="matrix(0.10289779,0,0,-0.10289779,27.789543,19.982375)"
       clip-path="url(#clipPath133)" />
    <path
       id="path134"
       d="m 28.402351,20.333781 h 0.224319 l -0.109485,-0.416223 h -0.0029 z m -0.323614,0.391319 0.293878,-1.029285 h 0.290891 l 0.284923,1.029285 h -0.216393 l -0.05742,-0.217627 h -0.313222 l -0.064,0.217627 z"
       style="fill:#00306c;fill-opacity:1;fill-rule:nonzero;stroke:none;stroke-width:0.102898" />
    <path
       id="path135"
       d="m 29.127342,20.724852 v -1.029183 h 0.247571 l 0.314766,0.609361 h 0.0034 V 19.695669 H 29.8998 v 1.029183 H 29.683186 L 29.337138,20.06044 h -0.0034 v 0.664412 z"
       style="fill:#00306c;fill-opacity:1;fill-rule:nonzero;stroke:none;stroke-width:0.102898" />
    <path
       id="path136"
       d="m 0,0 c -1.945,0.097 -3.287,1.02 -3.287,3.332 v 3.577 c 0,2.477 1.502,3.355 3.638,3.355 2.251,0 3.463,-1.117 3.543,-3.382 H 1.69 c 0,1.282 -0.544,1.693 -1.339,1.693 -0.873,0 -1.437,-0.31 -1.437,-1.41 V 3.092 c 0,-1.112 0.564,-1.411 1.437,-1.411 0.834,0 1.339,0.539 1.339,1.378 V 3.682 H 0.144 v 1.995 h 3.75 V 3.4 C 3.894,2.682 3.815,0 0,0"
       style="fill:#00306c;fill-opacity:1;fill-rule:nonzero;stroke:none"
       transform="matrix(0.10289779,0,0,-0.10289779,30.483757,20.737345)"
       clip-path="url(#clipPath137)" />
    <path
       id="path138"
       d="m 17.515716,13.0516 h 2.664127 v 0.40552 h -1.948679 v 1.730947 h 1.76799 v 0.405314 h -1.76799 v 2.445159 h -0.715448 z"
       style="fill:#00306c;fill-opacity:1;fill-rule:nonzero;stroke:none;stroke-width:0.102898" />
    <path
       id="path139"
       d="m 0,0 c 0,0 -4.528,3.39 -11.262,3.39 -6.734,0 -14.502,-3.289 -14.502,-12.317 0,-13.38 20.744,-12.785 20.744,-24.593 0,-5.576 -3.572,-9.028 -8.436,-9.028 -3.278,0 -7.304,0.864 -12.414,6.358 v -5.738 c 0,0 5.141,-4.404 12.706,-4.404 7.565,0 15.116,4.867 15.116,13.586 0,16.285 -21.055,15.668 -21.055,25.503 0,6.04 5.717,6.963 8.065,6.963 2.185,0 5.987,-0.13 11.033,-4.394 z"
       style="fill:#00306c;fill-opacity:1;fill-rule:nonzero;stroke:none"
       transform="matrix(0.10289779,0,0,-0.10289779,23.388529,13.33246)"
       clip-path="url(#clipPath140)" />
    <path
       id="path141"
       d="m 14.515503,17.637631 v -2.04674 h 1.738149 v -0.405418 h -1.738149 v -1.731049 h 1.919045 v -0.405212 h -2.634081 v 4.988176 h 2.717014 v -0.399757 z"
       style="fill:#00306c;fill-opacity:1;fill-rule:nonzero;stroke:none;stroke-width:0.102898" />
    <path
       id="path142"
       d="m 0,0 c -41.874,0 -76.706,-31.994 -79.744,-77.271 h 0.381 c 3.17,27.825 28.526,71.813 79.363,71.813 50.837,0 76.187,-43.988 79.361,-71.813 H 79.74 C 76.702,-31.994 41.869,0 0,0"
       style="fill:#00306c;fill-opacity:1;fill-rule:nonzero;stroke:none"
       transform="matrix(0.10289779,0,0,-0.10289779,18.482643,8.8338396)"
       clip-path="url(#clipPath143)" />
    <path
       id="path144"
       d="m 6.6551409,19.31721 -0.186038,0.244897 h -0.165563 l 0.09693,-0.244897 z"
       style="fill:#00306c;fill-opacity:1;fill-rule:nonzero;stroke:none;stroke-width:0.102898" />
    <path
       id="path145"
       d="m 6.0697359,20.724852 v -1.029183 h 0.620063 v 0.174104 h -0.394306 v 0.236046 h 0.30005 v 0.173485 h -0.30005 v 0.270623 h 0.410666 v 0.174925 z"
       style="fill:#00306c;fill-opacity:1;fill-rule:nonzero;stroke:none;stroke-width:0.102898" />
    <path
       id="path146"
       d="M 7.5922789,19.695804 V 19.8697 h -0.264138 v 0.855286 H 7.1021769 V 19.8697 h -0.26455 v -0.173896 z"
       style="fill:#00306c;fill-opacity:1;fill-rule:nonzero;stroke:none;stroke-width:0.102898" />
    <path
       id="path147"
       d="m 7.9255689,20.333781 h 0.225036 l -0.110409,-0.416223 h -0.0032 z m -0.323201,0.391319 0.293359,-1.029285 h 0.290789 l 0.286058,1.029285 h -0.217528 l -0.0569,-0.217627 h -0.314045 l -0.064,0.217627 z"
       style="fill:#00306c;fill-opacity:1;fill-rule:nonzero;stroke:none;stroke-width:0.102898" />
    <path
       id="path148"
       d="m 0,0 h 0.932 c 1.14,0 1.747,0.586 1.747,1.453 0,0.954 -0.762,1.42 -1.912,1.42 H 0 Z m 0,4.443 h 0.767 c 0.99,0 1.64,0.507 1.64,1.182 0,0.742 -0.49,1.21 -1.529,1.21 H 0 Z m -2.199,3.968 h 3.092 c 2.364,0 3.724,-0.85 3.724,-2.59 C 4.617,4.963 4.118,4.248 3.188,3.758 4.408,3.094 4.885,2.545 4.885,1.295 4.885,-0.678 3.351,-1.59 1.026,-1.59 h -3.225 z"
       style="fill:#00306c;fill-opacity:1;fill-rule:nonzero;stroke:none"
       transform="matrix(0.10289779,0,0,-0.10289779,8.8375809,20.561308)"
       clip-path="url(#clipPath149)" />
    <path
       id="path150"
       d="m 9.4924349,20.724852 v -1.029183 h 0.226273 v 0.854258 h 0.3646681 v 0.174925 z"
       style="fill:#00306c;fill-opacity:1;fill-rule:nonzero;stroke:none;stroke-width:0.102898" />
    <path
       id="path151"
       d="m 10.247904,19.69625 h 0.226272 v 1.029183 h -0.226272 z"
       style="fill:#00306c;fill-opacity:1;fill-rule:nonzero;stroke:none;stroke-width:0.102898" />
    <path
       id="path152"
       d="m 0,0 c -0.363,0.951 -0.85,1.354 -1.615,1.354 -0.78,0 -1.21,-0.429 -1.21,-1.105 0,-1.514 4.914,-1.619 4.914,-4.739 0,-1.722 -1.355,-2.866 -3.667,-2.866 -1.789,0 -3.18,0.862 -3.766,2.816 l 2.173,0.398 c 0.254,-1.205 1.041,-1.624 1.7,-1.624 0.771,0 1.363,0.426 1.363,1.182 0,1.886 -4.915,1.911 -4.915,4.707 0,1.73 1.178,2.802 3.46,2.802 1.961,0 3.155,-1.003 3.538,-2.414 z"
       style="fill:#00306c;fill-opacity:1;fill-rule:nonzero;stroke:none"
       transform="matrix(0.10289779,0,0,-0.10289779,11.171017,19.982375)"
       clip-path="url(#clipPath153)" />
    <path
       id="path154"
       d="m 0,0 c -0.367,0.951 -0.847,1.354 -1.608,1.354 -0.786,0 -1.213,-0.429 -1.213,-1.105 0,-1.514 4.914,-1.619 4.914,-4.739 0,-1.722 -1.359,-2.866 -3.666,-2.866 -1.791,0 -3.179,0.862 -3.77,2.816 l 2.171,0.398 c 0.26,-1.205 1.056,-1.624 1.707,-1.624 0.764,0 1.354,0.426 1.354,1.182 0,1.886 -4.907,1.911 -4.907,4.707 0,1.73 1.175,2.802 3.46,2.802 1.958,0 3.157,-1.003 3.538,-2.414 z"
       style="fill:#00306c;fill-opacity:1;fill-rule:nonzero;stroke:none"
       transform="matrix(0.10289779,0,0,-0.10289779,12.025759,19.982375)"
       clip-path="url(#clipPath155)" />
    <path
       id="path156"
       d="m 12.415622,20.724852 v -1.029183 h 0.620681 v 0.173692 h -0.393894 v 0.236458 h 0.300257 v 0.173485 h -0.300257 v 0.270623 h 0.410459 v 0.174925 z"
       style="fill:#00306c;fill-opacity:1;fill-rule:nonzero;stroke:none;stroke-width:0.102898" />
    <path
       id="path157"
       d="m 13.220248,20.724852 v -1.029183 h 0.294082 l 0.190463,0.577256 h 0.0034 l 0.19139,-0.577256 h 0.294392 v 1.029183 H 14.01349 V 19.91484 h -0.0032 l -0.223803,0.599998 h -0.15918 L 13.403195,19.91484 h -0.0036 v 0.810012 z"
       style="fill:#00306c;fill-opacity:1;fill-rule:nonzero;stroke:none;stroke-width:0.102898" />
    <path
       id="path158"
       d="m 14.38626,20.724852 v -1.029183 h 0.620062 v 0.173692 h -0.393789 v 0.236458 h 0.300152 v 0.173485 h -0.300152 v 0.270623 h 0.410149 v 0.174925 z"
       style="fill:#00306c;fill-opacity:1;fill-rule:nonzero;stroke:none;stroke-width:0.102898" />
    <path
       id="path159"
       d="m 15.210454,20.724852 v -1.029183 h 0.247367 l 0.315482,0.609361 h 0.0034 v -0.609361 h 0.206616 v 1.029183 H 15.766218 L 15.419864,20.06044 h -0.0029 v 0.664412 z"
       style="fill:#00306c;fill-opacity:1;fill-rule:nonzero;stroke:none;stroke-width:0.102898" />
    <path
       id="path160"
       d="M 16.907557,19.695804 V 19.8697 h -0.264549 v 0.855286 H 16.416735 V 19.8697 h -0.264346 v -0.173896 z"
       style="fill:#00306c;fill-opacity:1;fill-rule:nonzero;stroke:none;stroke-width:0.102898" />
    <path
       id="path161"
       d="m 26.627666,21.390612 z m 0,-3.345515 z"
       style="fill:none;stroke:#009ee3;stroke-width:0.0334418;stroke-linecap:round;stroke-linejoin:round;stroke-miterlimit:10;stroke-dasharray:none;stroke-opacity:1" />
  </g>
</svg>
